SplineFontDB: 3.0
FontName: Shrewsbury-Titling-Bold
FullName: Shrewsbury-Titling Bold
FamilyName: Shrewsbury-Titling
Weight: Bold
Copyright: Shrewsbury Titling Bold Copyright (C) PJL '96
Version: 1.00
ItalicAngle: 0
UnderlinePosition: -150
UnderlineWidth: 50
Ascent: 800
Descent: 200
InvalidEm: 0
sfntRevision: 0x00010000
LayerCount: 2
Layer: 0 1 "Back" 1
Layer: 1 1 "Fore" 0
XUID: [1021 179 -772089369 16251]
StyleMap: 0x0020
FSType: 0
OS2Version: 0
OS2_WeightWidthSlopeOnly: 0
OS2_UseTypoMetrics: 0
CreationTime: -2082844800
ModificationTime: 1515523619
PfmFamily: 17
TTFWeight: 700
TTFWidth: 5
LineGap: 0
VLineGap: 0
Panose: 2 2 8 0 0 0 0 0 0 0
OS2TypoAscent: 554
OS2TypoAOffset: 0
OS2TypoDescent: 256
OS2TypoDOffset: 0
OS2TypoLinegap: 0
OS2WinAscent: 949
OS2WinAOffset: 0
OS2WinDescent: 457
OS2WinDOffset: 0
HheadAscent: 554
HheadAOffset: 0
HheadDescent: 256
HheadDOffset: 0
OS2SubXSize: 500
OS2SubYSize: 500
OS2SubXOff: 0
OS2SubYOff: -500
OS2SupXSize: 500
OS2SupYSize: 500
OS2SupXOff: 0
OS2SupYOff: 250
OS2StrikeYSize: 50
OS2StrikeYPos: 250
OS2Vendor: 'DTPS'
OS2UnicodeRanges: 00000000.00000000.00000000.00000000
Lookup: 258 0 0 "'kern' Horizontal Kerning in Latin lookup 0" { "'kern' Horizontal Kerning in Latin lookup 0 subtable"  } ['kern' ('DFLT' <'dflt' > 'latn' <'dflt' > ) ]
DEI: 91125
TtTable: prep
PUSHW_2
 511
 512
SCANTYPE
SCANCTRL
PUSHB_1
 58
SCVTCI
PUSHB_1
 30
SSWCI
PUSHB_1
 8
SSW
PUSHB_1
 32
SMD
SVTCA[y-axis]
EndTTInstrs
TtTable: fpgm
PUSHB_8
 7
 6
 5
 4
 3
 2
 1
 0
FDEF
DUP
GC[orig]
DUP
ROUND[Grey]
SUB
ABS
PUSHB_1
 3
CINDEX
GC[orig]
DUP
ROUND[Grey]
SUB
ABS
GT
IF
PUSHB_1
 5
CALL
ELSE
PUSHB_1
 6
CALL
EIF
ENDF
FDEF
MDRP[min,rnd,grey]
ENDF
FDEF
SRP1
SRP2
SLOOP
IP
ENDF
FDEF
MPPEM
PUSHB_1
 65
LT
IF
ALIGNRP
ELSE
POP
EIF
ENDF
FDEF
PUSHB_5
 0
 0
 0
 0
 7
MINDEX
PUSHB_1
 7
MINDEX
PUSHB_1
 7
MINDEX
PUSHB_1
 0
CALL
ENDF
FDEF
SWAP
DUP
PUSHB_1
 0
SWAP
WS
MDAP[rnd]
SWAP
DUP
PUSHB_1
 0
EQ
IF
POP
MDRP[rp0,min,rnd,grey]
ELSE
MIRP[rp0,min,rnd,grey]
EIF
SLOOP
ALIGNRP
PUSHB_1
 3
LOOPCALL

StartChar: .notdef
Encoding: 0 711 0
AltUni2: 000000.ffffffff.0 000001.ffffffff.0 000002.ffffffff.0 000003.ffffffff.0 000004.ffffffff.0 000005.ffffffff.0 000006.ffffffff.0 000007.ffffffff.0 000008.ffffffff.0 000009.ffffffff.0 00000a.ffffffff.0 00000b.ffffffff.0 00000c.ffffffff.0 00000d.ffffffff.0 00000e.ffffffff.0 00000f.ffffffff.0 000010.ffffffff.0 000011.ffffffff.0 000012.ffffffff.0 000013.ffffffff.0 000014.ffffffff.0 000015.ffffffff.0 000016.ffffffff.0 000017.ffffffff.0 000018.ffffffff.0 000019.ffffffff.0 00001a.ffffffff.0 00001b.ffffffff.0 00001c.ffffffff.0 00001d.ffffffff.0 00001e.ffffffff.0 00001f.ffffffff.0 000023.ffffffff.0 000024.ffffffff.0 000025.ffffffff.0 00002a.ffffffff.0 00002b.ffffffff.0 00003c.ffffffff.0 00003d.ffffffff.0 00003e.ffffffff.0 000040.ffffffff.0 00005b.ffffffff.0 00005c.ffffffff.0 00005d.ffffffff.0 00005e.ffffffff.0 00007b.ffffffff.0 00007c.ffffffff.0 00007d.ffffffff.0 00007e.ffffffff.0 00007f.ffffffff.0 0000c4.ffffffff.0 0000c5.ffffffff.0 0000c7.ffffffff.0 0000c9.ffffffff.0 0000d1.ffffffff.0 0000d6.ffffffff.0 0000dc.ffffffff.0 0000e1.ffffffff.0 0000e0.ffffffff.0 0000e2.ffffffff.0 0000e4.ffffffff.0 0000e3.ffffffff.0 0000e5.ffffffff.0 0000e7.ffffffff.0 0000e9.ffffffff.0 0000e8.ffffffff.0 0000ea.ffffffff.0 0000ef.ffffffff.0 0000f1.ffffffff.0 0000f3.ffffffff.0 0000f2.ffffffff.0 0000f4.ffffffff.0 0000f6.ffffffff.0 0000f5.ffffffff.0 0000fa.ffffffff.0 0000f9.ffffffff.0 0000fb.ffffffff.0 0000fc.ffffffff.0 002020.ffffffff.0 0000b0.ffffffff.0 0000a2.ffffffff.0 0000a3.ffffffff.0 0000a7.ffffffff.0 002022.ffffffff.0 0000b6.ffffffff.0 0000df.ffffffff.0 0000ae.ffffffff.0 0000a9.ffffffff.0 002122.ffffffff.0 0000b4.ffffffff.0 0000a8.ffffffff.0 002260.ffffffff.0 0000c6.ffffffff.0 0000d8.ffffffff.0 00221e.ffffffff.0 0000b1.ffffffff.0 002264.ffffffff.0 002265.ffffffff.0 0000a5.ffffffff.0 0000b5.ffffffff.0 002202.ffffffff.0 002211.ffffffff.0 00220f.ffffffff.0 0003c0.ffffffff.0 00222b.ffffffff.0 0000aa.ffffffff.0 0000ba.ffffffff.0 002126.ffffffff.0 0000bf.ffffffff.0 0000a1.ffffffff.0 0000ac.ffffffff.0 00221a.ffffffff.0 000192.ffffffff.0 002248.ffffffff.0 002206.ffffffff.0 0000ab.ffffffff.0 0000bb.ffffffff.0 002026.ffffffff.0 0000a0.ffffffff.0 0000c0.ffffffff.0 0000c3.ffffffff.0 0000d5.ffffffff.0 000152.ffffffff.0 000153.ffffffff.0 002013.ffffffff.0 002014.ffffffff.0 00201c.ffffffff.0 00201d.ffffffff.0 002018.ffffffff.0 002019.ffffffff.0 0000f7.ffffffff.0 0025ca.ffffffff.0 0000ff.ffffffff.0 000178.ffffffff.0 002044.ffffffff.0 0000a4.ffffffff.0 002039.ffffffff.0 00203a.ffffffff.0 00fb01.ffffffff.0 00fb02.ffffffff.0 002021.ffffffff.0 0000b7.ffffffff.0 00201a.ffffffff.0 00201e.ffffffff.0 002030.ffffffff.0 0000c2.ffffffff.0 0000ca.ffffffff.0 0000c1.ffffffff.0 0000cb.ffffffff.0 0000c8.ffffffff.0 0000cd.ffffffff.0 0000ce.ffffffff.0 0000cf.ffffffff.0 0000cc.ffffffff.0 0000d3.ffffffff.0 0000d4.ffffffff.0 0000d2.ffffffff.0 0000da.ffffffff.0 0000db.ffffffff.0 0000d9.ffffffff.0 000131.ffffffff.0 0002c6.ffffffff.0 0002dc.ffffffff.0 0000af.ffffffff.0 0002d8.ffffffff.0 0002d9.ffffffff.0 0002da.ffffffff.0 0000b8.ffffffff.0 0002dd.ffffffff.0 0002db.ffffffff.0
Width: 502
Flags: W
LayerCount: 2
Fore
SplineSet
-1 0 m 1,0,-1
 499 0 l 1,1,-1
 499 500 l 1,2,-1
 -1 500 l 1,3,-1
 -1 0 l 1,0,-1
9 10 m 1,4,-1
 9 490 l 1,5,-1
 489 490 l 1,6,-1
 489 10 l 1,7,-1
 9 10 l 1,4,-1
EndSplineSet
Validated: 4194313
EndChar

StartChar: exclam
Encoding: 33 33 2
Width: 319
Flags: W
LayerCount: 2
Fore
SplineSet
210 174 m 256,0,1
 172 174 172 174 147 147 c 128,-1,2
 122 120 122 120 122 87 c 0,3,4
 122 53 122 53 147 26.5 c 128,-1,5
 172 0 172 0 210 0 c 256,6,7
 248 0 248 0 273.5 26.5 c 128,-1,8
 299 53 299 53 299 87 c 0,9,10
 299 120 299 120 273.5 147 c 128,-1,11
 248 174 248 174 210 174 c 256,0,1
211 241 m 0,12,13
 245 241 245 241 257 275.5 c 128,-1,14
 269 310 269 310 276 385 c 2,15,-1
 278 405 l 2,16,17
 280 424 280 424 285 467 c 0,18,19
 292 530 292 530 295.5 568 c 128,-1,20
 299 606 299 606 299 634 c 0,21,22
 299 655 299 655 294 678.5 c 128,-1,23
 289 702 289 702 277.5 724 c 128,-1,24
 266 746 266 746 247.5 759.5 c 128,-1,25
 229 773 229 773 203 773 c 0,26,27
 181 773 181 773 162.5 766 c 128,-1,28
 144 759 144 759 122 747 c 0,29,30
 106 739 106 739 100 737 c 0,31,32
 90 732 90 732 68 726 c 0,33,34
 44 719 44 719 32 712 c 128,-1,35
 20 705 20 705 20 692 c 0,36,37
 20 683 20 683 31.5 673.5 c 128,-1,38
 43 664 43 664 67 664 c 0,39,40
 76 664 76 664 92 666 c 0,41,42
 104 668 104 668 110 668 c 0,43,44
 124 668 124 668 129 630.5 c 128,-1,45
 134 593 134 593 138 511 c 0,46,47
 141 446 141 446 144 405.5 c 128,-1,48
 147 365 147 365 154.5 326.5 c 128,-1,49
 162 288 162 288 176 264.5 c 128,-1,50
 190 241 190 241 211 241 c 0,12,13
EndSplineSet
Validated: 9
EndChar

StartChar: quotedbl
Encoding: 34 34 3
Width: 336
Flags: W
LayerCount: 2
Fore
SplineSet
20 768 m 1,0,-1
 28 681 l 2,1,2
 30 659 30 659 45 641.5 c 128,-1,3
 60 624 60 624 90 624 c 0,4,5
 121 624 121 624 135.5 640.5 c 128,-1,6
 150 657 150 657 152 681 c 2,7,-1
 159 768 l 1,8,-1
 20 768 l 1,0,-1
177 767 m 1,9,-1
 185 680 l 2,10,11
 187 658 187 658 202 640.5 c 128,-1,12
 217 623 217 623 247 623 c 0,13,14
 278 623 278 623 292.5 640 c 128,-1,15
 307 657 307 657 309 680 c 2,16,-1
 316 767 l 1,17,-1
 177 767 l 1,9,-1
EndSplineSet
Validated: 9
EndChar

StartChar: ampersand
Encoding: 38 38 4
Width: 864
Flags: W
LayerCount: 2
Fore
SplineSet
375 766 m 0,0,1
 325 766 325 766 277 751 c 128,-1,2
 229 736 229 736 192 710.5 c 128,-1,3
 155 685 155 685 133.5 653 c 128,-1,4
 112 621 112 621 112 587 c 0,5,6
 112 556 112 556 126 525 c 128,-1,7
 140 494 140 494 168 456 c 1,8,-1
 169 455 l 2,9,10
 178 446 178 446 178 438 c 0,11,12
 178 428 178 428 174 426 c 0,13,14
 103 388 103 388 61.5 334.5 c 128,-1,15
 20 281 20 281 20 220 c 0,16,17
 20 175 20 175 43 132.5 c 128,-1,18
 66 90 66 90 107 57 c 128,-1,19
 148 24 148 24 202 5.5 c 128,-1,20
 256 -13 256 -13 316 -13 c 0,21,22
 378 -13 378 -13 436 8 c 128,-1,23
 494 29 494 29 533 62 c 1,24,25
 569 24 569 24 597.5 5.5 c 128,-1,26
 626 -13 626 -13 660 -13 c 0,27,28
 686 -13 686 -13 716 -6.5 c 128,-1,29
 746 0 746 0 772 9 c 0,30,31
 801 19 801 19 822.5 31 c 128,-1,32
 844 43 844 43 844 55 c 0,33,34
 844 63 844 63 835 71.5 c 128,-1,35
 826 80 826 80 805 80 c 0,36,37
 798 80 798 80 783 79 c 0,38,39
 770 77 770 77 760 77 c 0,40,41
 748 77 748 77 733 89.5 c 128,-1,42
 718 102 718 102 685 136 c 0,43,44
 662 159 662 159 654 167 c 0,45,46
 652 169 652 169 650 178.5 c 128,-1,47
 648 188 648 188 648 198 c 0,48,49
 648 233 648 233 657 283 c 128,-1,50
 666 333 666 333 678 360 c 0,51,52
 681 367 681 367 707 375 c 0,53,54
 727 381 727 381 738 387.5 c 128,-1,55
 749 394 749 394 749 408 c 0,56,57
 749 420 749 420 735 429 c 128,-1,58
 721 438 721 438 699 444 c 128,-1,59
 677 450 677 450 654.5 453 c 128,-1,60
 632 456 632 456 615 456 c 0,61,62
 570 456 570 456 539.5 440 c 128,-1,63
 509 424 509 424 509 385 c 0,64,65
 509 370 509 370 514 338 c 0,66,67
 517 321 517 321 518 312 c 1,68,-1
 389 450 l 2,69,70
 382 458 382 458 367 473 c 0,71,72
 324 517 324 517 302 548 c 128,-1,73
 280 579 280 579 280 613 c 256,74,75
 280 647 280 647 296.5 659 c 128,-1,76
 313 671 313 671 348 671 c 0,77,78
 379 671 379 671 399.5 663 c 128,-1,79
 420 655 420 655 432.5 642 c 128,-1,80
 445 629 445 629 452 615 c 128,-1,81
 459 601 459 601 467 579 c 0,82,83
 477 550 477 550 487 536.5 c 128,-1,84
 497 523 497 523 518 523 c 0,85,86
 537 523 537 523 551.5 538.5 c 128,-1,87
 566 554 566 554 575 578.5 c 128,-1,88
 584 603 584 603 588 628 c 128,-1,89
 592 653 592 653 592 672 c 0,90,91
 592 695 592 695 570.5 713 c 128,-1,92
 549 731 549 731 514.5 743 c 128,-1,93
 480 755 480 755 443 760.5 c 128,-1,94
 406 766 406 766 375 766 c 0,0,1
360 80 m 0,95,96
 332 80 332 80 303 94 c 128,-1,97
 274 108 274 108 250 132 c 128,-1,98
 226 156 226 156 212 185.5 c 128,-1,99
 198 215 198 215 198 246 c 0,100,101
 198 287 198 287 213.5 316 c 128,-1,102
 229 345 229 345 256 358 c 1,103,-1
 464 137 l 1,104,105
 447 107 447 107 421 93.5 c 128,-1,106
 395 80 395 80 360 80 c 0,95,96
EndSplineSet
Validated: 9
EndChar

StartChar: quotesingle
Encoding: 39 39 5
Width: 178
Flags: W
LayerCount: 2
Fore
SplineSet
20 768 m 1,0,-1
 27 681 l 2,1,2
 30 659 30 659 45 641.5 c 128,-1,3
 60 624 60 624 90 624 c 256,4,5
 120 624 120 624 134.5 640.5 c 128,-1,6
 149 657 149 657 152 681 c 2,7,-1
 158 768 l 1,8,-1
 20 768 l 1,0,-1
EndSplineSet
Validated: 9
EndChar

StartChar: parenleft
Encoding: 40 40 6
Width: 325
Flags: W
LayerCount: 2
Fore
SplineSet
190 454 m 0,0,1
 190 534 190 534 199 599.5 c 128,-1,2
 208 665 208 665 224 706 c 0,3,4
 236 738 236 738 248 760 c 128,-1,5
 260 782 260 782 275 807 c 0,6,7
 290 830 290 830 290 836 c 0,8,9
 290 841 290 841 280 849.5 c 128,-1,10
 270 858 270 858 252 858 c 0,11,12
 209 858 209 858 167 815.5 c 128,-1,13
 125 773 125 773 92 705.5 c 128,-1,14
 59 638 59 638 39.5 564.5 c 128,-1,15
 20 491 20 491 20 433 c 0,16,17
 20 290 20 290 65 167 c 0,18,19
 83 120 83 120 107.5 78 c 128,-1,20
 132 36 132 36 159 4.5 c 128,-1,21
 186 -27 186 -27 212 -44.5 c 128,-1,22
 238 -62 238 -62 259 -62 c 0,23,24
 270 -62 270 -62 287.5 -52.5 c 128,-1,25
 305 -43 305 -43 305 -38 c 0,26,27
 305 -34 305 -34 293 -12 c 0,28,29
 263 42 263 42 245 90 c 0,30,31
 221 155 221 155 205.5 248 c 128,-1,32
 190 341 190 341 190 454 c 0,0,1
EndSplineSet
Validated: 9
EndChar

StartChar: parenright
Encoding: 41 41 7
Width: 337
Flags: W
LayerCount: 2
Fore
SplineSet
140 370 m 0,0,1
 140 309 140 309 137.5 266 c 128,-1,2
 135 223 135 223 130.5 190 c 128,-1,3
 126 157 126 157 118.5 129.5 c 128,-1,4
 111 102 111 102 99 71 c 0,5,6
 82 25 82 25 55 -26 c 0,7,8
 44 -48 44 -48 44 -52 c 0,9,10
 44 -57 44 -57 61.5 -66.5 c 128,-1,11
 79 -76 79 -76 90 -76 c 0,12,13
 110 -76 110 -76 134.5 -60 c 128,-1,14
 159 -44 159 -44 184 -14 c 128,-1,15
 209 16 209 16 232 56.5 c 128,-1,16
 255 97 255 97 272 143 c 0,17,18
 295 207 295 207 306 266.5 c 128,-1,19
 317 326 317 326 317 399 c 0,20,21
 317 467 317 467 294 545 c 128,-1,22
 271 623 271 623 232 692.5 c 128,-1,23
 193 762 193 762 147 804 c 128,-1,24
 101 846 101 846 58 846 c 0,25,26
 40 846 40 846 30 837.5 c 128,-1,27
 20 829 20 829 20 824 c 0,28,29
 20 818 20 818 35 795 c 256,30,31
 50 772 50 772 62 749 c 128,-1,32
 74 726 74 726 86 694 c 0,33,34
 94 674 94 674 103 636 c 128,-1,35
 112 598 112 598 120.5 551 c 128,-1,36
 129 504 129 504 134.5 456.5 c 128,-1,37
 140 409 140 409 140 370 c 0,0,1
EndSplineSet
Validated: 9
EndChar

StartChar: comma
Encoding: 44 44 8
Width: 231
Flags: W
LayerCount: 2
Fore
SplineSet
106 170 m 0,0,1
 69 170 69 170 44.5 143.5 c 128,-1,2
 20 117 20 117 20 85 c 0,3,4
 20 56 20 56 39 31 c 128,-1,5
 58 6 58 6 89 -1 c 1,6,-1
 89 -14 l 2,7,8
 89 -28 89 -28 83.5 -36 c 128,-1,9
 78 -44 78 -44 67 -54 c 0,10,11
 59 -61 59 -61 54.5 -67 c 128,-1,12
 50 -73 50 -73 50 -82 c 0,13,14
 50 -88 50 -88 66 -93.5 c 128,-1,15
 82 -99 82 -99 93 -99 c 0,16,17
 113 -99 113 -99 133.5 -85 c 128,-1,18
 154 -71 154 -71 172 -46.5 c 128,-1,19
 190 -22 190 -22 200.5 5.5 c 128,-1,20
 211 33 211 33 211 58 c 0,21,22
 211 73 211 73 203.5 92.5 c 128,-1,23
 196 112 196 112 182 129.5 c 128,-1,24
 168 147 168 147 148.5 158.5 c 128,-1,25
 129 170 129 170 106 170 c 0,0,1
EndSplineSet
Validated: 9
EndChar

StartChar: hyphen
Encoding: 45 45 9
Width: 230
Flags: W
LayerCount: 2
Fore
SplineSet
20 407 m 1,0,-1
 20 374 l 1,1,-1
 210 374 l 1,2,-1
 210 407 l 1,3,-1
 20 407 l 1,0,-1
EndSplineSet
Validated: 9
EndChar

StartChar: period
Encoding: 46 46 10
Width: 208
Flags: W
LayerCount: 2
Fore
SplineSet
104 165 m 256,0,1
 68 165 68 165 44 139.5 c 128,-1,2
 20 114 20 114 20 82 c 256,3,4
 20 50 20 50 44 25 c 128,-1,5
 68 0 68 0 104 0 c 256,6,7
 140 0 140 0 164 25 c 128,-1,8
 188 50 188 50 188 82 c 256,9,10
 188 114 188 114 164 139.5 c 128,-1,11
 140 165 140 165 104 165 c 256,0,1
EndSplineSet
Validated: 9
EndChar

StartChar: slash
Encoding: 47 47 11
Width: 312
Flags: W
LayerCount: 2
Fore
SplineSet
175 768 m 1,0,-1
 20 0 l 1,1,-1
 129 0 l 1,2,-1
 292 768 l 1,3,-1
 175 768 l 1,0,-1
EndSplineSet
Validated: 9
EndChar

StartChar: zero
Encoding: 48 48 12
Width: 554
Flags: W
LayerCount: 2
Fore
SplineSet
264 646 m 0,0,1
 211 646 211 646 165.5 620 c 128,-1,2
 120 594 120 594 87.5 548 c 128,-1,3
 55 502 55 502 37.5 443 c 128,-1,4
 20 384 20 384 20 319 c 0,5,6
 20 255 20 255 39.5 196 c 128,-1,7
 59 137 59 137 94 91.5 c 128,-1,8
 129 46 129 46 176 20 c 128,-1,9
 223 -6 223 -6 277 -6 c 256,10,11
 331 -6 331 -6 378 20 c 128,-1,12
 425 46 425 46 460 91.5 c 128,-1,13
 495 137 495 137 514.5 196 c 128,-1,14
 534 255 534 255 534 319 c 256,15,16
 534 383 534 383 513 442 c 128,-1,17
 492 501 492 501 454 547.5 c 128,-1,18
 416 594 416 594 367 620 c 128,-1,19
 318 646 318 646 264 646 c 0,0,1
241 569 m 0,20,21
 261 569 261 569 283.5 537 c 128,-1,22
 306 505 306 505 326 452.5 c 128,-1,23
 346 400 346 400 358.5 341 c 128,-1,24
 371 282 371 282 371 230 c 0,25,26
 371 180 371 180 366 149.5 c 128,-1,27
 361 119 361 119 353 104.5 c 128,-1,28
 345 90 345 90 334.5 85.5 c 128,-1,29
 324 81 324 81 310 81 c 0,30,31
 283 81 283 81 258 113 c 128,-1,32
 233 145 233 145 213.5 197.5 c 128,-1,33
 194 250 194 250 183 309.5 c 128,-1,34
 172 369 172 369 172 422 c 0,35,36
 172 498 172 498 187.5 533.5 c 128,-1,37
 203 569 203 569 241 569 c 0,20,21
EndSplineSet
Validated: 9
EndChar

StartChar: one
Encoding: 49 49 13
Width: 430
Flags: W
LayerCount: 2
Fore
SplineSet
133 143 m 2,0,1
 133 109 133 109 119 93.5 c 128,-1,2
 105 78 105 78 79 65 c 0,3,4
 62 56 62 56 53.5 48.5 c 128,-1,5
 45 41 45 41 45 27 c 0,6,7
 45 18 45 18 59 9 c 128,-1,8
 73 0 73 0 101 0 c 0,9,10
 125 0 125 0 172 6 c 0,11,12
 221 12 221 12 249 12 c 0,13,14
 258 12 258 12 285 8 c 0,15,16
 331 0 331 0 355 0 c 0,17,18
 375 0 375 0 392.5 11.5 c 128,-1,19
 410 23 410 23 410 38 c 0,20,21
 410 51 410 51 400.5 57 c 128,-1,22
 391 63 391 63 369 69 c 0,23,24
 339 77 339 77 322.5 89.5 c 128,-1,25
 306 102 306 102 306 132 c 2,26,-1
 306 569 l 2,27,28
 306 598 306 598 289.5 620 c 128,-1,29
 273 642 273 642 241 642 c 0,30,31
 225 642 225 642 200 631.5 c 128,-1,32
 175 621 175 621 146.5 604.5 c 128,-1,33
 118 588 118 588 93 571 c 128,-1,34
 68 554 68 554 50 540 c 0,35,36
 41 532 41 532 30.5 520.5 c 128,-1,37
 20 509 20 509 20 504 c 0,38,39
 20 495 20 495 35.5 488.5 c 128,-1,40
 51 482 51 482 65 482 c 0,41,42
 93 482 93 482 108 492.5 c 128,-1,43
 123 503 123 503 127 510 c 1,44,45
 127 509 127 509 128 501 c 0,46,47
 133 477 133 477 133 460 c 2,48,-1
 133 143 l 2,0,1
EndSplineSet
Validated: 9
EndChar

StartChar: two
Encoding: 50 50 14
Width: 504
Flags: W
LayerCount: 2
Fore
SplineSet
168 12 m 0,0,1
 191 12 191 12 244 2 c 0,2,3
 306 -10 306 -10 340 -10 c 256,4,5
 374 -10 374 -10 402 13.5 c 128,-1,6
 430 37 430 37 445 62 c 0,7,8
 451 74 451 74 464 92 c 0,9,10
 475 107 475 107 479.5 116.5 c 128,-1,11
 484 126 484 126 484 136 c 0,12,13
 484 150 484 150 476.5 162.5 c 128,-1,14
 469 175 469 175 443 175 c 0,15,16
 428 175 428 175 417 168.5 c 128,-1,17
 406 162 406 162 391 148 c 0,18,19
 377 135 377 135 366 128 c 128,-1,20
 355 121 355 121 339 121 c 0,21,22
 334 121 334 121 310 125 c 0,23,24
 281 130 281 130 262 132.5 c 128,-1,25
 243 135 243 135 225 135 c 0,26,27
 210 135 210 135 190 132 c 0,28,29
 183 131 183 131 182 131 c 1,30,31
 185 133 185 133 185 140 c 0,32,33
 185 166 185 166 208.5 188.5 c 128,-1,34
 232 211 232 211 283 246 c 0,35,36
 322 273 322 273 348 293.5 c 128,-1,37
 374 314 374 314 398 341 c 128,-1,38
 422 368 422 368 436.5 401.5 c 128,-1,39
 451 435 451 435 451 474 c 256,40,41
 451 513 451 513 433 546.5 c 128,-1,42
 415 580 415 580 385 604 c 128,-1,43
 355 628 355 628 318 641 c 128,-1,44
 281 654 281 654 244 654 c 0,45,46
 195 654 195 654 153 635 c 128,-1,47
 111 616 111 616 81.5 585.5 c 128,-1,48
 52 555 52 555 36 520 c 128,-1,49
 20 485 20 485 20 455 c 0,50,51
 20 447 20 447 31.5 436.5 c 128,-1,52
 43 426 43 426 65 426 c 0,53,54
 79 426 79 426 97.5 433 c 128,-1,55
 116 440 116 440 119 452 c 0,56,57
 132 497 132 497 152 524.5 c 128,-1,58
 172 552 172 552 203 552 c 0,59,60
 226 552 226 552 249.5 524.5 c 128,-1,61
 273 497 273 497 273 462 c 0,62,63
 273 415 273 415 245.5 375 c 128,-1,64
 218 335 218 335 162 277 c 0,65,66
 129 243 129 243 108 219 c 128,-1,67
 87 195 87 195 68.5 166 c 128,-1,68
 50 137 50 137 38.5 103 c 128,-1,69
 27 69 27 69 27 32 c 0,70,71
 27 16 27 16 43 5 c 128,-1,72
 59 -6 59 -6 86 -6 c 0,73,74
 111 -6 111 -6 142 5 c 0,75,76
 160 12 160 12 168 12 c 0,0,1
EndSplineSet
Validated: 9
EndChar

StartChar: three
Encoding: 51 51 15
Width: 535
Flags: W
LayerCount: 2
Fore
SplineSet
20 128 m 0,0,1
 20 98 20 98 41 76 c 128,-1,2
 62 54 62 54 100 31 c 0,3,4
 132 12 132 12 175 1.5 c 128,-1,5
 218 -9 218 -9 260 -9 c 0,6,7
 324 -9 324 -9 372.5 14.5 c 128,-1,8
 421 38 421 38 453 77 c 128,-1,9
 485 116 485 116 500 161.5 c 128,-1,10
 515 207 515 207 515 249 c 0,11,12
 515 293 515 293 500.5 326.5 c 128,-1,13
 486 360 486 360 462 381.5 c 128,-1,14
 438 403 438 403 410.5 415 c 128,-1,15
 383 427 383 427 353 433 c 1,16,17
 354 434 354 434 354 439 c 0,18,19
 354 443 354 443 356 448 c 0,20,21
 356 450 356 450 356 450 c 1,22,23
 365 458 365 458 368 460 c 0,24,25
 393 482 393 482 409.5 497 c 128,-1,26
 426 512 426 512 442.5 529 c 128,-1,27
 459 546 459 546 469 561 c 128,-1,28
 479 576 479 576 479 587 c 0,29,30
 479 606 479 606 462.5 623 c 128,-1,31
 446 640 446 640 409 640 c 0,32,33
 380 640 380 640 320 635 c 0,34,35
 276 632 276 632 260 632 c 0,36,37
 241 632 241 632 204 637 c 0,38,39
 159 643 159 643 133 643 c 0,40,41
 105 643 105 643 86 630 c 128,-1,42
 67 617 67 617 56.5 596.5 c 128,-1,43
 46 576 46 576 41.5 553.5 c 128,-1,44
 37 531 37 531 37 511 c 0,45,46
 37 494 37 494 46 479.5 c 128,-1,47
 55 465 55 465 80 465 c 0,48,49
 103 465 103 465 114 476.5 c 128,-1,50
 125 488 125 488 134 508 c 0,51,52
 140 520 140 520 143.5 525 c 128,-1,53
 147 530 147 530 153 530 c 0,54,55
 171 530 171 530 212 522 c 0,56,57
 262 513 262 513 291 512 c 1,58,-1
 291 510 l 2,59,60
 291 508 291 508 292 505 c 1,61,62
 292 506 292 506 294 506 c 1,63,64
 273 490 273 490 247 468 c 128,-1,65
 221 446 221 446 198.5 424 c 128,-1,66
 176 402 176 402 162.5 383.5 c 128,-1,67
 149 365 149 365 149 354 c 0,68,69
 149 348 149 348 165.5 338.5 c 128,-1,70
 182 329 182 329 199 329 c 0,71,72
 210 329 210 329 221 331.5 c 128,-1,73
 232 334 232 334 240 336 c 0,74,75
 242 337 242 337 242 337 c 1,76,77
 262 337 262 337 285 323.5 c 128,-1,78
 308 310 308 310 329 286.5 c 128,-1,79
 350 263 350 263 363 232.5 c 128,-1,80
 376 202 376 202 376 169 c 0,81,82
 376 150 376 150 367 132 c 128,-1,83
 358 114 358 114 344 99.5 c 128,-1,84
 330 85 330 85 314.5 76.5 c 128,-1,85
 299 68 299 68 287 68 c 0,86,87
 247 68 247 68 214 92.5 c 128,-1,88
 181 117 181 117 181 163 c 0,89,90
 181 172 181 172 191 183 c 0,91,92
 198 191 198 191 201.5 198 c 128,-1,93
 205 205 205 205 205 218 c 0,94,95
 205 228 205 228 186.5 235.5 c 128,-1,96
 168 243 168 243 152 243 c 0,97,98
 129 243 129 243 108 231.5 c 128,-1,99
 87 220 87 220 70 204 c 0,100,101
 47 184 47 184 33.5 166.5 c 128,-1,102
 20 149 20 149 20 128 c 0,0,1
EndSplineSet
Validated: 9
EndChar

StartChar: four
Encoding: 52 52 16
Width: 568
Flags: W
LayerCount: 2
Fore
SplineSet
83 193 m 0,0,1
 102 193 102 193 155 195 c 0,2,3
 217 197 217 197 251 197 c 0,4,5
 264 197 264 197 267 195 c 128,-1,6
 270 193 270 193 270 183 c 2,7,-1
 270 143 l 2,8,9
 270 108 270 108 254 92.5 c 128,-1,10
 238 77 238 77 209 63 c 0,11,12
 189 55 189 55 180 47.5 c 128,-1,13
 171 40 171 40 171 26 c 0,14,15
 171 18 171 18 190.5 9 c 128,-1,16
 210 0 210 0 234 0 c 256,17,18
 258 0 258 0 306 6 c 0,19,20
 359 12 359 12 387 12 c 0,21,22
 394 12 394 12 412 8 c 0,23,24
 447 0 447 0 474 0 c 0,25,26
 495 0 495 0 514.5 6.5 c 128,-1,27
 534 13 534 13 534 31 c 0,28,29
 534 47 534 47 525 54.5 c 128,-1,30
 516 62 516 62 496 70 c 0,31,32
 471 79 471 79 457.5 91.5 c 128,-1,33
 444 104 444 104 444 132 c 2,34,-1
 444 190 l 1,35,36
 479 194 479 194 499 207 c 128,-1,37
 519 220 519 220 528 242 c 0,38,39
 536 257 536 257 542 275 c 128,-1,40
 548 293 548 293 548 307 c 0,41,42
 548 316 548 316 538 327.5 c 128,-1,43
 528 339 528 339 506 339 c 0,44,45
 479 339 479 339 467 324.5 c 128,-1,46
 455 310 455 310 447 285 c 0,47,48
 445 277 445 277 444 275 c 2,49,-1
 444 558 l 2,50,51
 444 592 444 592 433 618 c 128,-1,52
 422 644 422 644 396 644 c 0,53,54
 372 644 372 644 312 591.5 c 128,-1,55
 252 539 252 539 183 462 c 128,-1,56
 114 385 114 385 67 318.5 c 128,-1,57
 20 252 20 252 20 227 c 0,58,59
 20 215 20 215 33.5 204 c 128,-1,60
 47 193 47 193 83 193 c 0,0,1
270 449 m 2,61,-1
 270 265 l 2,62,63
 270 260 270 260 271 259 c 1,64,65
 269 259 269 259 261 258 c 0,66,67
 235 256 235 256 226 256 c 0,68,69
 209 256 209 256 171 258 c 0,70,71
 150 259 150 259 148 259 c 2,72,-1
 148 260 l 2,73,74
 148 266 148 266 155.5 281.5 c 128,-1,75
 163 297 163 297 170 307 c 0,76,77
 187 334 187 334 207 362 c 128,-1,78
 227 390 227 390 251 423 c 0,79,80
 268 446 268 446 270 449 c 2,61,-1
EndSplineSet
Validated: 9
EndChar

StartChar: five
Encoding: 53 53 17
Width: 530
Flags: W
LayerCount: 2
Fore
SplineSet
76 598 m 256,0,1
 76 585 76 585 73.5 562 c 128,-1,2
 71 539 71 539 64 491 c 0,3,4
 57 441 57 441 54 414.5 c 128,-1,5
 51 388 51 388 51 371 c 0,6,7
 51 364 51 364 52.5 353.5 c 128,-1,8
 54 343 54 343 60.5 329.5 c 128,-1,9
 67 316 67 316 79.5 307 c 128,-1,10
 92 298 92 298 113 298 c 0,11,12
 140 298 140 298 158.5 304.5 c 128,-1,13
 177 311 177 311 196 323 c 0,14,15
 222 338 222 338 236 338 c 0,16,17
 255 338 255 338 277 324 c 128,-1,18
 299 310 299 310 318 286 c 128,-1,19
 337 262 337 262 349 231.5 c 128,-1,20
 361 201 361 201 361 168 c 0,21,22
 361 131 361 131 334 102 c 128,-1,23
 307 73 307 73 281 73 c 0,24,25
 269 73 269 73 253 77.5 c 128,-1,26
 237 82 237 82 220.5 92.5 c 128,-1,27
 204 103 204 103 193.5 120 c 128,-1,28
 183 137 183 137 183 160 c 0,29,30
 183 169 183 169 190 180 c 0,31,32
 195 188 195 188 197.5 195 c 128,-1,33
 200 202 200 202 200 215 c 0,34,35
 200 226 200 226 185 231.5 c 128,-1,36
 170 237 170 237 154 237 c 0,37,38
 131 237 131 237 107 224.5 c 128,-1,39
 83 212 83 212 72 201 c 0,40,41
 47 180 47 180 33.5 161 c 128,-1,42
 20 142 20 142 20 121 c 0,43,44
 20 101 20 101 41.5 77 c 128,-1,45
 63 53 63 53 97 33 c 0,46,47
 130 14 130 14 172.5 2.5 c 128,-1,48
 215 -9 215 -9 255 -9 c 0,49,50
 319 -9 319 -9 368 12.5 c 128,-1,51
 417 34 417 34 448.5 70.5 c 128,-1,52
 480 107 480 107 495 152.5 c 128,-1,53
 510 198 510 198 510 246 c 0,54,55
 510 293 510 293 490.5 331.5 c 128,-1,56
 471 370 471 370 439 396.5 c 128,-1,57
 407 423 407 423 368.5 437 c 128,-1,58
 330 451 330 451 292 451 c 0,59,60
 249 451 249 451 217.5 442 c 128,-1,61
 186 433 186 433 163 419 c 1,62,63
 166 441 166 441 171 467.5 c 128,-1,64
 176 494 176 494 179 504 c 0,65,66
 179 506 179 506 180 510 c 256,67,68
 181 514 181 514 181 516 c 0,69,70
 181 525 181 525 176 525 c 1,71,72
 180 525 180 525 195 521 c 0,73,74
 231 510 231 510 254 510 c 0,75,76
 274 510 274 510 292.5 514 c 128,-1,77
 311 518 311 518 333 524 c 0,78,79
 355 531 355 531 362 531 c 256,80,81
 369 531 369 531 373.5 526 c 128,-1,82
 378 521 378 521 383 511 c 0,83,84
 393 494 393 494 404.5 484 c 128,-1,85
 416 474 416 474 438 474 c 0,86,87
 463 474 463 474 471 487.5 c 128,-1,88
 479 501 479 501 479 518 c 0,89,90
 479 537 479 537 474 558.5 c 128,-1,91
 469 580 469 580 457 600 c 128,-1,92
 445 620 445 620 425.5 632.5 c 128,-1,93
 406 645 406 645 378 645 c 0,94,95
 351 645 351 645 309 638 c 0,96,97
 277 633 277 633 259 633 c 0,98,99
 254 633 254 633 240 634 c 0,100,101
 205 637 205 637 170 637 c 0,102,103
 152 637 152 637 137 636 c 128,-1,104
 122 635 122 635 108 631 c 128,-1,105
 94 627 94 627 85 619 c 128,-1,106
 76 611 76 611 76 598 c 256,0,1
EndSplineSet
Validated: 9
EndChar

StartChar: six
Encoding: 54 54 18
Width: 561
Flags: W
LayerCount: 2
Fore
SplineSet
319 436 m 0,0,1
 290 436 290 436 259 426.5 c 128,-1,2
 228 417 228 417 203 401 c 1,3,4
 205 431 205 431 215 463.5 c 128,-1,5
 225 496 225 496 241.5 524 c 128,-1,6
 258 552 258 552 278 569.5 c 128,-1,7
 298 587 298 587 318 587 c 0,8,9
 333 587 333 587 356 572 c 0,10,11
 373 562 373 562 386 556.5 c 128,-1,12
 399 551 399 551 419 551 c 0,13,14
 440 551 440 551 447.5 560.5 c 128,-1,15
 455 570 455 570 455 579 c 0,16,17
 455 589 455 589 441.5 601 c 128,-1,18
 428 613 428 613 405.5 623 c 128,-1,19
 383 633 383 633 359.5 639 c 128,-1,20
 336 645 336 645 317 645 c 0,21,22
 250 645 250 645 195 618.5 c 128,-1,23
 140 592 140 592 100.5 545 c 128,-1,24
 61 498 61 498 40.5 436.5 c 128,-1,25
 20 375 20 375 20 307 c 0,26,27
 20 240 20 240 40.5 181.5 c 128,-1,28
 61 123 61 123 97 79.5 c 128,-1,29
 133 36 133 36 180 12 c 128,-1,30
 227 -12 227 -12 280 -12 c 0,31,32
 334 -12 334 -12 381.5 5 c 128,-1,33
 429 22 429 22 465 55 c 128,-1,34
 501 88 501 88 521 135 c 128,-1,35
 541 182 541 182 541 239 c 0,36,37
 541 273 541 273 524.5 308.5 c 128,-1,38
 508 344 508 344 477.5 373 c 128,-1,39
 447 402 447 402 406.5 419 c 128,-1,40
 366 436 366 436 319 436 c 0,0,1
280 336 m 0,41,42
 297 336 297 336 317 319 c 128,-1,43
 337 302 337 302 355 274 c 128,-1,44
 373 246 373 246 384 215 c 128,-1,45
 395 184 395 184 395 157 c 0,46,47
 395 110 395 110 377.5 91 c 128,-1,48
 360 72 360 72 338 72 c 0,49,50
 311 72 311 72 286.5 89 c 128,-1,51
 262 106 262 106 244 133 c 128,-1,52
 226 160 226 160 216 191.5 c 128,-1,53
 206 223 206 223 206 251 c 0,54,55
 206 291 206 291 225 313.5 c 128,-1,56
 244 336 244 336 280 336 c 0,41,42
EndSplineSet
Validated: 9
EndChar

StartChar: seven
Encoding: 55 55 19
Width: 494
Flags: W
LayerCount: 2
Fore
SplineSet
344 105 m 256,0,1
 344 113 344 113 329 119 c 128,-1,2
 314 125 314 125 301 125 c 0,3,4
 287 125 287 125 281 122.5 c 128,-1,5
 275 120 275 120 273 118 c 0,6,7
 270 118 270 118 267.5 136 c 128,-1,8
 265 154 265 154 265 194 c 0,9,10
 265 243 265 243 281 292.5 c 128,-1,11
 297 342 297 342 321.5 386 c 128,-1,12
 346 430 346 430 372 466.5 c 128,-1,13
 398 503 398 503 430 543 c 0,14,15
 454 575 454 575 464 589 c 128,-1,16
 474 603 474 603 474 610 c 0,17,18
 474 626 474 626 459.5 635.5 c 128,-1,19
 445 645 445 645 409 645 c 0,20,21
 380 645 380 645 328 640 c 0,22,23
 292 637 292 637 275 637 c 0,24,25
 256 637 256 637 202 645 c 0,26,27
 141 653 141 653 116 653 c 0,28,29
 88 653 88 653 69 640 c 128,-1,30
 50 627 50 627 39.5 606.5 c 128,-1,31
 29 586 29 586 24.5 563.5 c 128,-1,32
 20 541 20 541 20 521 c 0,33,34
 20 504 20 504 29 489.5 c 128,-1,35
 38 475 38 475 63 475 c 0,36,37
 85 475 85 475 97.5 485 c 128,-1,38
 110 495 110 495 122 514 c 0,39,40
 130 525 130 525 134.5 530 c 128,-1,41
 139 535 139 535 146 535 c 256,42,43
 153 535 153 535 160 531 c 0,44,45
 169 526 169 526 184 523 c 128,-1,46
 199 520 199 520 234 520 c 0,47,48
 242 520 242 520 262.5 523 c 128,-1,49
 283 526 283 526 299 529 c 1,50,51
 298 523 298 523 285 512 c 0,52,53
 279 507 279 507 278 506 c 0,54,55
 246 470 246 470 224.5 436.5 c 128,-1,56
 203 403 203 403 176 353 c 0,57,58
 132 269 132 269 111 206.5 c 128,-1,59
 90 144 90 144 90 92 c 0,60,61
 90 79 90 79 94.5 59.5 c 128,-1,62
 99 40 99 40 108.5 20 c 128,-1,63
 118 0 118 0 133.5 -13.5 c 128,-1,64
 149 -27 149 -27 170 -27 c 256,65,66
 191 -27 191 -27 208.5 -15.5 c 128,-1,67
 226 -4 226 -4 248 18 c 0,68,69
 260 29 260 29 264 32 c 0,70,71
 276 42 276 42 300 60 c 0,72,73
 323 78 323 78 333.5 87.5 c 128,-1,74
 344 97 344 97 344 105 c 256,0,1
EndSplineSet
Validated: 9
EndChar

StartChar: eight
Encoding: 56 56 20
Width: 557
Flags: W
LayerCount: 2
Fore
SplineSet
314 653 m 0,0,1
 249 653 249 653 201 636.5 c 128,-1,2
 153 620 153 620 123.5 593 c 128,-1,3
 94 566 94 566 80 535.5 c 128,-1,4
 66 505 66 505 66 476 c 0,5,6
 66 448 66 448 78 431 c 128,-1,7
 90 414 90 414 112 397 c 0,8,9
 125 387 125 387 131.5 379.5 c 128,-1,10
 138 372 138 372 138 363 c 0,11,12
 138 353 138 353 126 346 c 0,13,14
 75 316 75 316 47.5 277 c 128,-1,15
 20 238 20 238 20 193 c 0,16,17
 20 154 20 154 40 117.5 c 128,-1,18
 60 81 60 81 96 52 c 128,-1,19
 132 23 132 23 179 6.5 c 128,-1,20
 226 -10 226 -10 278 -10 c 256,21,22
 330 -10 330 -10 377.5 6.5 c 128,-1,23
 425 23 425 23 461 51.5 c 128,-1,24
 497 80 497 80 517 117 c 128,-1,25
 537 154 537 154 537 193 c 0,26,27
 537 249 537 249 498.5 300 c 128,-1,28
 460 351 460 351 393 384 c 0,29,30
 382 390 382 390 378.5 393.5 c 128,-1,31
 375 397 375 397 375 403 c 0,32,33
 375 407 375 407 394 423 c 0,34,35
 422 446 422 446 440 468.5 c 128,-1,36
 458 491 458 491 458 520 c 0,37,38
 458 542 458 542 445.5 565.5 c 128,-1,39
 433 589 433 589 412.5 609 c 128,-1,40
 392 629 392 629 366 641 c 128,-1,41
 340 653 340 653 314 653 c 0,0,1
219 309 m 0,42,43
 226 309 226 309 250 295 c 128,-1,44
 274 281 274 281 300.5 258.5 c 128,-1,45
 327 236 327 236 346 209 c 128,-1,46
 365 182 365 182 365 155 c 0,47,48
 365 124 365 124 345.5 91.5 c 128,-1,49
 326 59 326 59 296 59 c 0,50,51
 278 59 278 59 257 71.5 c 128,-1,52
 236 84 236 84 217.5 106 c 128,-1,53
 199 128 199 128 187.5 155 c 128,-1,54
 176 182 176 182 176 210 c 0,55,56
 176 259 176 259 195 288 c 0,57,58
 202 298 202 298 209 303.5 c 128,-1,59
 216 309 216 309 219 309 c 0,42,43
252 586 m 0,60,61
 279 586 279 586 300.5 558.5 c 128,-1,62
 322 531 322 531 322 497 c 0,63,64
 322 471 322 471 312.5 453.5 c 128,-1,65
 303 436 303 436 296 429 c 1,66,67
 289 429 289 429 276 440 c 128,-1,68
 263 451 263 451 249 468 c 128,-1,69
 235 485 235 485 225.5 504 c 128,-1,70
 216 523 216 523 216 539 c 0,71,72
 216 561 216 561 227.5 573.5 c 128,-1,73
 239 586 239 586 252 586 c 0,60,61
EndSplineSet
Validated: 9
EndChar

StartChar: nine
Encoding: 57 57 21
Width: 542
Flags: W
LayerCount: 2
Fore
SplineSet
219 188 m 0,0,1
 251 188 251 188 284.5 200 c 128,-1,2
 318 212 318 212 348 231 c 1,3,4
 347 152 347 152 306.5 102 c 128,-1,5
 266 52 266 52 217 52 c 0,6,7
 201 52 201 52 182.5 57.5 c 128,-1,8
 164 63 164 63 137 72 c 0,9,10
 112 81 112 81 98.5 85 c 128,-1,11
 85 89 85 89 74 89 c 0,12,13
 56 89 56 89 47 79 c 128,-1,14
 38 69 38 69 38 61 c 0,15,16
 38 50 38 50 55 38.5 c 128,-1,17
 72 27 72 27 100 16.5 c 128,-1,18
 128 6 128 6 159.5 0 c 128,-1,19
 191 -6 191 -6 218 -6 c 0,20,21
 285 -6 285 -6 341.5 20 c 128,-1,22
 398 46 398 46 438.5 92.5 c 128,-1,23
 479 139 479 139 500.5 199.5 c 128,-1,24
 522 260 522 260 522 328 c 0,25,26
 522 395 522 395 502 453.5 c 128,-1,27
 482 512 482 512 446 555.5 c 128,-1,28
 410 599 410 599 362.5 623 c 128,-1,29
 315 647 315 647 262 647 c 256,30,31
 209 647 209 647 163.5 626.5 c 128,-1,32
 118 606 118 606 86 571.5 c 128,-1,33
 54 537 54 537 37 494 c 128,-1,34
 20 451 20 451 20 407 c 0,35,36
 20 372 20 372 33 333 c 128,-1,37
 46 294 46 294 71.5 261 c 128,-1,38
 97 228 97 228 134.5 208 c 128,-1,39
 172 188 172 188 219 188 c 0,0,1
292 300 m 0,40,41
 270 300 270 300 246 316 c 128,-1,42
 222 332 222 332 202.5 358 c 128,-1,43
 183 384 183 384 171 414 c 128,-1,44
 159 444 159 444 159 470 c 0,45,46
 159 518 159 518 181.5 542 c 128,-1,47
 204 566 204 566 224 566 c 0,48,49
 251 566 251 566 274.5 548.5 c 128,-1,50
 298 531 298 531 315 503 c 128,-1,51
 332 475 332 475 341.5 442.5 c 128,-1,52
 351 410 351 410 351 382 c 0,53,54
 351 343 351 343 335 321.5 c 128,-1,55
 319 300 319 300 292 300 c 0,40,41
EndSplineSet
Validated: 9
EndChar

StartChar: colon
Encoding: 58 58 22
Width: 216
Flags: W
LayerCount: 2
Fore
SplineSet
107 421 m 0,0,1
 70 421 70 421 45 394 c 128,-1,2
 20 367 20 367 20 334 c 0,3,4
 20 302 20 302 45 275.5 c 128,-1,5
 70 249 70 249 107 249 c 0,6,7
 145 249 145 249 170 275 c 128,-1,8
 195 301 195 301 195 334 c 256,9,10
 195 367 195 367 170 394 c 128,-1,11
 145 421 145 421 107 421 c 0,0,1
108 172 m 256,12,13
 70 172 70 172 45 145.5 c 128,-1,14
 20 119 20 119 20 86 c 256,15,16
 20 53 20 53 45 26.5 c 128,-1,17
 70 0 70 0 108 0 c 256,18,19
 146 0 146 0 171 26.5 c 128,-1,20
 196 53 196 53 196 86 c 256,21,22
 196 119 196 119 171 145.5 c 128,-1,23
 146 172 146 172 108 172 c 256,12,13
EndSplineSet
Validated: 9
EndChar

StartChar: semicolon
Encoding: 59 59 23
Width: 235
Flags: W
LayerCount: 2
Fore
SplineSet
112 421 m 256,0,1
 74 421 74 421 49 394 c 128,-1,2
 24 367 24 367 24 334 c 256,3,4
 24 301 24 301 49 274.5 c 128,-1,5
 74 248 74 248 112 248 c 256,6,7
 150 248 150 248 175 274.5 c 128,-1,8
 200 301 200 301 200 334 c 256,9,10
 200 367 200 367 175 394 c 128,-1,11
 150 421 150 421 112 421 c 256,0,1
108 176 m 0,12,13
 70 176 70 176 45 149 c 128,-1,14
 20 122 20 122 20 89 c 0,15,16
 20 59 20 59 39.5 33.5 c 128,-1,17
 59 8 59 8 91 1 c 1,18,-1
 91 -12 l 2,19,20
 91 -27 91 -27 85.5 -35 c 128,-1,21
 80 -43 80 -43 69 -53 c 0,22,23
 60 -60 60 -60 55.5 -66 c 128,-1,24
 51 -72 51 -72 51 -81 c 0,25,26
 51 -88 51 -88 67 -93.5 c 128,-1,27
 83 -99 83 -99 95 -99 c 0,28,29
 115 -99 115 -99 136 -84 c 128,-1,30
 157 -69 157 -69 175 -45 c 128,-1,31
 193 -21 193 -21 204 7.5 c 128,-1,32
 215 36 215 36 215 61 c 0,33,34
 215 77 215 77 207 96.5 c 128,-1,35
 199 116 199 116 185 134.5 c 128,-1,36
 171 153 171 153 151 164.5 c 128,-1,37
 131 176 131 176 108 176 c 0,12,13
EndSplineSet
Validated: 9
EndChar

StartChar: question
Encoding: 63 63 24
Width: 588
Flags: W
LayerCount: 2
Fore
SplineSet
198 174 m 0,0,1
 160 174 160 174 135 147 c 128,-1,2
 110 120 110 120 110 87 c 0,3,4
 110 53 110 53 135 26.5 c 128,-1,5
 160 0 160 0 198 0 c 0,6,7
 237 0 237 0 262 26.5 c 128,-1,8
 287 53 287 53 287 87 c 0,9,10
 287 120 287 120 262 147 c 128,-1,11
 237 174 237 174 198 174 c 0,0,1
204 238 m 256,12,13
 230 238 230 238 239 247 c 128,-1,14
 248 256 248 256 248 266 c 0,15,16
 248 268 248 268 248 274 c 0,17,18
 247 283 247 283 247 291 c 0,19,20
 247 313 247 313 271 330.5 c 128,-1,21
 295 348 295 348 349 376 c 0,22,23
 372 388 372 388 378 391 c 0,24,25
 418 413 418 413 450.5 433.5 c 128,-1,26
 483 454 483 454 509.5 477.5 c 128,-1,27
 536 501 536 501 552 527 c 128,-1,28
 568 553 568 553 568 580 c 0,29,30
 568 624 568 624 538 662 c 128,-1,31
 508 700 508 700 459 727.5 c 128,-1,32
 410 755 410 755 354.5 769.5 c 128,-1,33
 299 784 299 784 251 784 c 0,34,35
 213 784 213 784 171.5 777 c 128,-1,36
 130 770 130 770 95.5 758 c 128,-1,37
 61 746 61 746 40.5 730.5 c 128,-1,38
 20 715 20 715 20 699 c 0,39,40
 20 677 20 677 25 649.5 c 128,-1,41
 30 622 30 622 40.5 596.5 c 128,-1,42
 51 571 51 571 67 554.5 c 128,-1,43
 83 538 83 538 105 538 c 0,44,45
 128 538 128 538 138.5 550.5 c 128,-1,46
 149 563 149 563 149 580 c 0,47,48
 149 586 149 586 147 597 c 0,49,50
 145 606 145 606 145 609 c 0,51,52
 145 625 145 625 157.5 639.5 c 128,-1,53
 170 654 170 654 191 665 c 128,-1,54
 212 676 212 676 237.5 682.5 c 128,-1,55
 263 689 263 689 289 689 c 0,56,57
 310 689 310 689 329.5 685.5 c 128,-1,58
 349 682 349 682 365.5 672.5 c 128,-1,59
 382 663 382 663 392.5 646.5 c 128,-1,60
 403 630 403 630 403 605 c 0,61,62
 403 587 403 587 386.5 573 c 128,-1,63
 370 559 370 559 333 538 c 0,64,65
 307 523 307 523 296 516 c 0,66,67
 278 505 278 505 242 487 c 0,68,69
 210 471 210 471 190 459.5 c 128,-1,70
 170 448 170 448 152.5 431.5 c 128,-1,71
 135 415 135 415 125 391.5 c 128,-1,72
 115 368 115 368 115 337 c 0,73,74
 115 321 115 321 119 304.5 c 128,-1,75
 123 288 123 288 132.5 272.5 c 128,-1,76
 142 257 142 257 160 247.5 c 128,-1,77
 178 238 178 238 204 238 c 256,12,13
EndSplineSet
Validated: 9
EndChar

StartChar: A
Encoding: 65 65 25
Width: 861
Flags: W
LayerCount: 2
Fore
SplineSet
192 -142 m 256,0,1
 202 -142 202 -142 236 -145 c 0,2,3
 283 -150 283 -150 300 -150 c 0,4,5
 326 -150 326 -150 344.5 -142 c 128,-1,6
 363 -134 363 -134 363 -111 c 0,7,8
 363 -76 363 -76 353 -63.5 c 128,-1,9
 343 -51 343 -51 323 -42 c 0,10,11
 299 -33 299 -33 286.5 -17 c 128,-1,12
 274 -1 274 -1 270 43 c 2,13,-1
 269 52 l 2,14,15
 264 109 264 109 261.5 149 c 128,-1,16
 259 189 259 189 259 224 c 0,17,18
 259 275 259 275 262 327 c 1,19,20
 289 338 289 338 326.5 344.5 c 128,-1,21
 364 351 364 351 401 351 c 0,22,23
 440 351 440 351 474 348 c 128,-1,24
 508 345 508 345 544 337 c 1,25,26
 556 254 556 254 573 97 c 2,27,-1
 575 77 l 2,28,29
 575 71 575 71 576 64 c 0,30,31
 576 54 576 54 576 53 c 0,32,33
 576 7 576 7 558 -18 c 128,-1,34
 540 -43 540 -43 508 -65 c 0,35,36
 488 -80 488 -80 478.5 -90.5 c 128,-1,37
 469 -101 469 -101 469 -116 c 0,38,39
 469 -127 469 -127 476.5 -134 c 128,-1,40
 484 -141 484 -141 495 -144.5 c 128,-1,41
 506 -148 506 -148 517 -149 c 128,-1,42
 528 -150 528 -150 538 -150 c 0,43,44
 551 -150 551 -150 569 -148.5 c 128,-1,45
 587 -147 587 -147 616 -144 c 0,46,47
 658 -139 658 -139 667 -139 c 256,48,49
 676 -139 676 -139 711 -144 c 0,50,51
 734 -147 734 -147 750 -148.5 c 128,-1,52
 766 -150 766 -150 777 -150 c 0,53,54
 802 -150 802 -150 821.5 -142 c 128,-1,55
 841 -134 841 -134 841 -114 c 0,56,57
 841 -83 841 -83 833 -69 c 128,-1,58
 825 -55 825 -55 807 -41 c 0,59,60
 786 -25 786 -25 773.5 -4.5 c 128,-1,61
 761 16 761 16 757 63 c 0,62,63
 738 266 738 266 717 405 c 0,64,65
 702 498 702 498 683 587 c 128,-1,66
 664 676 664 676 640 756 c 0,67,68
 637 764 637 764 635.5 775.5 c 128,-1,69
 634 787 634 787 634 796 c 0,70,71
 634 808 634 808 641.5 812.5 c 128,-1,72
 649 817 649 817 665 821 c 0,73,74
 687 826 687 826 698.5 835.5 c 128,-1,75
 710 845 710 845 710 871 c 0,76,77
 710 884 710 884 694 897.5 c 128,-1,78
 678 911 678 911 658 911 c 0,79,80
 640 911 640 911 593 901 c 0,81,82
 554 893 554 893 541 893 c 0,83,84
 518 893 518 893 466 906 c 0,85,86
 404 922 404 922 372 922 c 0,87,88
 332 922 332 922 285 916 c 128,-1,89
 238 910 238 910 196 899 c 128,-1,90
 154 888 154 888 127.5 871.5 c 128,-1,91
 101 855 101 855 101 834 c 0,92,93
 101 820 101 820 110 809.5 c 128,-1,94
 119 799 119 799 148 799 c 0,95,96
 171 799 171 799 206 812 c 0,97,98
 227 820 227 820 236 820 c 1,99,100
 207 731 207 731 182.5 625.5 c 128,-1,101
 158 520 158 520 140.5 410.5 c 128,-1,102
 123 301 123 301 114 202 c 128,-1,103
 105 103 105 103 105 25 c 0,104,105
 105 -8 105 -8 94 -23 c 128,-1,106
 83 -38 83 -38 61 -50 c 0,107,108
 40 -61 40 -61 30 -74 c 128,-1,109
 20 -87 20 -87 20 -115 c 0,110,111
 20 -134 20 -134 41.5 -142 c 128,-1,112
 63 -150 63 -150 86 -150 c 0,113,114
 104 -150 104 -150 149 -145 c 0,115,116
 182 -142 182 -142 192 -142 c 256,0,1
449 792 m 0,117,118
 453 788 453 788 459.5 772.5 c 128,-1,119
 466 757 466 757 473 729 c 0,120,121
 505 597 505 597 529 442 c 1,122,123
 458 453 458 453 408 453 c 0,124,125
 350 453 350 453 269 432 c 1,126,127
 278 535 278 535 297 631 c 128,-1,128
 316 727 316 727 342 805 c 1,129,130
 371 804 371 804 424 796 c 0,131,132
 436 794 436 794 449 792 c 0,117,118
EndSplineSet
Validated: 9
EndChar

StartChar: B
Encoding: 66 66 26
Width: 747
Flags: W
LayerCount: 2
Fore
SplineSet
128 49 m 2,0,1
 128 12 128 12 118 -4 c 128,-1,2
 108 -20 108 -20 88 -33 c 256,3,4
 68 -46 68 -46 58 -62 c 128,-1,5
 48 -78 48 -78 48 -116 c 0,6,7
 48 -135 48 -135 69.5 -142.5 c 128,-1,8
 91 -150 91 -150 114 -150 c 0,9,10
 127 -150 127 -150 142.5 -147.5 c 128,-1,11
 158 -145 158 -145 178 -141 c 0,12,13
 206 -136 206 -136 214 -136 c 0,14,15
 228 -136 228 -136 255 -145 c 0,16,17
 281 -154 281 -154 304 -158.5 c 128,-1,18
 327 -163 327 -163 363 -163 c 0,19,20
 432 -163 432 -163 497 -138 c 128,-1,21
 562 -113 562 -113 614 -64.5 c 128,-1,22
 666 -16 666 -16 696.5 54.5 c 128,-1,23
 727 125 727 125 727 213 c 0,24,25
 727 254 727 254 718 295 c 128,-1,26
 709 336 709 336 690.5 372 c 128,-1,27
 672 408 672 408 641.5 433 c 128,-1,28
 611 458 611 458 569 465 c 1,29,30
 611 511 611 511 632.5 557.5 c 128,-1,31
 654 604 654 604 654 634 c 0,32,33
 654 784 654 784 562.5 859 c 128,-1,34
 471 934 471 934 298 934 c 0,35,36
 262 934 262 934 215.5 929 c 128,-1,37
 169 924 169 924 124 913 c 128,-1,38
 79 902 79 902 49.5 882 c 128,-1,39
 20 862 20 862 20 834 c 0,40,41
 20 813 20 813 39 803.5 c 128,-1,42
 58 794 58 794 78 794 c 0,43,44
 91 795 91 795 109 802 c 0,45,46
 116 805 116 805 118 805 c 0,47,48
 121 801 121 801 124.5 780.5 c 128,-1,49
 128 760 128 760 128 715 c 2,50,-1
 128 49 l 2,0,1
302 87 m 2,51,-1
 302 353 l 1,52,53
 319 376 319 376 388 376 c 0,54,55
 416 376 416 376 439 372 c 0,56,57
 464 369 464 369 486.5 348.5 c 128,-1,58
 509 328 509 328 525.5 295.5 c 128,-1,59
 542 263 542 263 551.5 222.5 c 128,-1,60
 561 182 561 182 561 140 c 0,61,62
 561 55 561 55 535.5 26 c 128,-1,63
 510 -3 510 -3 456 -3 c 0,64,65
 431 -3 431 -3 373 8 c 0,66,67
 314 20 314 20 285 21 c 1,68,69
 285 21 285 21 285 22 c 0,70,71
 286 23 286 23 286 26 c 0,72,73
 286 35 286 35 294 56 c 256,74,75
 302 77 302 77 302 87 c 2,51,-1
303 705 m 2,76,77
 303 711 303 711 300 725 c 0,78,79
 296 747 296 747 296 760 c 0,80,81
 296 788 296 788 303.5 802.5 c 128,-1,82
 311 817 311 817 329 817 c 0,83,84
 398 817 398 817 431.5 769.5 c 128,-1,85
 465 722 465 722 465 637 c 0,86,87
 465 587 465 587 453 552.5 c 128,-1,88
 441 518 441 518 421 497.5 c 128,-1,89
 401 477 401 477 376.5 468.5 c 128,-1,90
 352 460 352 460 325 460 c 2,91,-1
 303 460 l 1,92,-1
 303 705 l 2,76,77
EndSplineSet
Validated: 9
EndChar

StartChar: C
Encoding: 67 67 27
Width: 663
Flags: W
LayerCount: 2
Fore
SplineSet
643 120 m 0,0,1
 643 133 643 133 630 148.5 c 128,-1,2
 617 164 617 164 593 164 c 0,3,4
 581 164 581 164 568 150.5 c 128,-1,5
 555 137 555 137 532 108 c 0,6,7
 496 63 496 63 467.5 37.5 c 128,-1,8
 439 12 439 12 405 12 c 0,9,10
 363 12 363 12 321.5 52.5 c 128,-1,11
 280 93 280 93 246 162.5 c 128,-1,12
 212 232 212 232 192.5 321 c 128,-1,13
 173 410 173 410 173 502 c 0,14,15
 173 577 173 577 190.5 632 c 128,-1,16
 208 687 208 687 235.5 720.5 c 128,-1,17
 263 754 263 754 293 769.5 c 128,-1,18
 323 785 323 785 348 785 c 0,19,20
 380 785 380 785 401.5 775 c 128,-1,21
 423 765 423 765 436 748.5 c 128,-1,22
 449 732 449 732 456 714.5 c 128,-1,23
 463 697 463 697 471 670 c 0,24,25
 481 637 481 637 490 622 c 128,-1,26
 499 607 499 607 517 607 c 0,27,28
 539 607 539 607 552.5 630 c 128,-1,29
 566 653 566 653 573 685.5 c 128,-1,30
 580 718 580 718 582.5 749 c 128,-1,31
 585 780 585 780 585 799 c 0,32,33
 585 822 585 822 582.5 843 c 128,-1,34
 580 864 580 864 572 883.5 c 128,-1,35
 564 903 564 903 547 915.5 c 128,-1,36
 530 928 530 928 502 928 c 0,37,38
 480 928 480 928 446 932 c 0,39,40
 420 935 420 935 404.5 936.5 c 128,-1,41
 389 938 389 938 364 938 c 0,42,43
 305 938 305 938 243.5 894 c 128,-1,44
 182 850 182 850 131.5 772.5 c 128,-1,45
 81 695 81 695 50.5 595 c 128,-1,46
 20 495 20 495 20 388 c 0,47,48
 20 270 20 270 45 168 c 128,-1,49
 70 66 70 66 116.5 -8.5 c 128,-1,50
 163 -83 163 -83 226.5 -124 c 128,-1,51
 290 -165 290 -165 364 -165 c 0,52,53
 409 -165 409 -165 458 -135 c 128,-1,54
 507 -105 507 -105 549.5 -58.5 c 128,-1,55
 592 -12 592 -12 617.5 37 c 128,-1,56
 643 86 643 86 643 120 c 0,0,1
EndSplineSet
Validated: 9
EndChar

StartChar: D
Encoding: 68 68 28
Width: 769
Flags: W
LayerCount: 2
Fore
SplineSet
126 49 m 2,0,1
 126 10 126 10 110.5 -14 c 128,-1,2
 95 -38 95 -38 67 -63 c 0,3,4
 49 -80 49 -80 40.5 -90.5 c 128,-1,5
 32 -101 32 -101 32 -115 c 0,6,7
 32 -132 32 -132 50.5 -141 c 128,-1,8
 69 -150 69 -150 90 -150 c 0,9,10
 103 -150 103 -150 122 -147.5 c 128,-1,11
 141 -145 141 -145 164 -142 c 0,12,13
 205 -136 205 -136 213 -136 c 0,14,15
 226 -136 226 -136 253 -145 c 0,16,17
 278 -154 278 -154 301.5 -158.5 c 128,-1,18
 325 -163 325 -163 361 -163 c 0,19,20
 444 -163 444 -163 516 -115.5 c 128,-1,21
 588 -68 588 -68 640.5 11.5 c 128,-1,22
 693 91 693 91 721 186 c 128,-1,23
 749 281 749 281 749 371 c 0,24,25
 749 481 749 481 729 578 c 128,-1,26
 709 675 709 675 659 756 c 128,-1,27
 609 837 609 837 519 885.5 c 128,-1,28
 429 934 429 934 296 934 c 0,29,30
 261 934 261 934 214 928 c 128,-1,31
 167 922 167 922 123 909.5 c 128,-1,32
 79 897 79 897 49.5 876 c 128,-1,33
 20 855 20 855 20 827 c 0,34,35
 20 806 20 806 33 799 c 128,-1,36
 46 792 46 792 66 792 c 0,37,38
 82 792 82 792 97 799 c 0,39,40
 100 801 100 801 101 801 c 0,41,42
 109 801 109 801 117.5 781 c 128,-1,43
 126 761 126 761 126 715 c 2,44,-1
 126 49 l 2,0,1
297 705 m 2,45,46
 297 712 297 712 296 726 c 0,47,48
 294 750 294 750 294 760 c 0,49,50
 294 788 294 788 301.5 802.5 c 128,-1,51
 309 817 309 817 327 817 c 0,52,53
 380 817 380 817 425 781 c 128,-1,54
 470 745 470 745 502.5 682 c 128,-1,55
 535 619 535 619 552.5 539.5 c 128,-1,56
 570 460 570 460 570 376 c 0,57,58
 570 321 570 321 565 258 c 128,-1,59
 560 195 560 195 547 135 c 128,-1,60
 534 75 534 75 511 36 c 128,-1,61
 488 -3 488 -3 454 -3 c 0,62,63
 429 -3 429 -3 373 8 c 0,64,65
 315 20 315 20 287 21 c 1,66,-1
 287 26 l 2,67,68
 287 29 287 29 289 35 c 0,69,70
 293 43 293 43 295 53 c 128,-1,71
 297 63 297 63 297 81 c 2,72,-1
 297 705 l 2,45,46
EndSplineSet
Validated: 9
EndChar

StartChar: E
Encoding: 69 69 29
Width: 722
Flags: W
LayerCount: 2
Fore
SplineSet
577 613 m 0,0,1
 600 613 600 613 615.5 628 c 128,-1,2
 631 643 631 643 640.5 668.5 c 128,-1,3
 650 694 650 694 654 728 c 128,-1,4
 658 762 658 762 658 802 c 0,5,6
 658 827 658 827 654 848.5 c 128,-1,7
 650 870 650 870 637.5 888 c 128,-1,8
 625 906 625 906 600 917 c 128,-1,9
 575 928 575 928 536 928 c 0,10,11
 477 928 477 928 365 912 c 0,12,13
 260 896 260 896 205 896 c 0,14,15
 185 896 185 896 132 906 c 0,16,17
 85 914 85 914 68 914 c 0,18,19
 44 914 44 914 32 903 c 128,-1,20
 20 892 20 892 20 876 c 0,21,22
 20 843 20 843 32.5 828.5 c 128,-1,23
 45 814 45 814 69 801 c 0,24,25
 96 787 96 787 109.5 770.5 c 128,-1,26
 123 754 123 754 123 715 c 2,27,-1
 123 49 l 2,28,29
 123 12 123 12 113 -4 c 128,-1,30
 103 -20 103 -20 83 -33 c 256,31,32
 63 -46 63 -46 53 -62 c 128,-1,33
 43 -78 43 -78 43 -116 c 0,34,35
 43 -135 43 -135 64.5 -142.5 c 128,-1,36
 86 -150 86 -150 109 -150 c 0,37,38
 123 -150 123 -150 138 -146.5 c 128,-1,39
 153 -143 153 -143 177 -137 c 0,40,41
 202 -129 202 -129 209 -129 c 0,42,43
 245 -129 245 -129 283.5 -133.5 c 128,-1,44
 322 -138 322 -138 379 -146 c 0,45,46
 480 -161 480 -161 522 -161 c 0,47,48
 526 -161 526 -161 532 -160.5 c 128,-1,49
 538 -160 538 -160 543 -158 c 0,50,51
 630 -154 630 -154 666 -98.5 c 128,-1,52
 702 -43 702 -43 702 95 c 0,53,54
 702 116 702 116 700.5 135.5 c 128,-1,55
 699 155 699 155 693.5 173 c 128,-1,56
 688 191 688 191 677.5 203 c 128,-1,57
 667 215 667 215 649 215 c 0,58,59
 624 215 624 215 612 195 c 128,-1,60
 600 175 600 175 588 132 c 0,61,62
 581 106 581 106 574.5 87 c 128,-1,63
 568 68 568 68 556 51 c 128,-1,64
 544 34 544 34 525 24 c 128,-1,65
 506 14 506 14 479 14 c 0,66,67
 463 14 463 14 426 22 c 0,68,69
 377 33 377 33 351 33 c 0,70,71
 330 33 330 33 290 25 c 1,72,73
 291 28 291 28 291 29 c 0,74,75
 297 60 297 60 297 82 c 2,76,-1
 297 376 l 1,77,78
 338 402 338 402 367 402 c 0,79,80
 389 402 389 402 404.5 393 c 128,-1,81
 420 384 420 384 429 370 c 128,-1,82
 438 356 438 356 442.5 341 c 128,-1,83
 447 326 447 326 452 302 c 0,84,85
 458 274 458 274 463.5 261 c 128,-1,86
 469 248 469 248 482 248 c 0,87,88
 525 248 525 248 545 287.5 c 128,-1,89
 565 327 565 327 565 414 c 0,90,91
 565 441 565 441 561 471 c 128,-1,92
 557 501 557 501 547.5 528 c 128,-1,93
 538 555 538 555 521.5 572 c 128,-1,94
 505 589 505 589 482 589 c 0,95,96
 463 589 463 589 455.5 577 c 128,-1,97
 448 565 448 565 444 542 c 0,98,99
 440 523 440 523 435 513.5 c 128,-1,100
 430 504 430 504 417 504 c 0,101,102
 353 504 353 504 297 497 c 1,103,-1
 297 705 l 2,104,105
 297 744 297 744 304 768 c 128,-1,106
 311 792 311 792 318 799 c 1,107,-1
 304 798 l 2,108,109
 337 801 337 801 362.5 803 c 128,-1,110
 388 805 388 805 402 805 c 0,111,112
 443 805 443 805 469 793 c 128,-1,113
 495 781 495 781 509 762.5 c 128,-1,114
 523 744 523 744 529 724 c 128,-1,115
 535 704 535 704 540 674 c 0,116,117
 546 642 546 642 553 627.5 c 128,-1,118
 560 613 560 613 577 613 c 0,0,1
EndSplineSet
Validated: 9
EndChar

StartChar: F
Encoding: 70 70 30
Width: 678
Flags: W
LayerCount: 2
Fore
SplineSet
576 613 m 0,0,1
 599 613 599 613 615 628 c 128,-1,2
 631 643 631 643 640.5 669 c 128,-1,3
 650 695 650 695 654 729 c 128,-1,4
 658 763 658 763 658 802 c 0,5,6
 658 827 658 827 654 848.5 c 128,-1,7
 650 870 650 870 637 888 c 128,-1,8
 624 906 624 906 599.5 917 c 128,-1,9
 575 928 575 928 536 928 c 0,10,11
 476 928 476 928 365 912 c 0,12,13
 259 896 259 896 205 896 c 0,14,15
 185 896 185 896 133 905 c 0,16,17
 85 914 85 914 67 914 c 0,18,19
 44 914 44 914 32 902.5 c 128,-1,20
 20 891 20 891 20 876 c 0,21,22
 20 843 20 843 32.5 828.5 c 128,-1,23
 45 814 45 814 69 801 c 0,24,25
 95 787 95 787 108.5 770.5 c 128,-1,26
 122 754 122 754 122 715 c 2,27,-1
 122 49 l 2,28,29
 122 12 122 12 112 -4 c 128,-1,30
 102 -20 102 -20 83 -33 c 0,31,32
 63 -45 63 -45 53 -61 c 128,-1,33
 43 -77 43 -77 43 -115 c 0,34,35
 43 -134 43 -134 64.5 -142 c 128,-1,36
 86 -150 86 -150 109 -150 c 0,37,38
 127 -150 127 -150 171 -145 c 0,39,40
 204 -142 204 -142 214 -142 c 0,41,42
 222 -142 222 -142 250.5 -143.5 c 128,-1,43
 279 -145 279 -145 289 -146 c 0,44,45
 375 -150 375 -150 384 -150 c 0,46,47
 410 -150 410 -150 432.5 -138.5 c 128,-1,48
 455 -127 455 -127 455 -105 c 0,49,50
 455 -81 455 -81 440 -70.5 c 128,-1,51
 425 -60 425 -60 392 -51 c 0,52,53
 370 -45 370 -45 355 -38.5 c 128,-1,54
 340 -32 340 -32 327 -21 c 128,-1,55
 314 -10 314 -10 305.5 10 c 128,-1,56
 297 30 297 30 297 59 c 2,57,-1
 297 376 l 1,58,59
 336 402 336 402 367 402 c 0,60,61
 390 402 390 402 405 393.5 c 128,-1,62
 420 385 420 385 429 370.5 c 128,-1,63
 438 356 438 356 442.5 341 c 128,-1,64
 447 326 447 326 452 303 c 0,65,66
 458 275 458 275 463.5 262 c 128,-1,67
 469 249 469 249 482 249 c 0,68,69
 526 249 526 249 545 288 c 128,-1,70
 564 327 564 327 564 414 c 0,71,72
 564 442 564 442 560 471.5 c 128,-1,73
 556 501 556 501 547 528 c 128,-1,74
 538 555 538 555 521.5 572 c 128,-1,75
 505 589 505 589 482 589 c 0,76,77
 463 589 463 589 455.5 577 c 128,-1,78
 448 565 448 565 443 542 c 0,79,80
 439 522 439 522 434 513 c 128,-1,81
 429 504 429 504 417 504 c 0,82,83
 353 504 353 504 297 497 c 1,84,-1
 297 705 l 2,85,86
 297 744 297 744 303.5 768 c 128,-1,87
 310 792 310 792 317 799 c 1,88,-1
 304 798 l 2,89,90
 338 802 338 802 363 803.5 c 128,-1,91
 388 805 388 805 402 805 c 0,92,93
 442 805 442 805 468 793.5 c 128,-1,94
 494 782 494 782 508 763 c 128,-1,95
 522 744 522 744 528 724 c 128,-1,96
 534 704 534 704 539 675 c 0,97,98
 545 642 545 642 552 627.5 c 128,-1,99
 559 613 559 613 576 613 c 0,0,1
EndSplineSet
Validated: 9
EndChar

StartChar: G
Encoding: 71 71 31
Width: 708
Flags: W
LayerCount: 2
Fore
SplineSet
651 360 m 2,0,1
 651 381 651 381 656 393.5 c 128,-1,2
 661 406 661 406 671 419 c 0,3,4
 680 430 680 430 684 439.5 c 128,-1,5
 688 449 688 449 688 465 c 0,6,7
 688 478 688 478 677 493.5 c 128,-1,8
 666 509 666 509 637 509 c 0,9,10
 613 509 613 509 568 500 c 0,11,12
 533 493 533 493 519 493 c 0,13,14
 500 493 500 493 461 502 c 0,15,16
 413 514 413 514 386 514 c 0,17,18
 374 514 374 514 360.5 512 c 128,-1,19
 347 510 347 510 333.5 503.5 c 128,-1,20
 320 497 320 497 311.5 485 c 128,-1,21
 303 473 303 473 303 455 c 0,22,23
 303 427 303 427 319 418 c 128,-1,24
 335 409 335 409 370 405 c 0,25,26
 394 402 394 402 410 398 c 128,-1,27
 426 394 426 394 440.5 383 c 128,-1,28
 455 372 455 372 463.5 350.5 c 128,-1,29
 472 329 472 329 472 294 c 2,30,-1
 472 101 l 2,31,32
 472 53 472 53 457.5 35.5 c 128,-1,33
 443 18 443 18 414 18 c 0,34,35
 372 18 372 18 330.5 58.5 c 128,-1,36
 289 99 289 99 255.5 169 c 128,-1,37
 222 239 222 239 202.5 327.5 c 128,-1,38
 183 416 183 416 183 508 c 0,39,40
 183 582 183 582 200.5 637.5 c 128,-1,41
 218 693 218 693 245 726.5 c 128,-1,42
 272 760 272 760 302 775.5 c 128,-1,43
 332 791 332 791 357 791 c 0,44,45
 394 791 394 791 418.5 778.5 c 128,-1,46
 443 766 443 766 457.5 746.5 c 128,-1,47
 472 727 472 727 479 706.5 c 128,-1,48
 486 686 486 686 493 655 c 0,49,50
 501 626 501 626 507 612.5 c 128,-1,51
 513 599 513 599 525 599 c 0,52,53
 548 599 548 599 564 622 c 128,-1,54
 580 645 580 645 590 678.5 c 128,-1,55
 600 712 600 712 604 742.5 c 128,-1,56
 608 773 608 773 608 789 c 0,57,58
 608 809 608 809 603 833.5 c 128,-1,59
 598 858 598 858 587.5 881 c 128,-1,60
 577 904 577 904 558 919 c 128,-1,61
 539 934 539 934 512 934 c 0,62,63
 492 934 492 934 459 940 c 0,64,65
 435 945 435 945 417 947 c 128,-1,66
 399 949 399 949 374 949 c 0,67,68
 315 949 315 949 252 903.5 c 128,-1,69
 189 858 189 858 136 778 c 128,-1,70
 83 698 83 698 51.5 596.5 c 128,-1,71
 20 495 20 495 20 388 c 0,72,73
 20 271 20 271 48.5 170 c 128,-1,74
 77 69 77 69 126.5 -5 c 128,-1,75
 176 -79 176 -79 240 -119.5 c 128,-1,76
 304 -160 304 -160 373 -160 c 0,77,78
 416 -160 416 -160 464.5 -130 c 128,-1,79
 513 -100 513 -100 556 -52.5 c 128,-1,80
 599 -5 599 -5 625 45.5 c 128,-1,81
 651 96 651 96 651 133 c 2,82,-1
 651 360 l 2,0,1
EndSplineSet
Validated: 9
EndChar

StartChar: H
Encoding: 72 72 32
Width: 832
Flags: W
LayerCount: 2
Fore
SplineSet
640 -142 m 0,0,1
 650 -142 650 -142 685 -145 c 0,2,3
 731 -150 731 -150 749 -150 c 0,4,5
 774 -150 774 -150 793 -142 c 128,-1,6
 812 -134 812 -134 812 -111 c 0,7,8
 812 -82 812 -82 802.5 -69.5 c 128,-1,9
 793 -57 793 -57 774 -45 c 0,10,11
 749 -30 749 -30 736 -10 c 128,-1,12
 723 10 723 10 723 59 c 2,13,-1
 723 705 l 2,14,15
 723 749 723 749 735.5 771.5 c 128,-1,16
 748 794 748 794 772 814 c 0,17,18
 788 828 788 828 796 840 c 128,-1,19
 804 852 804 852 804 872 c 0,20,21
 804 886 804 886 788.5 900 c 128,-1,22
 773 914 773 914 753 914 c 0,23,24
 734 914 734 914 687 904 c 0,25,26
 649 896 649 896 636 896 c 0,27,28
 615 896 615 896 561 905 c 0,29,30
 511 914 511 914 494 914 c 0,31,32
 470 914 470 914 458.5 902.5 c 128,-1,33
 447 891 447 891 447 875 c 0,34,35
 447 842 447 842 459 828 c 128,-1,36
 471 814 471 814 496 801 c 0,37,38
 522 788 522 788 535.5 771 c 128,-1,39
 549 754 549 754 549 715 c 2,40,-1
 549 459 l 1,41,42
 500 466 500 466 425 466 c 0,43,44
 354 466 354 466 297 456 c 1,45,-1
 297 705 l 2,46,47
 297 749 297 749 309.5 771.5 c 128,-1,48
 322 794 322 794 346 814 c 0,49,50
 362 828 362 828 370 840 c 128,-1,51
 378 852 378 852 378 872 c 0,52,53
 378 887 378 887 362.5 900.5 c 128,-1,54
 347 914 347 914 326 914 c 0,55,56
 308 914 308 914 261 904 c 0,57,58
 222 896 222 896 209 896 c 0,59,60
 189 896 189 896 135 905 c 0,61,62
 86 914 86 914 68 914 c 0,63,64
 44 914 44 914 32 902.5 c 128,-1,65
 20 891 20 891 20 875 c 0,66,67
 20 842 20 842 32 828 c 128,-1,68
 44 814 44 814 69 801 c 0,69,70
 96 788 96 788 109.5 771 c 128,-1,71
 123 754 123 754 123 715 c 2,72,-1
 123 49 l 2,73,74
 123 12 123 12 113 -4 c 128,-1,75
 103 -20 103 -20 83 -33 c 0,76,77
 63 -45 63 -45 53 -61 c 128,-1,78
 43 -77 43 -77 43 -115 c 0,79,80
 43 -134 43 -134 64.5 -142 c 128,-1,81
 86 -150 86 -150 109 -150 c 0,82,83
 121 -150 121 -150 134.5 -149 c 128,-1,84
 148 -148 148 -148 172 -145 c 0,85,86
 204 -142 204 -142 214 -142 c 256,87,88
 224 -142 224 -142 259 -146 c 0,89,90
 304 -150 304 -150 322 -150 c 0,91,92
 348 -150 348 -150 366.5 -142 c 128,-1,93
 385 -134 385 -134 385 -111 c 0,94,95
 385 -82 385 -82 375.5 -69.5 c 128,-1,96
 366 -57 366 -57 347 -45 c 0,97,98
 323 -30 323 -30 310 -10 c 128,-1,99
 297 10 297 10 297 59 c 2,100,-1
 297 337 l 1,101,102
 374 353 374 353 434 353 c 0,103,104
 493 353 493 353 549 343 c 1,105,-1
 549 49 l 2,106,107
 549 12 549 12 539 -4 c 128,-1,108
 529 -20 529 -20 509 -33 c 0,109,110
 489 -45 489 -45 479 -61 c 128,-1,111
 469 -77 469 -77 469 -115 c 0,112,113
 469 -134 469 -134 490.5 -142 c 128,-1,114
 512 -150 512 -150 535 -150 c 0,115,116
 553 -150 553 -150 599 -145 c 0,117,118
 632 -142 632 -142 640 -142 c 0,0,1
EndSplineSet
Validated: 9
EndChar

StartChar: I
Encoding: 73 73 33
Width: 405
Flags: W
LayerCount: 2
Fore
SplineSet
214 -142 m 256,0,1
 224 -142 224 -142 258 -145 c 0,2,3
 305 -150 305 -150 322 -150 c 0,4,5
 348 -150 348 -150 366.5 -142 c 128,-1,6
 385 -134 385 -134 385 -111 c 0,7,8
 385 -82 385 -82 375.5 -69.5 c 128,-1,9
 366 -57 366 -57 347 -45 c 0,10,11
 323 -30 323 -30 310 -10 c 128,-1,12
 297 10 297 10 297 59 c 2,13,-1
 297 705 l 2,14,15
 297 749 297 749 309.5 771.5 c 128,-1,16
 322 794 322 794 345 814 c 0,17,18
 361 828 361 828 369 840 c 128,-1,19
 377 852 377 852 377 872 c 0,20,21
 377 887 377 887 362 900.5 c 128,-1,22
 347 914 347 914 326 914 c 0,23,24
 314 914 314 914 298 911.5 c 128,-1,25
 282 909 282 909 260 904 c 0,26,27
 222 896 222 896 209 896 c 0,28,29
 189 896 189 896 135 905 c 0,30,31
 85 914 85 914 67 914 c 0,32,33
 44 914 44 914 32 902.5 c 128,-1,34
 20 891 20 891 20 875 c 0,35,36
 20 842 20 842 32 828 c 128,-1,37
 44 814 44 814 69 801 c 0,38,39
 95 788 95 788 108.5 771 c 128,-1,40
 122 754 122 754 122 715 c 2,41,-1
 122 49 l 2,42,43
 122 12 122 12 112 -4 c 128,-1,44
 102 -20 102 -20 83 -33 c 0,45,46
 63 -45 63 -45 53 -61 c 128,-1,47
 43 -77 43 -77 43 -115 c 0,48,49
 43 -134 43 -134 64 -142 c 128,-1,50
 85 -150 85 -150 108 -150 c 0,51,52
 126 -150 126 -150 171 -145 c 0,53,54
 204 -142 204 -142 214 -142 c 256,0,1
EndSplineSet
Validated: 9
EndChar

StartChar: J
Encoding: 74 74 34
Width: 540
Flags: W
LayerCount: 2
Fore
SplineSet
20 -248 m 0,0,1
 20 -290 20 -290 26.5 -315.5 c 128,-1,2
 33 -341 33 -341 48 -355 c 128,-1,3
 63 -369 63 -369 90 -374.5 c 128,-1,4
 117 -380 117 -380 162 -380 c 0,5,6
 223 -380 223 -380 283 -347.5 c 128,-1,7
 343 -315 343 -315 376 -261 c 256,8,9
 409 -207 409 -207 422.5 -140.5 c 128,-1,10
 436 -74 436 -74 436 26 c 2,11,-1
 436 708 l 2,12,13
 436 753 436 753 449 774.5 c 128,-1,14
 462 796 462 796 487 816 c 0,15,16
 504 830 504 830 512 842 c 128,-1,17
 520 854 520 854 520 873 c 0,18,19
 520 888 520 888 503 902.5 c 128,-1,20
 486 917 486 917 465 917 c 0,21,22
 447 917 447 917 400 907 c 0,23,24
 361 899 361 899 348 899 c 0,25,26
 328 899 328 899 279 906 c 0,27,28
 234 913 234 913 216 913 c 0,29,30
 196 913 196 913 181 905.5 c 128,-1,31
 166 898 166 898 166 879 c 0,32,33
 166 845 166 845 177.5 830 c 128,-1,34
 189 815 189 815 212 802 c 0,35,36
 236 789 236 789 248.5 772.5 c 128,-1,37
 261 756 261 756 261 718 c 2,38,-1
 261 64 l 1,39,-1
 261 -7 l 2,40,41
 261 -65 261 -65 259.5 -106.5 c 128,-1,42
 258 -148 258 -148 253.5 -180.5 c 128,-1,43
 249 -213 249 -213 239 -232.5 c 128,-1,44
 229 -252 229 -252 212 -252 c 0,45,46
 191 -252 191 -252 178 -243.5 c 128,-1,47
 165 -235 165 -235 158.5 -220.5 c 128,-1,48
 152 -206 152 -206 150 -191 c 128,-1,49
 148 -176 148 -176 147 -149 c 0,50,51
 145 -108 145 -108 137.5 -88.5 c 128,-1,52
 130 -69 130 -69 106 -69 c 0,53,54
 79 -69 79 -69 62 -89 c 128,-1,55
 45 -109 45 -109 36 -138.5 c 128,-1,56
 27 -168 27 -168 23.5 -197 c 128,-1,57
 20 -226 20 -226 20 -248 c 0,0,1
EndSplineSet
Validated: 9
EndChar

StartChar: K
Encoding: 75 75 35
Width: 792
Flags: W
LayerCount: 2
Fore
SplineSet
214 -142 m 256,0,1
 224 -142 224 -142 258 -145 c 0,2,3
 305 -150 305 -150 322 -150 c 0,4,5
 348 -150 348 -150 366.5 -142.5 c 128,-1,6
 385 -135 385 -135 385 -112 c 0,7,8
 385 -83 385 -83 375.5 -70 c 128,-1,9
 366 -57 366 -57 347 -46 c 0,10,11
 323 -31 323 -31 310 -11 c 128,-1,12
 297 9 297 9 297 57 c 2,13,-1
 297 327 l 1,14,15
 332 312 332 312 359 279.5 c 128,-1,16
 386 247 386 247 405 203.5 c 128,-1,17
 424 160 424 160 436.5 115.5 c 128,-1,18
 449 71 449 71 465 6 c 2,19,-1
 467 -2 l 2,20,21
 471 -18 471 -18 471 -18 c 2,22,23
 482 -62 482 -62 490 -88 c 128,-1,24
 498 -114 498 -114 511.5 -136.5 c 128,-1,25
 525 -159 525 -159 545.5 -171.5 c 128,-1,26
 566 -184 566 -184 596 -184 c 0,27,28
 624 -184 624 -184 654.5 -179 c 128,-1,29
 685 -174 685 -174 712 -163 c 128,-1,30
 739 -152 739 -152 755.5 -133.5 c 128,-1,31
 772 -115 772 -115 772 -88 c 0,32,33
 772 -73 772 -73 756.5 -63 c 128,-1,34
 741 -53 741 -53 724 -53 c 2,35,-1
 701 -53 l 2,36,37
 691 -53 691 -53 687 -51 c 128,-1,38
 683 -49 683 -49 679 -41 c 0,39,40
 665 -2 665 -2 641 75 c 0,41,42
 620 144 620 144 605 187 c 128,-1,43
 590 230 590 230 568 277 c 128,-1,44
 546 324 546 324 516 366 c 128,-1,45
 486 408 486 408 447 442 c 0,46,47
 444 445 444 445 443 446 c 1,48,49
 444 446 444 446 445 447.5 c 128,-1,50
 446 449 446 449 446 453 c 0,51,52
 446 463 446 463 457 477 c 0,53,54
 460 479 460 479 461 481 c 0,55,56
 484 510 484 510 507.5 545 c 128,-1,57
 531 580 531 580 554 618.5 c 128,-1,58
 577 657 577 657 594.5 692 c 128,-1,59
 612 727 612 727 620 752 c 0,60,61
 629 779 629 779 640 793.5 c 128,-1,62
 651 808 651 808 667 823 c 0,63,64
 680 835 680 835 686 843.5 c 128,-1,65
 692 852 692 852 692 868 c 0,66,67
 692 883 692 883 681.5 895.5 c 128,-1,68
 671 908 671 908 646 908 c 0,69,70
 624 908 624 908 585 900 c 0,71,72
 555 894 555 894 542 894 c 0,73,74
 528 894 528 894 497 900 c 0,75,76
 456 908 456 908 433 908 c 0,77,78
 411 908 411 908 403 896 c 128,-1,79
 395 884 395 884 395 868 c 0,80,81
 395 846 395 846 402.5 834 c 128,-1,82
 410 822 410 822 424 809 c 0,83,84
 438 797 438 797 445 785.5 c 128,-1,85
 452 774 452 774 452 754 c 0,86,87
 452 720 452 720 440 680 c 128,-1,88
 428 640 428 640 406.5 602 c 128,-1,89
 385 564 385 564 356.5 532.5 c 128,-1,90
 328 501 328 501 297 483 c 1,91,-1
 297 705 l 2,92,93
 297 749 297 749 309.5 771.5 c 128,-1,94
 322 794 322 794 345 814 c 0,95,96
 361 828 361 828 369 840 c 128,-1,97
 377 852 377 852 377 872 c 0,98,99
 377 887 377 887 362 900.5 c 128,-1,100
 347 914 347 914 326 914 c 0,101,102
 308 914 308 914 264 909 c 0,103,104
 222 904 222 904 209 904 c 0,105,106
 187 904 187 904 132 909 c 0,107,108
 84 914 84 914 67 914 c 0,109,110
 44 914 44 914 32 902.5 c 128,-1,111
 20 891 20 891 20 875 c 0,112,113
 20 842 20 842 32 828 c 128,-1,114
 44 814 44 814 69 801 c 0,115,116
 95 788 95 788 108.5 771 c 128,-1,117
 122 754 122 754 122 715 c 2,118,-1
 122 47 l 2,119,120
 122 11 122 11 112 -4.5 c 128,-1,121
 102 -20 102 -20 83 -33 c 0,122,123
 62 -45 62 -45 52 -61.5 c 128,-1,124
 42 -78 42 -78 42 -116 c 0,125,126
 42 -135 42 -135 63.5 -142.5 c 128,-1,127
 85 -150 85 -150 108 -150 c 0,128,129
 126 -150 126 -150 171 -145 c 0,130,131
 204 -142 204 -142 214 -142 c 256,0,1
EndSplineSet
Validated: 9
EndChar

StartChar: L
Encoding: 76 76 36
Width: 675
Flags: W
LayerCount: 2
Fore
SplineSet
205 897 m 0,0,1
 185 897 185 897 133 906 c 0,2,3
 85 915 85 915 67 915 c 0,4,5
 44 915 44 915 32 904 c 128,-1,6
 20 893 20 893 20 876 c 0,7,8
 20 842 20 842 32 828.5 c 128,-1,9
 44 815 44 815 68 804 c 0,10,11
 95 793 95 793 108.5 776.5 c 128,-1,12
 122 760 122 760 122 717 c 2,13,-1
 122 80 l 2,14,15
 122 34 122 34 108.5 11.5 c 128,-1,16
 95 -11 95 -11 69 -33 c 0,17,18
 47 -51 47 -51 36.5 -67.5 c 128,-1,19
 26 -84 26 -84 26 -114 c 0,20,21
 26 -130 26 -130 41.5 -140 c 128,-1,22
 57 -150 57 -150 79 -150 c 0,23,24
 91 -150 91 -150 110.5 -146.5 c 128,-1,25
 130 -143 130 -143 160 -137 c 0,26,27
 201 -128 201 -128 209 -128 c 0,28,29
 245 -128 245 -128 282.5 -134 c 128,-1,30
 320 -140 320 -140 373 -151 c 0,31,32
 423 -161 423 -161 455 -166 c 128,-1,33
 487 -171 487 -171 516 -171 c 0,34,35
 559 -171 559 -171 587 -150.5 c 128,-1,36
 615 -130 615 -130 629.5 -94.5 c 128,-1,37
 644 -59 644 -59 649.5 -13 c 128,-1,38
 655 33 655 33 655 92 c 0,39,40
 655 110 655 110 652.5 128.5 c 128,-1,41
 650 147 650 147 644 163 c 128,-1,42
 638 179 638 179 626.5 189 c 128,-1,43
 615 199 615 199 597 199 c 0,44,45
 568 199 568 199 554.5 175 c 128,-1,46
 541 151 541 151 529 103 c 0,47,48
 516 55 516 55 502.5 31 c 128,-1,49
 489 7 489 7 461 7 c 0,50,51
 449 7 449 7 432 10.5 c 128,-1,52
 415 14 415 14 391 20 c 0,53,54
 365 26 365 26 347.5 29.5 c 128,-1,55
 330 33 330 33 317 33 c 2,56,-1
 284 33 l 2,57,58
 284 34 284 34 287 44 c 0,59,60
 297 79 297 79 297 101 c 2,61,-1
 297 707 l 2,62,63
 297 738 297 738 304.5 758 c 128,-1,64
 312 778 312 778 324.5 789.5 c 128,-1,65
 337 801 337 801 350.5 806.5 c 128,-1,66
 364 812 364 812 386 818 c 0,67,68
 417 826 417 826 432 837 c 128,-1,69
 447 848 447 848 447 876 c 0,70,71
 447 896 447 896 423.5 907 c 128,-1,72
 400 918 400 918 371 918 c 0,73,74
 352 918 352 918 331 915 c 128,-1,75
 310 912 310 912 277 906 c 0,76,77
 224 897 224 897 205 897 c 0,0,1
EndSplineSet
Validated: 9
EndChar

StartChar: M
Encoding: 77 77 37
Width: 980
Flags: W
LayerCount: 2
Fore
SplineSet
381 157 m 0,0,1
 384 136 384 136 389 101 c 0,2,3
 396 48 396 48 401.5 14.5 c 128,-1,4
 407 -19 407 -19 415.5 -45.5 c 128,-1,5
 424 -72 424 -72 437 -87 c 128,-1,6
 450 -102 450 -102 470 -102 c 0,7,8
 491 -102 491 -102 506.5 -81.5 c 128,-1,9
 522 -61 522 -61 533 -24.5 c 128,-1,10
 544 12 544 12 551.5 57 c 128,-1,11
 559 102 559 102 567 164 c 0,12,13
 579 261 579 261 599 364 c 128,-1,14
 619 467 619 467 641 556 c 1,15,16
 658 462 658 462 666.5 349 c 128,-1,17
 675 236 675 236 678 96 c 0,18,19
 678 40 678 40 667 15.5 c 128,-1,20
 656 -9 656 -9 635 -28 c 0,21,22
 617 -44 617 -44 608.5 -61 c 128,-1,23
 600 -78 600 -78 600 -115 c 0,24,25
 600 -132 600 -132 617.5 -141 c 128,-1,26
 635 -150 635 -150 653 -150 c 0,27,28
 669 -150 669 -150 711 -147 c 0,29,30
 754 -143 754 -143 772 -143 c 0,31,32
 791 -143 791 -143 826 -146 c 0,33,34
 862 -150 862 -150 882 -150 c 0,35,36
 891 -150 891 -150 904 -148 c 128,-1,37
 917 -146 917 -146 929.5 -142 c 128,-1,38
 942 -138 942 -138 951 -131 c 128,-1,39
 960 -124 960 -124 960 -114 c 0,40,41
 960 -92 960 -92 948 -79 c 128,-1,42
 936 -66 936 -66 913 -52 c 256,43,44
 890 -38 890 -38 879 -26.5 c 128,-1,45
 868 -15 868 -15 868 5 c 0,46,47
 865 183 865 183 847.5 368.5 c 128,-1,48
 830 554 830 554 802 759 c 0,49,50
 802 761 802 761 801 765 c 0,51,52
 801 769 801 769 801 770 c 0,53,54
 801 790 801 790 810.5 800 c 128,-1,55
 820 810 820 810 841 820 c 0,56,57
 865 833 865 833 878 847.5 c 128,-1,58
 891 862 891 862 891 894 c 0,59,60
 891 904 891 904 871 914 c 128,-1,61
 851 924 851 924 836 924 c 0,62,63
 818 924 818 924 787 918 c 0,64,65
 767 914 767 914 761 914 c 0,66,67
 754 914 754 914 737 916 c 0,68,69
 713 920 713 920 695 920 c 0,70,71
 659 920 659 920 637.5 888 c 128,-1,72
 616 856 616 856 590 789 c 0,73,74
 564 718 564 718 540.5 634 c 128,-1,75
 517 550 517 550 501 473 c 1,76,77
 483 551 483 551 461.5 628 c 128,-1,78
 440 705 440 705 415.5 771.5 c 128,-1,79
 391 838 391 838 366 879 c 128,-1,80
 341 920 341 920 318 920 c 0,81,82
 293 920 293 920 255 913 c 0,83,84
 225 908 225 908 209 908 c 0,85,86
 204 908 204 908 192 913 c 0,87,88
 165 924 165 924 141 924 c 0,89,90
 119 924 119 924 104 907.5 c 128,-1,91
 89 891 89 891 89 880 c 0,92,93
 89 859 89 859 102 846 c 128,-1,94
 115 833 115 833 141 818 c 0,95,96
 165 804 165 804 177 792 c 128,-1,97
 189 780 189 780 189 761 c 0,98,99
 189 760 189 760 189 758 c 0,100,101
 188 756 188 756 188 754 c 0,102,103
 181 695 181 695 163 568 c 0,104,105
 139 391 139 391 125.5 275 c 128,-1,106
 112 159 112 159 108 33 c 0,107,108
 107 3 107 3 93 -16.5 c 128,-1,109
 79 -36 79 -36 54 -58 c 0,110,111
 37 -74 37 -74 28.5 -84.5 c 128,-1,112
 20 -95 20 -95 20 -108 c 0,113,114
 20 -120 20 -120 39 -135 c 128,-1,115
 58 -150 58 -150 77 -150 c 0,116,117
 98 -150 98 -150 139 -143 c 0,118,119
 171 -137 171 -137 184 -137 c 0,120,121
 201 -137 201 -137 236 -143 c 0,122,123
 279 -150 279 -150 305 -150 c 0,124,125
 326 -150 326 -150 342.5 -134.5 c 128,-1,126
 359 -119 359 -119 359 -105 c 0,127,128
 359 -87 359 -87 351.5 -76.5 c 128,-1,129
 344 -66 344 -66 328 -53 c 0,130,131
 301 -30 301 -30 285.5 -1.5 c 128,-1,132
 270 27 270 27 268 88 c 0,133,134
 268 100 268 100 268 105 c 0,135,136
 266 186 266 186 266 222 c 0,137,138
 266 329 266 329 271.5 401.5 c 128,-1,139
 277 474 277 474 287 555 c 2,140,-1
 289 575 l 1,141,142
 316 505 316 505 341 380 c 0,143,144
 352 327 352 327 360 282.5 c 128,-1,145
 368 238 368 238 381 157 c 0,0,1
EndSplineSet
Validated: 9
EndChar

StartChar: N
Encoding: 78 78 38
Width: 742
Flags: W
LayerCount: 2
Fore
SplineSet
625 -150 m 0,0,1
 654 -150 654 -150 667 -136 c 128,-1,2
 680 -122 680 -122 680 -98 c 0,3,4
 680 -88 680 -88 679 -56 c 0,5,6
 676 8 676 8 676 60 c 2,7,-1
 676 707 l 2,8,9
 676 743 676 743 683 765.5 c 128,-1,10
 690 788 690 788 704 814 c 0,11,12
 713 832 713 832 717.5 844.5 c 128,-1,13
 722 857 722 857 722 873 c 256,14,15
 722 889 722 889 710 901 c 128,-1,16
 698 913 698 913 676 913 c 0,17,18
 658 913 658 913 646 911 c 128,-1,19
 634 909 634 909 624 905 c 0,20,21
 611 901 611 901 604 901 c 0,22,23
 588 901 588 901 564 907 c 0,24,25
 535 913 535 913 513 913 c 0,26,27
 492 913 492 913 474.5 903.5 c 128,-1,28
 457 894 457 894 457 876 c 0,29,30
 457 855 457 855 463 845.5 c 128,-1,31
 469 836 469 836 485 825 c 0,32,33
 500 813 500 813 512.5 801.5 c 128,-1,34
 525 790 525 790 539 768 c 0,35,36
 550 752 550 752 556 720.5 c 128,-1,37
 562 689 562 689 565 650.5 c 128,-1,38
 568 612 568 612 568.5 573.5 c 128,-1,39
 569 535 569 535 569 480 c 0,40,41
 569 396 569 396 566 313 c 1,42,43
 524 424 524 424 478 529.5 c 128,-1,44
 432 635 432 635 385.5 723.5 c 128,-1,45
 339 812 339 812 297 864.5 c 128,-1,46
 255 917 255 917 225 917 c 0,47,48
 210 917 210 917 179 907 c 0,49,50
 162 901 162 901 158 901 c 0,51,52
 153 901 153 901 142 905 c 0,53,54
 128 909 128 909 115.5 911.5 c 128,-1,55
 103 914 103 914 85 914 c 0,56,57
 65 914 65 914 42.5 900.5 c 128,-1,58
 20 887 20 887 20 872 c 0,59,60
 20 851 20 851 30 839.5 c 128,-1,61
 40 828 40 828 61 815 c 0,62,63
 90 797 90 797 105.5 776 c 128,-1,64
 121 755 121 755 121 710 c 2,65,-1
 106 46 l 2,66,67
 106 26 106 26 102 17 c 128,-1,68
 98 8 98 8 91 -1 c 0,69,70
 80 -14 80 -14 73.5 -37 c 128,-1,71
 67 -60 67 -60 67 -121 c 0,72,73
 67 -139 67 -139 81 -144.5 c 128,-1,74
 95 -150 95 -150 127 -150 c 0,75,76
 145 -150 145 -150 186 -144 c 0,77,78
 214 -140 214 -140 222 -140 c 0,79,80
 232 -140 232 -140 256 -144 c 0,81,82
 291 -150 291 -150 310 -150 c 0,83,84
 336 -150 336 -150 350.5 -137.5 c 128,-1,85
 365 -125 365 -125 365 -107 c 0,86,87
 365 -83 365 -83 355.5 -69.5 c 128,-1,88
 346 -56 346 -56 326 -39 c 0,89,90
 297 -16 297 -16 281 10.5 c 128,-1,91
 265 37 265 37 261 92 c 0,92,93
 252 232 252 232 247.5 353 c 128,-1,94
 243 474 243 474 243 592 c 1,95,96
 294 510 294 510 333.5 441.5 c 128,-1,97
 373 373 373 373 413 291.5 c 128,-1,98
 453 210 453 210 493.5 111.5 c 128,-1,99
 534 13 534 13 578 -111 c 0,100,101
 582 -122 582 -122 594.5 -136 c 128,-1,102
 607 -150 607 -150 625 -150 c 0,0,1
EndSplineSet
Validated: 9
EndChar

StartChar: O
Encoding: 79 79 39
Width: 728
Flags: W
LayerCount: 2
Fore
SplineSet
364 941 m 0,0,1
 305 941 305 941 243.5 896.5 c 128,-1,2
 182 852 182 852 131.5 774.5 c 128,-1,3
 81 697 81 697 50.5 596.5 c 128,-1,4
 20 496 20 496 20 389 c 0,5,6
 20 278 20 278 42.5 178 c 128,-1,7
 65 78 65 78 109 1 c 128,-1,8
 153 -76 153 -76 218 -119.5 c 128,-1,9
 283 -163 283 -163 364 -163 c 0,10,11
 419 -163 419 -163 479.5 -118.5 c 128,-1,12
 540 -74 540 -74 592 4 c 128,-1,13
 644 82 644 82 676 182.5 c 128,-1,14
 708 283 708 283 708 389 c 0,15,16
 708 498 708 498 682 598.5 c 128,-1,17
 656 699 656 699 608.5 776.5 c 128,-1,18
 561 854 561 854 498 897.5 c 128,-1,19
 435 941 435 941 364 941 c 0,0,1
320 763 m 0,20,21
 364 763 364 763 406 716.5 c 128,-1,22
 448 670 448 670 481 594 c 128,-1,23
 514 518 514 518 532.5 429 c 128,-1,24
 551 340 551 340 551 260 c 0,25,26
 551 198 551 198 535.5 151 c 128,-1,27
 520 104 520 104 496.5 74 c 128,-1,28
 473 44 473 44 448 29.5 c 128,-1,29
 423 15 423 15 405 15 c 0,30,31
 358 15 358 15 316.5 54.5 c 128,-1,32
 275 94 275 94 244 163.5 c 128,-1,33
 213 233 213 233 195.5 321.5 c 128,-1,34
 178 410 178 410 178 504 c 0,35,36
 178 579 178 579 191 630.5 c 128,-1,37
 204 682 204 682 225 710.5 c 128,-1,38
 246 739 246 739 270.5 751 c 128,-1,39
 295 763 295 763 320 763 c 0,20,21
EndSplineSet
Validated: 9
EndChar

StartChar: P
Encoding: 80 80 40
Width: 724
Flags: W
LayerCount: 2
Fore
SplineSet
116 715 m 2,0,-1
 116 49 l 2,1,2
 116 12 116 12 106 -4 c 128,-1,3
 96 -20 96 -20 76 -33 c 0,4,5
 56 -45 56 -45 46 -61 c 128,-1,6
 36 -77 36 -77 36 -115 c 0,7,8
 36 -134 36 -134 57.5 -142 c 128,-1,9
 79 -150 79 -150 102 -150 c 0,10,11
 120 -150 120 -150 166 -145 c 0,12,13
 199 -142 199 -142 207 -142 c 256,14,15
 215 -142 215 -142 282 -146 c 0,16,17
 368 -150 368 -150 378 -150 c 0,18,19
 404 -150 404 -150 426.5 -138.5 c 128,-1,20
 449 -127 449 -127 449 -105 c 0,21,22
 449 -81 449 -81 433.5 -70.5 c 128,-1,23
 418 -60 418 -60 386 -51 c 0,24,25
 363 -44 363 -44 348 -38 c 128,-1,26
 333 -32 333 -32 319.5 -21 c 128,-1,27
 306 -10 306 -10 298 10 c 128,-1,28
 290 30 290 30 290 59 c 2,29,-1
 290 343 l 1,30,31
 381 345 381 345 455.5 361.5 c 128,-1,32
 530 378 530 378 586 412.5 c 128,-1,33
 642 447 642 447 673 503 c 128,-1,34
 704 559 704 559 704 637 c 0,35,36
 704 712 704 712 671.5 768.5 c 128,-1,37
 639 825 639 825 581 862 c 128,-1,38
 523 899 523 899 447.5 916.5 c 128,-1,39
 372 934 372 934 286 934 c 0,40,41
 250 934 250 934 205.5 929.5 c 128,-1,42
 161 925 161 925 118.5 914 c 128,-1,43
 76 903 76 903 48 883.5 c 128,-1,44
 20 864 20 864 20 836 c 0,45,46
 20 817 20 817 33 805.5 c 128,-1,47
 46 794 46 794 66 794 c 0,48,49
 79 795 79 795 97 802 c 0,50,51
 104 805 104 805 106 805 c 0,52,53
 111 805 111 805 113.5 788.5 c 128,-1,54
 116 772 116 772 116 715 c 2,0,-1
290 707 m 2,55,56
 290 750 290 750 293 775 c 128,-1,57
 296 800 296 800 302.5 812 c 128,-1,58
 309 824 309 824 319 827.5 c 128,-1,59
 329 831 329 831 345 831 c 0,60,61
 381 831 381 831 412.5 816.5 c 128,-1,62
 444 802 444 802 467 775.5 c 128,-1,63
 490 749 490 749 502.5 713.5 c 128,-1,64
 515 678 515 678 515 637 c 0,65,66
 515 576 515 576 498.5 535 c 128,-1,67
 482 494 482 494 452.5 471 c 128,-1,68
 423 448 423 448 383 437.5 c 128,-1,69
 343 427 343 427 290 425 c 1,70,-1
 290 707 l 2,55,56
EndSplineSet
Validated: 9
EndChar

StartChar: Q
Encoding: 81 81 41
Width: 751
Flags: W
LayerCount: 2
Fore
SplineSet
494 -457 m 0,0,1
 528 -457 528 -457 569.5 -441 c 128,-1,2
 611 -425 611 -425 648 -398 c 128,-1,3
 685 -371 685 -371 708 -337.5 c 128,-1,4
 731 -304 731 -304 731 -270 c 0,5,6
 731 -255 731 -255 721.5 -241 c 128,-1,7
 712 -227 712 -227 685 -227 c 0,8,9
 673 -227 673 -227 662.5 -235 c 128,-1,10
 652 -243 652 -243 636 -260 c 0,11,12
 616 -282 616 -282 600.5 -293 c 128,-1,13
 585 -304 585 -304 564 -304 c 0,14,15
 551 -304 551 -304 541 -299 c 128,-1,16
 531 -294 531 -294 515 -282 c 0,17,18
 488 -261 488 -261 460.5 -249.5 c 128,-1,19
 433 -238 433 -238 386 -238 c 0,20,21
 375 -238 375 -238 351 -242 c 0,22,23
 330 -245 330 -245 321 -245 c 0,24,25
 303 -245 303 -245 294 -241 c 1,26,27
 369 -202 369 -202 439 -150 c 128,-1,28
 509 -98 509 -98 571 -23 c 128,-1,29
 633 52 633 52 671.5 155 c 128,-1,30
 710 258 710 258 710 386 c 0,31,32
 710 496 710 496 684 596.5 c 128,-1,33
 658 697 658 697 610.5 774.5 c 128,-1,34
 563 852 563 852 499.5 895.5 c 128,-1,35
 436 939 436 939 365 939 c 0,36,37
 312 939 312 939 251.5 894.5 c 128,-1,38
 191 850 191 850 138 771.5 c 128,-1,39
 85 693 85 693 52.5 592.5 c 128,-1,40
 20 492 20 492 20 386 c 0,41,42
 20 206 20 206 76 66 c 128,-1,43
 132 -74 132 -74 238 -135 c 1,44,45
 186 -185 186 -185 149.5 -204 c 128,-1,46
 113 -223 113 -223 80 -223 c 0,47,48
 59 -223 59 -223 39.5 -233.5 c 128,-1,49
 20 -244 20 -244 20 -268 c 0,50,51
 20 -285 20 -285 33 -298.5 c 128,-1,52
 46 -312 46 -312 68 -321 c 128,-1,53
 90 -330 90 -330 116 -335 c 128,-1,54
 142 -340 142 -340 166 -340 c 0,55,56
 182 -340 182 -340 199 -348 c 128,-1,57
 216 -356 216 -356 245 -376 c 0,58,59
 302 -413 302 -413 357 -435 c 128,-1,60
 412 -457 412 -457 494 -457 c 0,0,1
321 761 m 0,61,62
 365 761 365 761 407.5 714.5 c 128,-1,63
 450 668 450 668 482.5 591.5 c 128,-1,64
 515 515 515 515 534 426.5 c 128,-1,65
 553 338 553 338 553 257 c 0,66,67
 553 195 553 195 537.5 147.5 c 128,-1,68
 522 100 522 100 498 70 c 128,-1,69
 474 40 474 40 449.5 25.5 c 128,-1,70
 425 11 425 11 407 11 c 0,71,72
 360 11 360 11 318 49.5 c 128,-1,73
 276 88 276 88 244.5 156 c 128,-1,74
 213 224 213 224 195.5 310.5 c 128,-1,75
 178 397 178 397 178 491 c 0,76,77
 178 559 178 559 193.5 611 c 128,-1,78
 209 663 209 663 232.5 696 c 128,-1,79
 256 729 256 729 280 745 c 128,-1,80
 304 761 304 761 321 761 c 0,61,62
EndSplineSet
Validated: 9
EndChar

StartChar: R
Encoding: 82 82 42
Width: 817
Flags: W
LayerCount: 2
Fore
SplineSet
207 -142 m 256,0,1
 217 -142 217 -142 254 -146 c 0,2,3
 279 -148 279 -148 294 -149 c 128,-1,4
 309 -150 309 -150 319 -150 c 0,5,6
 343 -150 343 -150 364.5 -140 c 128,-1,7
 386 -130 386 -130 386 -114 c 0,8,9
 386 -87 386 -87 376 -74.5 c 128,-1,10
 366 -62 366 -62 345 -50 c 0,11,12
 319 -34 319 -34 304.5 -13 c 128,-1,13
 290 8 290 8 290 59 c 2,14,-1
 290 343 l 1,15,16
 305 344 305 344 334 344 c 0,17,18
 362 344 362 344 376.5 332.5 c 128,-1,19
 391 321 391 321 414 277 c 0,20,21
 450 207 450 207 477.5 109 c 128,-1,22
 505 11 505 11 513 -95 c 0,23,24
 516 -128 516 -128 541 -143 c 128,-1,25
 566 -158 566 -158 633 -158 c 0,26,27
 652 -158 652 -158 680 -151 c 128,-1,28
 708 -144 708 -144 734.5 -131.5 c 128,-1,29
 761 -119 761 -119 779 -102.5 c 128,-1,30
 797 -86 797 -86 797 -69 c 0,31,32
 797 -46 797 -46 777.5 -38.5 c 128,-1,33
 758 -31 758 -31 732 -31 c 0,34,35
 710 -31 710 -31 703 -30 c 128,-1,36
 696 -29 696 -29 690 -25 c 0,37,38
 681 -18 681 -18 676.5 1.5 c 128,-1,39
 672 21 672 21 665 65 c 0,40,41
 659 111 659 111 652.5 147 c 128,-1,42
 646 183 646 183 633 224.5 c 128,-1,43
 620 266 620 266 598 308.5 c 128,-1,44
 576 351 576 351 544 389 c 1,45,46
 621 426 621 426 662 488 c 128,-1,47
 703 550 703 550 703 637 c 0,48,49
 703 712 703 712 670.5 768.5 c 128,-1,50
 638 825 638 825 580 862 c 128,-1,51
 522 899 522 899 447 916.5 c 128,-1,52
 372 934 372 934 286 934 c 0,53,54
 250 934 250 934 205.5 929.5 c 128,-1,55
 161 925 161 925 118.5 914 c 128,-1,56
 76 903 76 903 48 883.5 c 128,-1,57
 20 864 20 864 20 836 c 0,58,59
 20 817 20 817 33 805.5 c 128,-1,60
 46 794 46 794 65 794 c 0,61,62
 79 795 79 795 97 802 c 0,63,64
 105 805 105 805 106 805 c 0,65,66
 111 805 111 805 113.5 788.5 c 128,-1,67
 116 772 116 772 116 715 c 2,68,-1
 116 49 l 2,69,70
 116 12 116 12 106 -4 c 128,-1,71
 96 -20 96 -20 76 -33 c 0,72,73
 56 -45 56 -45 46 -61 c 128,-1,74
 36 -77 36 -77 36 -115 c 0,75,76
 36 -134 36 -134 57.5 -142 c 128,-1,77
 79 -150 79 -150 102 -150 c 0,78,79
 120 -150 120 -150 164 -145 c 0,80,81
 197 -142 197 -142 207 -142 c 256,0,1
290 707 m 2,82,83
 290 750 290 750 293 775 c 128,-1,84
 296 800 296 800 302.5 812 c 128,-1,85
 309 824 309 824 319 827.5 c 128,-1,86
 329 831 329 831 345 831 c 0,87,88
 381 831 381 831 412 816.5 c 128,-1,89
 443 802 443 802 466 775.5 c 128,-1,90
 489 749 489 749 501.5 713.5 c 128,-1,91
 514 678 514 678 514 637 c 0,92,93
 514 576 514 576 498 535 c 128,-1,94
 482 494 482 494 452.5 471 c 128,-1,95
 423 448 423 448 383 437.5 c 128,-1,96
 343 427 343 427 290 425 c 1,97,-1
 290 707 l 2,82,83
EndSplineSet
Validated: 9
EndChar

StartChar: S
Encoding: 83 83 43
Width: 685
Flags: W
LayerCount: 2
Fore
SplineSet
665 199 m 0,0,1
 665 300 665 300 639.5 366 c 128,-1,2
 614 432 614 432 572 468.5 c 128,-1,3
 530 505 530 505 485.5 522.5 c 128,-1,4
 441 540 441 540 375 556 c 0,5,6
 337 566 337 566 314 573 c 128,-1,7
 291 580 291 580 272 591 c 128,-1,8
 253 602 253 602 242.5 619.5 c 128,-1,9
 232 637 232 637 232 662 c 0,10,11
 232 700 232 700 241.5 724.5 c 128,-1,12
 251 749 251 749 267 762.5 c 128,-1,13
 283 776 283 776 302.5 781.5 c 128,-1,14
 322 787 322 787 345 787 c 0,15,16
 406 787 406 787 435 758 c 128,-1,17
 464 729 464 729 473 677 c 1,18,-1
 473 656 l 2,19,20
 473 646 473 646 472 630 c 0,21,22
 472 618 472 618 472 614 c 0,23,24
 472 599 472 599 483.5 586.5 c 128,-1,25
 495 574 495 574 522 574 c 0,26,27
 540 574 540 574 556.5 598 c 128,-1,28
 573 622 573 622 585 659.5 c 128,-1,29
 597 697 597 697 604 736.5 c 128,-1,30
 611 776 611 776 611 806 c 0,31,32
 611 847 611 847 587.5 874.5 c 128,-1,33
 564 902 564 902 527.5 917.5 c 128,-1,34
 491 933 491 933 452 939 c 128,-1,35
 413 945 413 945 378 945 c 0,36,37
 326 945 326 945 272 917 c 128,-1,38
 218 889 218 889 173.5 841.5 c 128,-1,39
 129 794 129 794 102.5 737.5 c 128,-1,40
 76 681 76 681 76 628 c 0,41,42
 76 548 76 548 97 494.5 c 128,-1,43
 118 441 118 441 152.5 409.5 c 128,-1,44
 187 378 187 378 224.5 361.5 c 128,-1,45
 262 345 262 345 321 326 c 0,46,47
 364 313 364 313 391 302 c 128,-1,48
 418 291 418 291 441 274 c 128,-1,49
 464 257 464 257 477 230.5 c 128,-1,50
 490 204 490 204 490 165 c 0,51,52
 490 87 490 87 453 38 c 128,-1,53
 416 -11 416 -11 346 -11 c 0,54,55
 309 -11 309 -11 277 -3.5 c 128,-1,56
 245 4 245 4 219 22.5 c 128,-1,57
 193 41 193 41 178 73 c 128,-1,58
 163 105 163 105 163 152 c 0,59,60
 163 159 163 159 164 176 c 0,61,62
 166 198 166 198 166 208 c 0,63,64
 166 225 166 225 156.5 238.5 c 128,-1,65
 147 252 147 252 124 252 c 0,66,67
 95 252 95 252 74.5 224 c 128,-1,68
 54 196 54 196 42 154.5 c 128,-1,69
 30 113 30 113 25 73 c 128,-1,70
 20 33 20 33 20 7 c 0,71,72
 20 -41 20 -41 51 -74.5 c 128,-1,73
 82 -108 82 -108 130 -127 c 128,-1,74
 178 -146 178 -146 230.5 -154.5 c 128,-1,75
 283 -163 283 -163 328 -163 c 0,76,77
 384 -163 384 -163 443.5 -132.5 c 128,-1,78
 503 -102 503 -102 553.5 -50 c 128,-1,79
 604 2 604 2 634.5 67 c 128,-1,80
 665 132 665 132 665 199 c 0,0,1
EndSplineSet
Validated: 9
EndChar

StartChar: T
Encoding: 84 84 44
Width: 685
Flags: W
LayerCount: 2
Fore
SplineSet
343 -142 m 256,0,1
 353 -142 353 -142 388 -146 c 0,2,3
 433 -150 433 -150 451 -150 c 0,4,5
 477 -150 477 -150 495.5 -142 c 128,-1,6
 514 -134 514 -134 514 -111 c 0,7,8
 514 -93 514 -93 506.5 -83.5 c 128,-1,9
 499 -74 499 -74 482 -64 c 0,10,11
 456 -46 456 -46 441 -21.5 c 128,-1,12
 426 3 426 3 426 59 c 2,13,-1
 426 718 l 2,14,15
 426 759 426 759 431 779 c 128,-1,16
 436 799 436 799 441 799 c 0,17,18
 475 799 475 799 495.5 787 c 128,-1,19
 516 775 516 775 525.5 754.5 c 128,-1,20
 535 734 535 734 538 712.5 c 128,-1,21
 541 691 541 691 543 655 c 0,22,23
 545 603 545 603 554 578.5 c 128,-1,24
 563 554 563 554 595 554 c 0,25,26
 613 554 613 554 627 580.5 c 128,-1,27
 641 607 641 607 649 648 c 128,-1,28
 657 689 657 689 661 731.5 c 128,-1,29
 665 774 665 774 665 808 c 0,30,31
 665 824 665 824 662.5 841.5 c 128,-1,32
 660 859 660 859 652.5 877.5 c 128,-1,33
 645 896 645 896 630 908 c 128,-1,34
 615 920 615 920 593 920 c 0,35,36
 565 920 565 920 543.5 918 c 128,-1,37
 522 916 522 916 489 911 c 0,38,39
 451 905 451 905 419 902 c 128,-1,40
 387 899 387 899 345 899 c 0,41,42
 299 899 299 899 266 902 c 128,-1,43
 233 905 233 905 195 911 c 0,44,45
 161 916 161 916 139.5 918 c 128,-1,46
 118 920 118 920 88 920 c 0,47,48
 69 920 69 920 55.5 909 c 128,-1,49
 42 898 42 898 34 880.5 c 128,-1,50
 26 863 26 863 23 844 c 128,-1,51
 20 825 20 825 20 808 c 0,52,53
 20 771 20 771 23 729.5 c 128,-1,54
 26 688 26 688 33.5 649 c 128,-1,55
 41 610 41 610 54.5 585 c 128,-1,56
 68 560 68 560 88 560 c 0,57,58
 117 560 117 560 126.5 583.5 c 128,-1,59
 136 607 136 607 140 657 c 0,60,61
 143 690 143 690 147 712.5 c 128,-1,62
 151 735 151 735 161 754.5 c 128,-1,63
 171 774 171 774 191.5 786 c 128,-1,64
 212 798 212 798 245 798 c 0,65,66
 246 798 246 798 248.5 774 c 128,-1,67
 251 750 251 750 251 717 c 2,68,-1
 251 49 l 2,69,70
 251 5 251 5 239 -15 c 128,-1,71
 227 -35 227 -35 204 -51 c 0,72,73
 185 -65 185 -65 176 -78.5 c 128,-1,74
 167 -92 167 -92 167 -119 c 0,75,76
 167 -139 167 -139 185.5 -144.5 c 128,-1,77
 204 -150 204 -150 238 -150 c 0,78,79
 256 -150 256 -150 300 -145 c 0,80,81
 333 -142 333 -142 343 -142 c 256,0,1
EndSplineSet
Validated: 9
EndChar

StartChar: U
Encoding: 85 85 45
Width: 778
Flags: W
LayerCount: 2
Fore
SplineSet
579 900 m 0,0,1
 557 900 557 900 502 904 c 0,2,3
 455 907 455 907 440 907 c 0,4,5
 417 907 417 907 405 895.5 c 128,-1,6
 393 884 393 884 393 868 c 0,7,8
 393 832 393 832 405 819 c 128,-1,9
 417 806 417 806 441 797 c 0,10,11
 468 787 468 787 481.5 770.5 c 128,-1,12
 495 754 495 754 495 708 c 2,13,-1
 495 103 l 1,14,15
 461 55 461 55 430.5 27.5 c 128,-1,16
 400 0 400 0 373 0 c 0,17,18
 302 0 302 0 266 75 c 128,-1,19
 230 150 230 150 230 285 c 0,20,21
 230 381 230 381 243 475.5 c 128,-1,22
 256 570 256 570 281 704 c 0,23,24
 296 782 296 782 303 824 c 0,25,26
 305 842 305 842 305 850 c 0,27,28
 305 871 305 871 291 890.5 c 128,-1,29
 277 910 277 910 246 910 c 0,30,31
 228 910 228 910 193 908 c 0,32,33
 163 906 163 906 145 906 c 0,34,35
 137 906 137 906 113 908 c 0,36,37
 84 910 84 910 74 910 c 0,38,39
 51 910 51 910 35.5 896 c 128,-1,40
 20 882 20 882 20 865 c 0,41,42
 20 838 20 838 31.5 826.5 c 128,-1,43
 43 815 43 815 65 806 c 0,44,45
 86 797 86 797 96.5 786.5 c 128,-1,46
 107 776 107 776 107 753 c 2,47,48
 107 753 107 753 107 748 c 0,49,50
 106 744 106 744 106 743 c 0,51,52
 100 668 100 668 78 520 c 0,53,54
 62 413 62 413 54.5 345 c 128,-1,55
 47 277 47 277 47 211 c 0,56,57
 47 126 47 126 71 54.5 c 128,-1,58
 95 -17 95 -17 136 -68.5 c 128,-1,59
 177 -120 177 -120 227 -147 c 128,-1,60
 277 -174 277 -174 327 -174 c 0,61,62
 367 -174 367 -174 410 -149.5 c 128,-1,63
 453 -125 453 -125 494 -86 c 1,64,65
 499 -115 499 -115 514.5 -132.5 c 128,-1,66
 530 -150 530 -150 551 -150 c 0,67,68
 557 -150 557 -150 588 -147 c 0,69,70
 603 -145 603 -145 614.5 -144 c 128,-1,71
 626 -143 626 -143 630 -143 c 0,72,73
 639 -143 639 -143 659 -146 c 0,74,75
 682 -150 682 -150 693 -150 c 0,76,77
 716 -150 716 -150 737 -141 c 128,-1,78
 758 -132 758 -132 758 -119 c 0,79,80
 758 -91 758 -91 748.5 -78 c 128,-1,81
 739 -65 739 -65 720 -53 c 0,82,83
 695 -37 695 -37 682.5 -17 c 128,-1,84
 670 3 670 3 670 52 c 2,85,-1
 670 698 l 2,86,87
 670 748 670 748 682 769 c 128,-1,88
 694 790 694 790 717 806 c 0,89,90
 734 818 734 818 742 829.5 c 128,-1,91
 750 841 750 841 750 865 c 0,92,93
 750 880 750 880 735 893.5 c 128,-1,94
 720 907 720 907 699 907 c 0,95,96
 682 907 682 907 638 904 c 0,97,98
 593 900 593 900 579 900 c 0,0,1
EndSplineSet
Validated: 9
EndChar

StartChar: V
Encoding: 86 86 46
Width: 794
Flags: W
LayerCount: 2
Fore
SplineSet
647 906 m 0,0,1
 627 906 627 906 580 908 c 0,2,3
 524 911 524 911 496 911 c 0,4,5
 478 911 478 911 465.5 899 c 128,-1,6
 453 887 453 887 453 875 c 0,7,8
 453 860 453 860 461 851.5 c 128,-1,9
 469 843 469 843 487 832 c 0,10,11
 504 822 504 822 515 812.5 c 128,-1,12
 526 803 526 803 537 787 c 128,-1,13
 548 771 548 771 554.5 745.5 c 128,-1,14
 561 720 561 720 561 684 c 0,15,16
 560 657 560 657 556.5 613.5 c 128,-1,17
 553 570 553 570 547.5 526.5 c 128,-1,18
 542 483 542 483 533.5 430 c 128,-1,19
 525 377 525 377 515 332 c 0,20,21
 504 280 504 280 491 232 c 128,-1,22
 478 184 478 184 466.5 147.5 c 128,-1,23
 455 111 455 111 447.5 88.5 c 128,-1,24
 440 66 440 66 439 66 c 0,25,26
 430 66 430 66 401.5 140 c 128,-1,27
 373 214 373 214 346 320 c 0,28,29
 334 367 334 367 323 420.5 c 128,-1,30
 312 474 312 474 303 528 c 128,-1,31
 294 582 294 582 288 625.5 c 128,-1,32
 282 669 282 669 279 703 c 0,33,34
 279 708 279 708 279 714 c 0,35,36
 278 722 278 722 278 724 c 0,37,38
 278 770 278 770 295 789.5 c 128,-1,39
 312 809 312 809 343 823 c 0,40,41
 365 833 365 833 375.5 843 c 128,-1,42
 386 853 386 853 386 873 c 0,43,44
 386 888 386 888 366 903 c 128,-1,45
 346 918 346 918 323 918 c 0,46,47
 301 918 301 918 263 913 c 0,48,49
 230 908 230 908 215 908 c 0,50,51
 192 908 192 908 151 912 c 0,52,53
 107 917 107 917 81 917 c 256,54,55
 55 917 55 917 37.5 906.5 c 128,-1,56
 20 896 20 896 20 873 c 0,57,58
 20 858 20 858 25 849.5 c 128,-1,59
 30 841 30 841 42 831 c 0,60,61
 61 815 61 815 71.5 794.5 c 128,-1,62
 82 774 82 774 85 731 c 0,63,64
 93 601 93 601 119.5 464 c 128,-1,65
 146 327 146 327 188 203 c 0,66,67
 212 132 212 132 242.5 68 c 128,-1,68
 273 4 273 4 305.5 -45.5 c 128,-1,69
 338 -95 338 -95 368.5 -123 c 128,-1,70
 399 -151 399 -151 423 -151 c 0,71,72
 446 -151 446 -151 472 -118.5 c 128,-1,73
 498 -86 498 -86 525 -31.5 c 128,-1,74
 552 23 552 23 576 87 c 128,-1,75
 600 151 600 151 620 215 c 0,76,77
 657 337 657 337 681.5 476 c 128,-1,78
 706 615 706 615 715 739 c 0,79,80
 718 777 718 777 729 799.5 c 128,-1,81
 740 822 740 822 757 845 c 0,82,83
 772 864 772 864 773 873 c 0,84,85
 773 889 773 889 752 901 c 128,-1,86
 731 913 731 913 710 913 c 0,87,88
 694 913 694 913 671 909 c 0,89,90
 654 906 654 906 647 906 c 0,0,1
EndSplineSet
Validated: 9
EndChar

StartChar: W
Encoding: 87 87 47
Width: 1006
Flags: W
LayerCount: 2
Fore
SplineSet
209 903 m 0,0,1
 186 903 186 903 147 907 c 0,2,3
 105 911 105 911 80 911 c 0,4,5
 54 911 54 911 37 900.5 c 128,-1,6
 20 890 20 890 20 868 c 0,7,8
 20 851 20 851 24.5 842 c 128,-1,9
 29 833 29 833 39 822 c 0,10,11
 54 805 54 805 62.5 784.5 c 128,-1,12
 71 764 71 764 74 722 c 0,13,14
 80 618 80 618 103.5 468.5 c 128,-1,15
 127 319 127 319 161.5 177 c 128,-1,16
 196 35 196 35 238 -59 c 128,-1,17
 280 -153 280 -153 321 -154 c 0,18,19
 339 -154 339 -154 360 -126.5 c 128,-1,20
 381 -99 381 -99 404 -52.5 c 128,-1,21
 427 -6 427 -6 448.5 50.5 c 128,-1,22
 470 107 470 107 489 168 c 1,23,24
 506 105 506 105 525 48 c 128,-1,25
 544 -9 544 -9 564.5 -53.5 c 128,-1,26
 585 -98 585 -98 606.5 -124 c 128,-1,27
 628 -150 628 -150 649 -150 c 0,28,29
 672 -150 672 -150 696 -120.5 c 128,-1,30
 720 -91 720 -91 743.5 -41.5 c 128,-1,31
 767 8 767 8 789 69.5 c 128,-1,32
 811 131 811 131 832 201 c 0,33,34
 869 322 869 322 893.5 464 c 128,-1,35
 918 606 918 606 927 732 c 0,36,37
 930 770 930 770 941 792.5 c 128,-1,38
 952 815 952 815 969 838 c 0,39,40
 984 857 984 857 985 866 c 0,41,42
 985 882 985 882 964 894 c 128,-1,43
 943 906 943 906 922 906 c 0,44,45
 906 906 906 906 883 902 c 0,46,47
 866 899 866 899 859 899 c 0,48,49
 838 899 838 899 792 901 c 0,50,51
 736 904 736 904 709 904 c 0,52,53
 690 904 690 904 677.5 892.5 c 128,-1,54
 665 881 665 881 665 869 c 0,55,56
 665 854 665 854 673.5 845.5 c 128,-1,57
 682 837 682 837 700 825 c 0,58,59
 716 815 716 815 727.5 805.5 c 128,-1,60
 739 796 739 796 750 780 c 128,-1,61
 761 764 761 764 767.5 738.5 c 128,-1,62
 774 713 774 713 774 677 c 0,63,64
 773 649 773 649 769.5 607.5 c 128,-1,65
 766 566 766 566 760 516.5 c 128,-1,66
 754 467 754 467 745.5 414.5 c 128,-1,67
 737 362 737 362 727 318 c 0,68,69
 711 243 711 243 698.5 190.5 c 128,-1,70
 686 138 686 138 681 120 c 1,71,72
 681 134 681 134 658 226 c 0,73,74
 640 299 640 299 627 355 c 0,75,76
 615 409 615 409 605 467 c 128,-1,77
 595 525 595 525 588.5 580.5 c 128,-1,78
 582 636 582 636 578.5 680.5 c 128,-1,79
 575 725 575 725 575 753 c 0,80,81
 575 782 575 782 560.5 805.5 c 128,-1,82
 546 829 546 829 521 829 c 0,83,84
 497 829 497 829 479.5 805.5 c 128,-1,85
 462 782 462 782 460 745 c 0,86,87
 457 678 457 678 447 587 c 128,-1,88
 437 496 437 496 418 407 c 0,89,90
 408 359 408 359 396.5 306 c 128,-1,91
 385 253 385 253 378 223.5 c 128,-1,92
 371 194 371 194 364 166 c 128,-1,93
 357 138 357 138 355 130 c 0,94,95
 354 130 354 130 346.5 157.5 c 128,-1,96
 339 185 339 185 328.5 231 c 128,-1,97
 318 277 318 277 307.5 332.5 c 128,-1,98
 297 388 297 388 289 446 c 0,99,100
 283 491 283 491 280.5 533 c 128,-1,101
 278 575 278 575 275 635 c 0,102,103
 273 679 273 679 272 696 c 0,104,105
 272 698 272 698 272 707 c 0,106,107
 271 715 271 715 271 717 c 0,108,109
 271 763 271 763 287 782.5 c 128,-1,110
 303 802 303 802 333 817 c 0,111,112
 355 827 355 827 365 837 c 128,-1,113
 375 847 375 847 375 868 c 0,114,115
 375 882 375 882 355.5 897.5 c 128,-1,116
 336 913 336 913 314 913 c 0,117,118
 293 913 293 913 255 908 c 0,119,120
 224 903 224 903 209 903 c 0,0,1
EndSplineSet
Validated: 9
EndChar

StartChar: X
Encoding: 88 88 48
Width: 780
Flags: W
LayerCount: 2
Fore
SplineSet
168 -142 m 256,0,1
 175 -142 175 -142 202 -145 c 0,2,3
 243 -150 243 -150 258 -150 c 0,4,5
 281 -150 281 -150 297.5 -142 c 128,-1,6
 314 -134 314 -134 314 -111 c 0,7,8
 314 -75 314 -75 306.5 -60 c 128,-1,9
 299 -45 299 -45 285 -33 c 0,10,11
 273 -24 273 -24 267 -13.5 c 128,-1,12
 261 -3 261 -3 261 21 c 0,13,14
 264 80 264 80 287 139.5 c 128,-1,15
 310 199 310 199 353 273 c 1,16,17
 397 197 397 197 426.5 133 c 128,-1,18
 456 69 456 69 473 0 c 0,19,20
 473 -3 473 -3 474 -9 c 0,21,22
 475 -13 475 -13 475 -16 c 0,23,24
 475 -30 475 -30 468.5 -40.5 c 128,-1,25
 462 -51 462 -51 451 -64 c 0,26,27
 441 -75 441 -75 436 -82.5 c 128,-1,28
 431 -90 431 -90 431 -100 c 0,29,30
 431 -118 431 -118 444 -134 c 128,-1,31
 457 -150 457 -150 484 -150 c 0,32,33
 502 -150 502 -150 546 -145 c 0,34,35
 579 -142 579 -142 589 -142 c 256,36,37
 599 -142 599 -142 634 -146 c 0,38,39
 679 -150 679 -150 697 -150 c 0,40,41
 723 -150 723 -150 741.5 -142 c 128,-1,42
 760 -134 760 -134 760 -111 c 0,43,44
 760 -95 760 -95 752 -84 c 128,-1,45
 744 -73 744 -73 727 -58 c 0,46,47
 711 -44 711 -44 701 -32.5 c 128,-1,48
 691 -21 691 -21 684 -4 c 0,49,50
 647 86 647 86 590.5 201.5 c 128,-1,51
 534 317 534 317 468 432 c 0,52,53
 466 436 466 436 465 438 c 0,54,55
 462 444 462 444 461 446 c 0,56,57
 512 526 512 526 546.5 590.5 c 128,-1,58
 581 655 581 655 595 704 c 0,59,60
 606 745 606 745 621 763.5 c 128,-1,61
 636 782 636 782 656 796 c 0,62,63
 675 808 675 808 683 821 c 128,-1,64
 691 834 691 834 691 866 c 0,65,66
 691 881 691 881 678.5 894.5 c 128,-1,67
 666 908 666 908 648 908 c 0,68,69
 635 908 635 908 599 902 c 0,70,71
 570 897 570 897 560 897 c 0,72,73
 547 897 547 897 514 902 c 0,74,75
 480 908 480 908 466 908 c 0,76,77
 443 908 443 908 434 897 c 128,-1,78
 425 886 425 886 425 869 c 0,79,80
 425 833 425 833 432.5 818 c 128,-1,81
 440 803 440 803 452 792 c 0,82,83
 460 787 460 787 463 782 c 128,-1,84
 466 777 466 777 466 768 c 0,85,86
 466 742 466 742 458 705 c 0,87,88
 441 630 441 630 393 549 c 1,89,90
 349 616 349 616 325.5 663.5 c 128,-1,91
 302 711 302 711 293 770 c 0,92,93
 293 771 293 771 293 774 c 0,94,95
 292 777 292 777 292 778 c 0,96,97
 292 790 292 790 297.5 798.5 c 128,-1,98
 303 807 303 807 314 817 c 0,99,100
 325 828 325 828 331 837.5 c 128,-1,101
 337 847 337 847 337 862 c 0,102,103
 337 876 337 876 321.5 889.5 c 128,-1,104
 306 903 306 903 286 903 c 0,105,106
 270 903 270 903 234 900 c 0,107,108
 201 897 201 897 185 897 c 0,109,110
 165 897 165 897 124 903 c 0,111,112
 85 908 85 908 67 908 c 0,113,114
 44 908 44 908 32 897 c 128,-1,115
 20 886 20 886 20 869 c 0,116,117
 20 856 20 856 27 848.5 c 128,-1,118
 34 841 34 841 50 832 c 0,119,120
 64 823 64 823 72 815.5 c 128,-1,121
 80 808 80 808 83 795 c 0,122,123
 92 752 92 752 112 702.5 c 128,-1,124
 132 653 132 653 159 601.5 c 128,-1,125
 186 550 186 550 216.5 499.5 c 128,-1,126
 247 449 247 449 289 381 c 1,127,128
 279 367 279 367 261 339 c 0,129,130
 207 251 207 251 165 164 c 128,-1,131
 123 77 123 77 102 14 c 0,132,133
 94 -9 94 -9 84 -16 c 128,-1,134
 74 -23 74 -23 59 -25 c 0,135,136
 39 -27 39 -27 30 -42.5 c 128,-1,137
 21 -58 21 -58 21 -115 c 0,138,139
 21 -134 21 -134 40.5 -142 c 128,-1,140
 60 -150 60 -150 80 -150 c 0,141,142
 95 -150 95 -150 135 -145 c 0,143,144
 161 -142 161 -142 168 -142 c 256,0,1
EndSplineSet
Validated: 9
EndChar

StartChar: Y
Encoding: 89 89 49
Width: 763
Flags: W
LayerCount: 2
Fore
SplineSet
384 -142 m 256,0,1
 394 -142 394 -142 429 -146 c 0,2,3
 474 -150 474 -150 492 -150 c 0,4,5
 517 -150 517 -150 541.5 -143.5 c 128,-1,6
 566 -137 566 -137 566 -122 c 0,7,8
 566 -97 566 -97 556.5 -84.5 c 128,-1,9
 547 -72 547 -72 526 -58 c 0,10,11
 497 -40 497 -40 482 -17 c 128,-1,12
 467 6 467 6 467 59 c 2,13,-1
 467 368 l 1,14,15
 494 393 494 393 519.5 432.5 c 128,-1,16
 545 472 545 472 568.5 519.5 c 128,-1,17
 592 567 592 567 612 616.5 c 128,-1,18
 632 666 632 666 651 722 c 0,19,20
 665 766 665 766 682 788.5 c 128,-1,21
 699 811 699 811 720 829 c 0,22,23
 733 839 733 839 738 846 c 128,-1,24
 743 853 743 853 743 864 c 0,25,26
 743 886 743 886 727.5 893.5 c 128,-1,27
 712 901 712 901 691 901 c 0,28,29
 677 901 677 901 645 898 c 0,30,31
 619 896 619 896 608 896 c 0,32,33
 601 896 601 896 583 898 c 0,34,35
 553 901 553 901 536 901 c 0,36,37
 510 900 510 900 497 888.5 c 128,-1,38
 484 877 484 877 484 866 c 0,39,40
 484 848 484 848 491 838.5 c 128,-1,41
 498 829 498 829 512 820 c 0,42,43
 527 811 527 811 534.5 800.5 c 128,-1,44
 542 790 542 790 542 768 c 0,45,46
 542 732 542 732 525 681 c 128,-1,47
 508 630 508 630 485 582.5 c 128,-1,48
 462 535 462 535 442 498 c 128,-1,49
 422 461 422 461 416 452 c 1,50,51
 416 458 416 458 407.5 475.5 c 128,-1,52
 399 493 399 493 380 526 c 0,53,54
 363 557 363 557 352 579 c 0,55,56
 328 629 328 629 310 683 c 128,-1,57
 292 737 292 737 292 773 c 0,58,59
 292 795 292 795 300 806 c 128,-1,60
 308 817 308 817 324 827 c 0,61,62
 339 836 339 836 346 845 c 128,-1,63
 353 854 353 854 353 872 c 0,64,65
 353 886 353 886 343 896.5 c 128,-1,66
 333 907 333 907 305 907 c 0,67,68
 286 907 286 907 240 904 c 256,69,70
 194 901 194 901 176 901 c 0,71,72
 161 901 161 901 130 906 c 0,73,74
 93 911 93 911 70 911 c 0,75,76
 44 911 44 911 32 905 c 128,-1,77
 20 899 20 899 20 875 c 0,78,79
 20 859 20 859 27 851 c 128,-1,80
 34 843 34 843 45 840 c 0,81,82
 53 838 53 838 64 829.5 c 128,-1,83
 75 821 75 821 79 810 c 0,84,85
 100 750 100 750 124.5 685.5 c 128,-1,86
 149 621 149 621 176.5 558 c 128,-1,87
 204 495 204 495 234 441 c 128,-1,88
 264 387 264 387 292 354 c 1,89,-1
 292 49 l 2,90,91
 292 6 292 6 282.5 -9.5 c 128,-1,92
 273 -25 273 -25 254 -35 c 0,93,94
 234 -45 234 -45 224.5 -61 c 128,-1,95
 215 -77 215 -77 215 -121 c 0,96,97
 215 -136 215 -136 236 -143 c 128,-1,98
 257 -150 257 -150 279 -150 c 0,99,100
 297 -150 297 -150 341 -145 c 0,101,102
 374 -142 374 -142 384 -142 c 256,0,1
EndSplineSet
Validated: 9
EndChar

StartChar: Z
Encoding: 90 90 50
Width: 659
Flags: W
LayerCount: 2
Fore
SplineSet
202 368 m 256,0,1
 162 293 162 293 133 235.5 c 128,-1,2
 104 178 104 178 78 116.5 c 128,-1,3
 52 55 52 55 36 -4 c 128,-1,4
 20 -63 20 -63 20 -111 c 0,5,6
 20 -126 20 -126 43 -138 c 128,-1,7
 66 -150 66 -150 85 -150 c 0,8,9
 114 -150 114 -150 163 -142 c 0,10,11
 200 -135 200 -135 218 -135 c 2,12,-1
 241 -135 l 2,13,14
 286 -135 286 -135 379 -142 c 0,15,16
 474 -150 474 -150 524 -150 c 0,17,18
 563 -150 563 -150 587 -126 c 128,-1,19
 611 -102 611 -102 622 -64.5 c 128,-1,20
 633 -27 633 -27 636 12 c 128,-1,21
 639 51 639 51 639 96 c 0,22,23
 639 111 639 111 637 127.5 c 128,-1,24
 635 144 635 144 628 161 c 128,-1,25
 621 178 621 178 608 189 c 128,-1,26
 595 200 595 200 575 200 c 0,27,28
 550 200 550 200 539.5 178.5 c 128,-1,29
 529 157 529 157 520 112 c 0,30,31
 513 75 513 75 506 54 c 128,-1,32
 499 33 499 33 484 21 c 0,33,34
 445 -8 445 -8 395 -17.5 c 128,-1,35
 345 -27 345 -27 285 -27 c 2,36,-1
 242 -27 l 1,37,38
 240 -23 240 -23 240 -13 c 0,39,40
 240 11 240 11 257.5 59 c 128,-1,41
 275 107 275 107 302 165.5 c 128,-1,42
 329 224 329 224 361.5 286.5 c 128,-1,43
 394 349 394 349 422 399 c 0,44,45
 430 413 430 413 434 420 c 0,46,47
 475 494 475 494 505.5 550 c 128,-1,48
 536 606 536 606 564.5 664.5 c 128,-1,49
 593 723 593 723 610.5 773.5 c 128,-1,50
 628 824 628 824 628 857 c 0,51,52
 628 869 628 869 613 885 c 128,-1,53
 598 901 598 901 572 901 c 0,54,55
 554 901 554 901 526 898 c 0,56,57
 505 896 505 896 492 896 c 0,58,59
 441 896 441 896 338 903 c 0,60,61
 233 911 233 911 180 911 c 0,62,63
 96 911 96 911 67 876 c 128,-1,64
 38 841 38 841 38 753 c 0,65,66
 38 731 38 731 41.5 704.5 c 128,-1,67
 45 678 45 678 53 652.5 c 128,-1,68
 61 627 61 627 76 610 c 128,-1,69
 91 593 91 593 113 593 c 0,70,71
 128 593 128 593 135.5 610 c 128,-1,72
 143 627 143 627 150 664 c 0,73,74
 156 693 156 693 161.5 709.5 c 128,-1,75
 167 726 167 726 176 735 c 0,76,77
 212 766 212 766 253.5 780.5 c 128,-1,78
 295 795 295 795 339 795 c 0,79,80
 369 795 369 795 386 791.5 c 128,-1,81
 403 788 403 788 416 780 c 1,82,83
 416 771 416 771 388.5 718 c 128,-1,84
 361 665 361 665 296 544 c 0,85,86
 242 443 242 443 202 368 c 256,0,1
EndSplineSet
Validated: 9
EndChar

StartChar: underscore
Encoding: 95 95 51
Width: 181
Flags: W
LayerCount: 2
Fore
SplineSet
0 -17 m 1,0,-1
 0 -34 l 1,1,-1
 190 -34 l 1,2,-1
 190 -17 l 1,3,-1
 0 -17 l 1,0,-1
EndSplineSet
Validated: 9
EndChar

StartChar: grave
Encoding: 96 96 52
Width: 231
Flags: W
LayerCount: 2
Fore
SplineSet
20 768 m 1,0,-1
 79 679 l 2,1,2
 93 658 93 658 117 641 c 128,-1,3
 141 624 141 624 168 624 c 0,4,5
 187 624 187 624 199 632 c 128,-1,6
 211 640 211 640 211 648 c 0,7,8
 211 658 211 658 197 685 c 2,9,-1
 157 768 l 1,10,-1
 20 768 l 1,0,-1
EndSplineSet
Validated: 9
EndChar

StartChar: a
Encoding: 97 97 53
Width: 623
Flags: W
LayerCount: 2
Fore
SplineSet
507 159 m 2,0,-1
 507 392 l 2,1,2
 507 432 507 432 489 462 c 128,-1,3
 471 492 471 492 443 511 c 128,-1,4
 415 530 415 530 386 538.5 c 128,-1,5
 357 547 357 547 334 547 c 0,6,7
 306 547 306 547 266 534 c 128,-1,8
 226 521 226 521 188 496.5 c 128,-1,9
 150 472 150 472 125 437 c 128,-1,10
 100 402 100 402 100 360 c 0,11,12
 100 336 100 336 111 297 c 1,13,14
 65 262 65 262 42.5 216.5 c 128,-1,15
 20 171 20 171 20 125 c 0,16,17
 20 106 20 106 26.5 83.5 c 128,-1,18
 33 61 33 61 49.5 39.5 c 128,-1,19
 66 18 66 18 96 3.5 c 128,-1,20
 126 -11 126 -11 170 -11 c 0,21,22
 212 -11 212 -11 260.5 4.5 c 128,-1,23
 309 20 309 20 344 43 c 1,24,25
 347 36 347 36 358 25 c 2,26,-1
 384 -2 l 2,27,28
 387 -7 387 -7 399.5 -9.5 c 128,-1,29
 412 -12 412 -12 421 -12 c 0,30,31
 431 -12 431 -12 436.5 -10 c 128,-1,32
 442 -8 442 -8 452 -3 c 2,33,-1
 579 54 l 2,34,35
 591 62 591 62 597 69 c 128,-1,36
 603 76 603 76 603 87 c 0,37,38
 603 90 603 90 591 99 c 128,-1,39
 579 108 579 108 566 108 c 0,40,41
 552 108 552 108 541.5 105 c 128,-1,42
 531 102 531 102 525 99 c 0,43,44
 523 98 523 98 523 98 c 2,45,46
 516 98 516 98 511.5 111.5 c 128,-1,47
 507 125 507 125 507 159 c 2,0,-1
202 375 m 0,48,49
 202 415 202 415 229.5 434 c 128,-1,50
 257 453 257 453 290 453 c 0,51,52
 318 453 318 453 329.5 438 c 128,-1,53
 341 423 341 423 343 375 c 1,54,55
 262 369 262 369 204 347 c 1,56,57
 202 365 202 365 202 375 c 0,48,49
260 88 m 0,58,59
 222 88 222 88 208.5 102 c 128,-1,60
 195 116 195 116 195 157 c 0,61,62
 195 179 195 179 206.5 203.5 c 128,-1,63
 218 228 218 228 238.5 251 c 128,-1,64
 259 274 259 274 286 290.5 c 128,-1,65
 313 307 313 307 343 313 c 1,66,-1
 343 138 l 1,67,68
 307 88 307 88 260 88 c 0,58,59
EndSplineSet
Validated: 9
EndChar

StartChar: b
Encoding: 98 98 54
Width: 629
Flags: W
LayerCount: 2
Fore
SplineSet
389 546 m 0,0,1
 363 546 363 546 334.5 538 c 128,-1,2
 306 530 306 530 279 516 c 1,3,-1
 279 690 l 2,4,5
 279 708 279 708 259 725 c 2,6,-1
 212 765 l 2,7,8
 207 767 207 767 197 770.5 c 128,-1,9
 187 774 187 774 177 774 c 0,10,11
 168 774 168 774 159 771.5 c 128,-1,12
 150 769 150 769 150 768 c 2,13,-1
 52 721 l 2,14,15
 38 715 38 715 29 708.5 c 128,-1,16
 20 702 20 702 20 695 c 0,17,18
 20 690 20 690 32 682 c 128,-1,19
 44 674 44 674 59 674 c 0,20,21
 77 674 77 674 91 678 c 0,22,23
 92 678 92 678 92 678 c 2,24,25
 98 678 98 678 106 663.5 c 128,-1,26
 114 649 114 649 114 622 c 2,27,-1
 114 130 l 2,28,29
 114 113 114 113 116.5 102 c 128,-1,30
 119 91 119 91 126 80 c 0,31,32
 146 48 146 48 207 13 c 0,33,34
 218 6 218 6 241.5 -2 c 128,-1,35
 265 -10 265 -10 286 -10 c 0,36,37
 327 -10 327 -10 372.5 13.5 c 128,-1,38
 418 37 418 37 460 74 c 0,39,40
 528 133 528 133 568.5 199 c 128,-1,41
 609 265 609 265 609 336 c 0,42,43
 609 392 609 392 590.5 432.5 c 128,-1,44
 572 473 572 473 540.5 498 c 128,-1,45
 509 523 509 523 470 534.5 c 128,-1,46
 431 546 431 546 389 546 c 0,0,1
279 419 m 1,47,48
 293 441 293 441 310 450 c 128,-1,49
 327 459 327 459 353 459 c 0,50,51
 385 459 385 459 410 416.5 c 128,-1,52
 435 374 435 374 435 295 c 0,53,54
 435 249 435 249 425 210 c 128,-1,55
 415 171 415 171 398.5 143 c 128,-1,56
 382 115 382 115 364.5 100 c 128,-1,57
 347 85 347 85 333 85 c 0,58,59
 329 85 329 85 326.5 85.5 c 128,-1,60
 324 86 324 86 315 89 c 0,61,62
 298 97 298 97 288.5 128 c 128,-1,63
 279 159 279 159 279 192 c 2,64,-1
 279 419 l 1,47,48
EndSplineSet
Validated: 9
EndChar

StartChar: c
Encoding: 99 99 55
Width: 553
Flags: W
LayerCount: 2
Fore
SplineSet
257 447 m 0,0,1
 270 447 270 447 290 443.5 c 128,-1,2
 310 440 310 440 330 432 c 128,-1,3
 350 424 350 424 365 411.5 c 128,-1,4
 380 399 380 399 383 382 c 0,5,6
 383 381 383 381 383 378 c 0,7,8
 384 370 384 370 385 360 c 128,-1,9
 386 350 386 350 390 340 c 128,-1,10
 394 330 394 330 402.5 323 c 128,-1,11
 411 316 411 316 424 316 c 0,12,13
 460 317 460 317 481 355 c 128,-1,14
 502 393 502 393 502 433 c 0,15,16
 502 462 502 462 491 483.5 c 128,-1,17
 480 505 480 505 443 522 c 0,18,19
 420 531 420 531 369 539 c 128,-1,20
 318 547 318 547 271 547 c 0,21,22
 220 547 220 547 181 519.5 c 128,-1,23
 142 492 142 492 104 446 c 0,24,25
 65 398 65 398 42.5 354 c 128,-1,26
 20 310 20 310 20 264 c 0,27,28
 20 191 20 191 43 138 c 128,-1,29
 66 85 66 85 103.5 52 c 128,-1,30
 141 19 141 19 187 4 c 128,-1,31
 233 -11 233 -11 280 -11 c 0,32,33
 328 -11 328 -11 365.5 -1 c 128,-1,34
 403 9 403 9 432 28 c 0,35,36
 480 59 480 59 514 122 c 0,37,38
 525 142 525 142 529 153.5 c 128,-1,39
 533 165 533 165 533 173 c 256,40,41
 533 181 533 181 523 189.5 c 128,-1,42
 513 198 513 198 495 198 c 0,43,44
 470 198 470 198 453 185.5 c 128,-1,45
 436 173 436 173 420 153 c 0,46,47
 416 148 416 148 415 147 c 0,48,49
 390 114 390 114 363 101.5 c 128,-1,50
 336 89 336 89 308 89 c 0,51,52
 289 89 289 89 265 105.5 c 128,-1,53
 241 122 241 122 219.5 150.5 c 128,-1,54
 198 179 198 179 184.5 215 c 128,-1,55
 171 251 171 251 171 288 c 0,56,57
 171 364 171 364 194 405.5 c 128,-1,58
 217 447 217 447 257 447 c 0,0,1
EndSplineSet
Validated: 9
EndChar

StartChar: d
Encoding: 100 100 56
Width: 640
Flags: W
LayerCount: 2
Fore
SplineSet
344 564 m 0,0,1
 318 564 318 564 288.5 553.5 c 128,-1,2
 259 543 259 543 231.5 526 c 128,-1,3
 204 509 204 509 179.5 489.5 c 128,-1,4
 155 470 155 470 136 451 c 0,5,6
 115 431 115 431 94.5 405 c 128,-1,7
 74 379 74 379 57 349 c 128,-1,8
 40 319 40 319 30 285.5 c 128,-1,9
 20 252 20 252 20 219 c 0,10,11
 20 147 20 147 47.5 101.5 c 128,-1,12
 75 56 75 56 114.5 33.5 c 128,-1,13
 154 11 154 11 189.5 3.5 c 128,-1,14
 225 -4 225 -4 251 -4 c 0,15,16
 285 -4 285 -4 319.5 10 c 128,-1,17
 354 24 354 24 382 45 c 1,18,-1
 385 42 l 1,19,-1
 436 2 l 2,20,21
 439 -1 439 -1 450.5 -4 c 128,-1,22
 462 -7 462 -7 471 -7 c 0,23,24
 485 -7 485 -7 497 -1 c 2,25,-1
 591 56 l 2,26,27
 607 67 607 67 613.5 74 c 128,-1,28
 620 81 620 81 620 92 c 0,29,30
 620 95 620 95 608.5 104.5 c 128,-1,31
 597 114 597 114 583 114 c 256,32,33
 569 114 569 114 559 110.5 c 128,-1,34
 549 107 549 107 543 104 c 0,35,36
 541 103 541 103 541 103 c 2,37,38
 533 103 533 103 528.5 117 c 128,-1,39
 524 131 524 131 524 165 c 2,40,-1
 524 692 l 2,41,42
 524 710 524 710 504 727 c 2,43,-1
 457 767 l 2,44,45
 452 769 452 769 442 772.5 c 128,-1,46
 432 776 432 776 422 776 c 0,47,48
 413 776 413 776 404 773.5 c 128,-1,49
 395 771 395 771 395 770 c 2,50,-1
 297 723 l 2,51,52
 283 717 283 717 274 710.5 c 128,-1,53
 265 704 265 704 265 697 c 0,54,55
 265 692 265 692 277 684 c 128,-1,56
 289 676 289 676 304 676 c 0,57,58
 322 676 322 676 337 680 c 0,59,60
 338 680 338 680 338 680 c 2,61,62
 344 680 344 680 351.5 665.5 c 128,-1,63
 359 651 359 651 359 624 c 2,64,-1
 359 563 l 1,65,66
 354 564 354 564 344 564 c 0,0,1
304 470 m 0,67,68
 319 470 319 470 339 449.5 c 128,-1,69
 359 429 359 429 359 395 c 2,70,-1
 359 140 l 2,71,72
 359 118 359 118 331.5 106.5 c 128,-1,73
 304 95 304 95 272 95 c 0,74,75
 246 95 246 95 218.5 141 c 128,-1,76
 191 187 191 187 191 258 c 0,77,78
 191 296 191 296 201 334 c 128,-1,79
 211 372 211 372 227.5 403 c 128,-1,80
 244 434 244 434 264 452 c 128,-1,81
 284 470 284 470 304 470 c 0,67,68
EndSplineSet
Validated: 9
EndChar

StartChar: e
Encoding: 101 101 57
Width: 562
Flags: W
LayerCount: 2
Fore
SplineSet
522 430 m 0,0,1
 473 494 473 494 418 524 c 128,-1,2
 363 554 363 554 278 554 c 0,3,4
 228 554 228 554 184.5 524 c 128,-1,5
 141 494 141 494 104 449 c 0,6,7
 65 401 65 401 42.5 357 c 128,-1,8
 20 313 20 313 20 267 c 0,9,10
 20 195 20 195 46.5 141.5 c 128,-1,11
 73 88 73 88 114.5 54.5 c 128,-1,12
 156 21 156 21 202.5 5.5 c 128,-1,13
 249 -10 249 -10 290 -10 c 0,14,15
 372 -10 372 -10 437.5 33.5 c 128,-1,16
 503 77 503 77 532 145 c 0,17,18
 542 174 542 174 542 183 c 256,19,20
 542 192 542 192 531.5 200 c 128,-1,21
 521 208 521 208 502 208 c 0,22,23
 482 208 482 208 457.5 191.5 c 128,-1,24
 433 175 433 175 420 153 c 0,25,26
 404 124 404 124 377.5 109.5 c 128,-1,27
 351 95 351 95 323 95 c 0,28,29
 297 95 297 95 263 126 c 128,-1,30
 229 157 229 157 203 208 c 1,31,32
 262 248 262 248 321.5 277 c 128,-1,33
 381 306 381 306 454 334 c 0,34,35
 461 336 461 336 471 339 c 0,36,37
 504 349 504 349 521.5 360.5 c 128,-1,38
 539 372 539 372 539 396 c 0,39,40
 539 402 539 402 535.5 409.5 c 128,-1,41
 532 417 532 417 522 430 c 0,0,1
257 450 m 0,42,43
 296 450 296 450 363 374 c 1,44,45
 320 349 320 349 276 328.5 c 128,-1,46
 232 308 232 308 182 287 c 1,47,48
 181 294 181 294 181 308 c 0,49,50
 181 343 181 343 188 373 c 0,51,52
 199 414 199 414 215.5 432 c 128,-1,53
 232 450 232 450 257 450 c 0,42,43
EndSplineSet
Validated: 9
EndChar

StartChar: f
Encoding: 102 102 58
Width: 469
Flags: W
LayerCount: 2
Fore
SplineSet
68 466 m 0,0,1
 79 466 79 466 84 467 c 1,2,-1
 84 463 l 1,3,-1
 84 -60 l 2,4,5
 84 -68 84 -68 82.5 -88.5 c 128,-1,6
 81 -109 81 -109 80 -125 c 128,-1,7
 79 -141 79 -141 77 -159 c 128,-1,8
 75 -177 75 -177 74 -177 c 0,9,10
 33 -202 33 -202 33 -220 c 0,11,12
 33 -230 33 -230 45.5 -238 c 128,-1,13
 58 -246 58 -246 76 -246 c 0,14,15
 91 -246 91 -246 108.5 -239.5 c 128,-1,16
 126 -233 126 -233 151 -221 c 0,17,18
 179 -207 179 -207 192 -203 c 0,19,20
 210 -196 210 -196 253 -190 c 0,21,22
 294 -184 294 -184 313.5 -176 c 128,-1,23
 333 -168 333 -168 333 -146 c 0,24,25
 333 -134 333 -134 318.5 -124.5 c 128,-1,26
 304 -115 304 -115 283 -113 c 0,27,28
 259 -112 259 -112 254 -106 c 128,-1,29
 249 -100 249 -100 249 -70 c 2,30,-1
 249 -47 l 1,31,-1
 249 456 l 2,32,33
 249 477 249 477 250 478 c 2,34,-1
 271 478 l 2,35,36
 297 478 297 478 320 488.5 c 128,-1,37
 343 499 343 499 343 513 c 0,38,39
 343 528 343 528 324 534 c 128,-1,40
 305 540 305 540 287 540 c 2,41,-1
 246 540 l 2,42,43
 249 542 249 542 249 550 c 2,44,-1
 249 635 l 2,45,46
 249 672 249 672 260 688 c 128,-1,47
 271 704 271 704 286 704 c 0,48,49
 303 704 303 704 307.5 681 c 128,-1,50
 312 658 312 658 312 619 c 0,51,52
 312 601 312 601 324 587.5 c 128,-1,53
 336 574 336 574 360 574 c 0,54,55
 382 574 382 574 395 587.5 c 128,-1,56
 408 601 408 601 415 619 c 0,57,58
 427 647 427 647 438 680 c 128,-1,59
 449 713 449 713 449 722 c 0,60,61
 449 749 449 749 416.5 764 c 128,-1,62
 384 779 384 779 339 779 c 0,63,64
 314 779 314 779 276.5 773 c 128,-1,65
 239 767 239 767 194 744.5 c 128,-1,66
 149 722 149 722 116.5 672 c 128,-1,67
 84 622 84 622 84 541 c 2,68,-1
 84 537 l 2,69,70
 84 534 84 534 91 534 c 1,71,72
 53 531 53 531 36.5 520 c 128,-1,73
 20 509 20 509 20 494 c 0,74,75
 20 487 20 487 32.5 476.5 c 128,-1,76
 45 466 45 466 68 466 c 0,0,1
EndSplineSet
Validated: 9
EndChar

StartChar: g
Encoding: 103 103 59
Width: 574
Flags: W
LayerCount: 2
Fore
SplineSet
377 549 m 0,0,1
 350 549 350 549 320.5 539 c 128,-1,2
 291 529 291 529 262.5 511.5 c 128,-1,3
 234 494 234 494 208.5 473 c 128,-1,4
 183 452 183 452 160 428 c 0,5,6
 106 372 106 372 77 326 c 128,-1,7
 48 280 48 280 48 233 c 0,8,9
 48 88 48 88 152 34 c 1,10,11
 90 10 90 10 55 -32 c 128,-1,12
 20 -74 20 -74 20 -118 c 0,13,14
 20 -168 20 -168 44.5 -201 c 128,-1,15
 69 -234 69 -234 108.5 -250.5 c 128,-1,16
 148 -267 148 -267 192.5 -273 c 128,-1,17
 237 -279 237 -279 287 -279 c 0,18,19
 341 -279 341 -279 390 -266 c 128,-1,20
 439 -253 439 -253 476 -230 c 128,-1,21
 513 -207 513 -207 533.5 -178 c 128,-1,22
 554 -149 554 -149 554 -118 c 0,23,24
 554 -76 554 -76 552 -42 c 128,-1,25
 550 -8 550 -8 546 33 c 0,26,27
 541 92 541 92 538 138.5 c 128,-1,28
 535 185 535 185 535 258 c 0,29,30
 535 290 535 290 545 349 c 0,31,32
 553 396 553 396 553 418 c 0,33,34
 553 431 553 431 538.5 451 c 128,-1,35
 524 471 524 471 499 497 c 0,36,37
 477 518 477 518 445 533.5 c 128,-1,38
 413 549 413 549 377 549 c 0,0,1
388 -106 m 0,39,40
 388 -147 388 -147 357 -176 c 128,-1,41
 326 -205 326 -205 287 -205 c 0,42,43
 249 -205 249 -205 225.5 -183.5 c 128,-1,44
 202 -162 202 -162 202 -122 c 0,45,46
 202 -74 202 -74 216 -51 c 0,47,48
 227 -34 227 -34 248.5 -20.5 c 128,-1,49
 270 -7 270 -7 305 3 c 0,50,51
 349 18 349 18 375 30 c 1,52,53
 380 6 380 6 384 -36 c 128,-1,54
 388 -78 388 -78 388 -106 c 0,39,40
344 451 m 0,55,56
 360 451 360 451 372.5 435 c 128,-1,57
 385 419 385 419 385 384 c 0,58,59
 385 372 385 372 383 355.5 c 128,-1,60
 381 339 381 339 377 315 c 0,61,62
 370 272 370 272 370 258 c 0,63,64
 370 230 370 230 372 183 c 0,65,66
 374 149 374 149 374 134 c 0,67,68
 374 106 374 106 362.5 96.5 c 128,-1,69
 351 87 351 87 321 87 c 0,70,71
 279 87 279 87 250 126 c 128,-1,72
 221 165 221 165 221 241 c 0,73,74
 221 281 221 281 230.5 319 c 128,-1,75
 240 357 240 357 257.5 387 c 128,-1,76
 275 417 275 417 297.5 434 c 128,-1,77
 320 451 320 451 344 451 c 0,55,56
EndSplineSet
Validated: 9
EndChar

StartChar: h
Encoding: 104 104 60
Width: 706
Flags: W
LayerCount: 2
Fore
SplineSet
115 622 m 2,0,-1
 115 92 l 2,1,2
 115 74 115 74 122.5 61.5 c 128,-1,3
 130 49 130 49 140 40 c 2,4,-1
 191 0 l 2,5,6
 194 -3 194 -3 205.5 -6 c 128,-1,7
 217 -9 217 -9 226 -9 c 0,8,9
 241 -9 241 -9 253 -3 c 2,10,-1
 346 54 l 2,11,12
 376 74 376 74 376 90 c 0,13,14
 376 93 376 93 364 102.5 c 128,-1,15
 352 112 352 112 338 112 c 256,16,17
 324 112 324 112 314 108.5 c 128,-1,18
 304 105 304 105 298 102 c 0,19,20
 296 101 296 101 296 101 c 2,21,22
 288 101 288 101 283.5 115 c 128,-1,23
 279 129 279 129 279 163 c 2,24,-1
 279 401 l 1,25,26
 289 408 289 408 308 424 c 0,27,28
 325 439 325 439 336 446.5 c 128,-1,29
 347 454 347 454 358 454 c 0,30,31
 381 454 381 454 403 434.5 c 128,-1,32
 425 415 425 415 425 377 c 2,33,-1
 425 91 l 2,34,35
 425 73 425 73 432.5 61 c 128,-1,36
 440 49 440 49 451 39 c 2,37,-1
 502 -1 l 2,38,39
 505 -4 505 -4 516 -7 c 128,-1,40
 527 -10 527 -10 536 -10 c 0,41,42
 551 -10 551 -10 563 -4 c 2,43,-1
 656 53 l 2,44,45
 686 73 686 73 686 89 c 0,46,47
 686 92 686 92 674 101.5 c 128,-1,48
 662 111 662 111 648 111 c 256,49,50
 634 111 634 111 624 107.5 c 128,-1,51
 614 104 614 104 608 101 c 0,52,53
 606 100 606 100 606 100 c 2,54,55
 598 100 598 100 593.5 114 c 128,-1,56
 589 128 589 128 589 162 c 2,57,-1
 589 378 l 2,58,59
 589 401 589 401 572 431 c 128,-1,60
 555 461 555 461 526 487.5 c 128,-1,61
 497 514 497 514 463 531 c 128,-1,62
 429 548 429 548 396 548 c 0,63,64
 362 548 362 548 335 534.5 c 128,-1,65
 308 521 308 521 279 497 c 1,66,-1
 279 690 l 2,67,68
 279 708 279 708 259 725 c 2,69,-1
 212 765 l 2,70,71
 207 767 207 767 197 770.5 c 128,-1,72
 187 774 187 774 178 774 c 256,73,74
 169 774 169 774 159.5 771.5 c 128,-1,75
 150 769 150 769 150 768 c 2,76,-1
 53 721 l 2,77,78
 38 715 38 715 29 708.5 c 128,-1,79
 20 702 20 702 20 695 c 0,80,81
 20 690 20 690 32 682 c 128,-1,82
 44 674 44 674 59 674 c 0,83,84
 77 674 77 674 92 678 c 0,85,86
 93 678 93 678 93 678 c 2,87,88
 99 678 99 678 107 663.5 c 128,-1,89
 115 649 115 649 115 622 c 2,0,-1
EndSplineSet
Validated: 9
EndChar

StartChar: i
Encoding: 105 105 61
Width: 395
Flags: W
LayerCount: 2
Fore
SplineSet
279 161 m 2,0,-1
 279 464 l 2,1,2
 279 482 279 482 259 499 c 2,3,-1
 212 539 l 2,4,5
 207 541 207 541 197 544.5 c 128,-1,6
 187 548 187 548 177 548 c 0,7,8
 168 548 168 548 159 545.5 c 128,-1,9
 150 543 150 543 150 542 c 2,10,-1
 52 495 l 2,11,12
 38 489 38 489 29 482.5 c 128,-1,13
 20 476 20 476 20 469 c 0,14,15
 20 464 20 464 32 456 c 128,-1,16
 44 448 44 448 59 448 c 0,17,18
 78 448 78 448 92 453 c 1,19,-1
 93 453 l 2,20,21
 99 453 99 453 106.5 438 c 128,-1,22
 114 423 114 423 114 397 c 2,23,-1
 114 90 l 2,24,25
 114 72 114 72 121.5 60 c 128,-1,26
 129 48 129 48 140 38 c 2,27,-1
 191 -2 l 2,28,29
 194 -5 194 -5 205.5 -8 c 128,-1,30
 217 -11 217 -11 226 -11 c 0,31,32
 240 -11 240 -11 252 -5 c 2,33,-1
 346 52 l 2,34,35
 362 63 362 63 368.5 70.5 c 128,-1,36
 375 78 375 78 375 88 c 0,37,38
 375 91 375 91 363 100.5 c 128,-1,39
 351 110 351 110 338 110 c 0,40,41
 324 110 324 110 313.5 106.5 c 128,-1,42
 303 103 303 103 297 100 c 0,43,44
 295 99 295 99 295 99 c 2,45,46
 288 99 288 99 283.5 113 c 128,-1,47
 279 127 279 127 279 161 c 2,0,-1
186 742 m 0,48,49
 152 742 152 742 127 720 c 128,-1,50
 102 698 102 698 102 668 c 0,51,52
 102 654 102 654 109.5 638 c 128,-1,53
 117 622 117 622 130 608.5 c 128,-1,54
 143 595 143 595 158 586.5 c 128,-1,55
 173 578 173 578 186 578 c 0,56,57
 201 578 201 578 215.5 586.5 c 128,-1,58
 230 595 230 595 241.5 609 c 128,-1,59
 253 623 253 623 260 639 c 128,-1,60
 267 655 267 655 267 669 c 0,61,62
 267 699 267 699 244 720.5 c 128,-1,63
 221 742 221 742 186 742 c 0,48,49
EndSplineSet
Validated: 9
EndChar

StartChar: j
Encoding: 106 106 62
Width: 320
Flags: W
LayerCount: 2
Fore
SplineSet
300 -55 m 2,0,-1
 300 464 l 2,1,2
 300 481 300 481 280 498 c 2,3,-1
 233 539 l 2,4,5
 228 541 228 541 218 544.5 c 128,-1,6
 208 548 208 548 198 548 c 0,7,8
 189 548 189 548 180 545.5 c 128,-1,9
 171 543 171 543 171 542 c 2,10,-1
 73 494 l 2,11,12
 59 488 59 488 50 481.5 c 128,-1,13
 41 475 41 475 41 469 c 0,14,15
 41 464 41 464 53 455.5 c 128,-1,16
 65 447 65 447 80 447 c 0,17,18
 99 447 99 447 113 452 c 1,19,-1
 114 452 l 2,20,21
 120 452 120 452 127.5 437 c 128,-1,22
 135 422 135 422 135 396 c 2,23,-1
 135 -2 l 2,24,25
 135 -28 135 -28 130 -45.5 c 128,-1,26
 125 -63 125 -63 117 -63 c 0,27,28
 116 -63 116 -63 110 -61 c 0,29,30
 87 -53 87 -53 67 -53 c 0,31,32
 52 -53 52 -53 36 -60.5 c 128,-1,33
 20 -68 20 -68 20 -75 c 0,34,35
 20 -89 20 -89 30 -95.5 c 128,-1,36
 40 -102 40 -102 60 -109 c 0,37,38
 76 -114 76 -114 83 -118 c 256,39,40
 90 -122 90 -122 99 -126 c 0,41,42
 129 -143 129 -143 153 -152.5 c 128,-1,43
 177 -162 177 -162 202 -162 c 0,44,45
 230 -162 230 -162 242.5 -155.5 c 128,-1,46
 255 -149 255 -149 262 -141 c 0,47,48
 263 -139 263 -139 264 -138 c 0,49,50
 284 -120 284 -120 292 -102 c 128,-1,51
 300 -84 300 -84 300 -55 c 2,0,-1
207 742 m 0,52,53
 173 742 173 742 147.5 720 c 128,-1,54
 122 698 122 698 122 668 c 0,55,56
 122 654 122 654 130 638 c 128,-1,57
 138 622 138 622 151 608 c 128,-1,58
 164 594 164 594 178.5 585.5 c 128,-1,59
 193 577 193 577 207 577 c 0,60,61
 222 577 222 577 236.5 585.5 c 128,-1,62
 251 594 251 594 262.5 608 c 128,-1,63
 274 622 274 622 281 638 c 128,-1,64
 288 654 288 654 288 669 c 0,65,66
 288 699 288 699 265 720.5 c 128,-1,67
 242 742 242 742 207 742 c 0,52,53
EndSplineSet
Validated: 9
EndChar

StartChar: k
Encoding: 107 107 63
Width: 704
Flags: W
LayerCount: 2
Fore
SplineSet
279 163 m 2,0,-1
 279 264 l 1,1,-1
 280 264 l 2,2,3
 290 264 290 264 307 251 c 128,-1,4
 324 238 324 238 347 205 c 0,5,6
 361 186 361 186 392 135 c 0,7,8
 420 87 420 87 439.5 58.5 c 128,-1,9
 459 30 459 30 480 10 c 0,10,11
 482 6 482 6 491.5 0 c 128,-1,12
 501 -6 501 -6 520 -6 c 0,13,14
 534 -6 534 -6 544 -2 c 128,-1,15
 554 2 554 2 562 8 c 2,16,-1
 661 70 l 2,17,18
 674 78 674 78 679 83.5 c 128,-1,19
 684 89 684 89 684 93 c 0,20,21
 684 101 684 101 675.5 110.5 c 128,-1,22
 667 120 667 120 646 120 c 0,23,24
 631 120 631 120 621.5 116.5 c 128,-1,25
 612 113 612 113 606 110 c 0,26,27
 605 109 605 109 605 109 c 1,28,29
 594 109 594 109 584.5 121 c 128,-1,30
 575 133 575 133 561 161 c 0,31,32
 539 201 539 201 524 221 c 0,33,34
 517 233 517 233 503 246 c 128,-1,35
 489 259 489 259 464 279 c 2,36,-1
 450 291 l 2,37,38
 450 293 450 293 450 297 c 2,39,-1
 447 299 l 2,40,41
 447 300 447 300 450 300 c 0,42,43
 511 322 511 322 547 353 c 128,-1,44
 583 384 583 384 583 416 c 0,45,46
 583 434 583 434 568.5 456.5 c 128,-1,47
 554 479 554 479 528 504 c 0,48,49
 511 522 511 522 487 536 c 128,-1,50
 463 550 463 550 440 550 c 0,51,52
 390 550 390 550 352 537.5 c 128,-1,53
 314 525 314 525 279 503 c 1,54,-1
 279 690 l 2,55,56
 279 708 279 708 259 725 c 2,57,-1
 212 765 l 2,58,59
 207 767 207 767 197 770.5 c 128,-1,60
 187 774 187 774 178 774 c 256,61,62
 169 774 169 774 159.5 771.5 c 128,-1,63
 150 769 150 769 150 768 c 2,64,-1
 53 721 l 2,65,66
 38 715 38 715 29 708.5 c 128,-1,67
 20 702 20 702 20 695 c 0,68,69
 20 690 20 690 32 682 c 128,-1,70
 44 674 44 674 59 674 c 0,71,72
 77 674 77 674 92 678 c 0,73,74
 93 678 93 678 93 678 c 2,75,76
 99 678 99 678 107 663.5 c 128,-1,77
 115 649 115 649 115 622 c 2,78,-1
 115 92 l 2,79,80
 115 74 115 74 122.5 61.5 c 128,-1,81
 130 49 130 49 140 40 c 2,82,-1
 191 0 l 2,83,84
 194 -3 194 -3 205.5 -6 c 128,-1,85
 217 -9 217 -9 226 -9 c 0,86,87
 241 -9 241 -9 253 -3 c 2,88,-1
 346 54 l 2,89,90
 376 74 376 74 376 90 c 0,91,92
 376 93 376 93 364 102.5 c 128,-1,93
 352 112 352 112 338 112 c 256,94,95
 324 112 324 112 314 108.5 c 128,-1,96
 304 105 304 105 298 102 c 0,97,98
 296 101 296 101 296 101 c 2,99,100
 288 101 288 101 283.5 115 c 128,-1,101
 279 129 279 129 279 163 c 2,0,-1
367 455 m 0,102,103
 388 455 388 455 401.5 443.5 c 128,-1,104
 415 432 415 432 415 396 c 0,105,106
 415 366 415 366 395.5 344.5 c 128,-1,107
 376 323 376 323 351 323 c 0,108,109
 302 323 302 323 290.5 325.5 c 128,-1,110
 279 328 279 328 279 339 c 2,111,-1
 279 381 l 1,112,113
 290 413 290 413 315 434 c 128,-1,114
 340 455 340 455 367 455 c 0,102,103
EndSplineSet
Validated: 9
EndChar

StartChar: l
Encoding: 108 108 64
Width: 395
Flags: W
LayerCount: 2
Fore
SplineSet
279 157 m 2,0,-1
 279 684 l 2,1,2
 279 702 279 702 259 719 c 2,3,-1
 212 759 l 2,4,5
 207 761 207 761 197 764.5 c 128,-1,6
 187 768 187 768 177 768 c 0,7,8
 168 768 168 768 159 765.5 c 128,-1,9
 150 763 150 763 150 762 c 2,10,-1
 52 715 l 2,11,12
 38 709 38 709 29 702.5 c 128,-1,13
 20 696 20 696 20 689 c 0,14,15
 20 684 20 684 32 676 c 128,-1,16
 44 668 44 668 59 668 c 0,17,18
 77 668 77 668 92 672 c 0,19,20
 93 672 93 672 93 672 c 2,21,22
 99 672 99 672 106.5 657.5 c 128,-1,23
 114 643 114 643 114 616 c 2,24,-1
 114 86 l 2,25,26
 114 68 114 68 121.5 56 c 128,-1,27
 129 44 129 44 140 34 c 2,28,-1
 191 -6 l 2,29,30
 194 -9 194 -9 205.5 -12 c 128,-1,31
 217 -15 217 -15 226 -15 c 0,32,33
 240 -15 240 -15 252 -9 c 2,34,-1
 346 48 l 2,35,36
 362 59 362 59 368.5 66.5 c 128,-1,37
 375 74 375 74 375 84 c 0,38,39
 375 87 375 87 363.5 96.5 c 128,-1,40
 352 106 352 106 338 106 c 0,41,42
 321 106 321 106 310.5 102 c 128,-1,43
 300 98 300 98 296 95 c 0,44,45
 288 95 288 95 283.5 109 c 128,-1,46
 279 123 279 123 279 157 c 2,0,-1
EndSplineSet
Validated: 9
EndChar

StartChar: m
Encoding: 109 109 65
Width: 964
Flags: W
LayerCount: 2
Fore
SplineSet
562 160 m 2,0,-1
 562 411 l 1,1,-1
 563 412 l 1,2,3
 576 434 576 434 589 446.5 c 128,-1,4
 602 459 602 459 622 459 c 0,5,6
 646 459 646 459 665.5 432.5 c 128,-1,7
 685 406 685 406 685 362 c 2,8,-1
 685 90 l 2,9,10
 685 71 685 71 692 59.5 c 128,-1,11
 699 48 699 48 710 38 c 2,12,-1
 761 -2 l 2,13,14
 764 -5 764 -5 775.5 -8 c 128,-1,15
 787 -11 787 -11 795 -11 c 0,16,17
 810 -11 810 -11 822 -5 c 2,18,-1
 915 52 l 2,19,20
 931 62 931 62 937.5 69.5 c 128,-1,21
 944 77 944 77 944 88 c 0,22,23
 944 91 944 91 932 100 c 128,-1,24
 920 109 920 109 907 109 c 0,25,26
 884 109 884 109 867 100 c 0,27,28
 865 99 865 99 865 99 c 2,29,30
 857 99 857 99 852.5 112.5 c 128,-1,31
 848 126 848 126 848 160 c 2,32,-1
 848 413 l 2,33,34
 848 423 848 423 834 446.5 c 128,-1,35
 820 470 820 470 796 494 c 128,-1,36
 772 518 772 518 739.5 534.5 c 128,-1,37
 707 551 707 551 671 551 c 0,38,39
 644 551 644 551 619.5 542.5 c 128,-1,40
 595 534 595 534 559 517 c 0,41,42
 524 499 524 499 505 493 c 1,43,44
 482 516 482 516 452 531.5 c 128,-1,45
 422 547 422 547 384 547 c 0,46,47
 355 547 355 547 330 537.5 c 128,-1,48
 305 528 305 528 273 510 c 0,49,50
 257 502 257 502 253 500 c 1,51,-1
 211 536 l 2,52,53
 206 538 206 538 196 541.5 c 128,-1,54
 186 545 186 545 177 545 c 256,55,56
 168 545 168 545 158.5 542.5 c 128,-1,57
 149 540 149 540 149 539 c 2,58,-1
 52 492 l 2,59,60
 37 486 37 486 28.5 480 c 128,-1,61
 20 474 20 474 20 467 c 0,62,63
 20 462 20 462 32 453.5 c 128,-1,64
 44 445 44 445 59 445 c 0,65,66
 78 445 78 445 91 450 c 1,67,-1
 92 450 l 2,68,69
 98 450 98 450 106 435.5 c 128,-1,70
 114 421 114 421 114 394 c 2,71,-1
 114 90 l 2,72,73
 114 72 114 72 120.5 61 c 128,-1,74
 127 50 127 50 138 40 c 1,75,-1
 139 38 l 1,76,-1
 190 -2 l 2,77,78
 193 -5 193 -5 204.5 -8 c 128,-1,79
 216 -11 216 -11 224 -11 c 0,80,81
 239 -11 239 -11 251 -5 c 2,82,-1
 344 52 l 2,83,84
 360 62 360 62 366.5 69.5 c 128,-1,85
 373 77 373 77 373 88 c 0,86,87
 373 91 373 91 361.5 100 c 128,-1,88
 350 109 350 109 336 109 c 256,89,90
 322 109 322 109 312 106 c 128,-1,91
 302 103 302 103 296 100 c 0,92,93
 294 99 294 99 294 99 c 2,94,95
 286 99 286 99 281.5 112.5 c 128,-1,96
 277 126 277 126 277 160 c 2,97,-1
 277 413 l 1,98,99
 288 432 288 432 301 443.5 c 128,-1,100
 314 455 314 455 335 455 c 0,101,102
 360 455 360 455 379.5 422.5 c 128,-1,103
 399 390 399 390 399 340 c 2,104,-1
 399 90 l 2,105,106
 399 71 399 71 406 59.5 c 128,-1,107
 413 48 413 48 424 38 c 2,108,-1
 475 -2 l 2,109,110
 478 -5 478 -5 489.5 -8 c 128,-1,111
 501 -11 501 -11 509 -11 c 0,112,113
 524 -11 524 -11 536 -5 c 2,114,-1
 629 52 l 2,115,116
 645 62 645 62 651.5 69.5 c 128,-1,117
 658 77 658 77 658 88 c 0,118,119
 658 91 658 91 646.5 100 c 128,-1,120
 635 109 635 109 621 109 c 256,121,122
 607 109 607 109 597 106 c 128,-1,123
 587 103 587 103 581 100 c 0,124,125
 579 99 579 99 579 99 c 2,126,127
 571 99 571 99 566.5 112.5 c 128,-1,128
 562 126 562 126 562 160 c 2,0,-1
268 490 m 1,129,-1
 265 490 l 1,130,-1
 268 490 l 1,129,-1
EndSplineSet
Validated: 9
EndChar

StartChar: n
Encoding: 110 110 66
Width: 707
Flags: W
LayerCount: 2
Fore
SplineSet
278 160 m 2,0,-1
 278 394 l 2,1,2
 281 398 281 398 286 404 c 0,3,4
 306 431 306 431 321.5 443.5 c 128,-1,5
 337 456 337 456 364 456 c 0,6,7
 388 456 388 456 407.5 427 c 128,-1,8
 427 398 427 398 427 353 c 2,9,-1
 427 91 l 2,10,11
 427 72 427 72 434.5 60.5 c 128,-1,12
 442 49 442 49 453 39 c 1,13,-1
 453 39 l 1,14,-1
 504 -1 l 2,15,16
 507 -4 507 -4 518 -7 c 128,-1,17
 529 -10 529 -10 538 -10 c 0,18,19
 554 -10 554 -10 564 -4 c 2,20,-1
 658 53 l 2,21,22
 674 63 674 63 680.5 70.5 c 128,-1,23
 687 78 687 78 687 89 c 0,24,25
 687 92 687 92 675 101 c 128,-1,26
 663 110 663 110 650 110 c 0,27,28
 627 110 627 110 610 101 c 0,29,30
 608 100 608 100 608 100 c 2,31,32
 600 100 600 100 595.5 113.5 c 128,-1,33
 591 127 591 127 591 161 c 2,34,-1
 591 409 l 2,35,36
 591 422 591 422 574.5 445.5 c 128,-1,37
 558 469 558 469 532.5 493 c 128,-1,38
 507 517 507 517 477.5 533.5 c 128,-1,39
 448 550 448 550 423 550 c 0,40,41
 372 550 372 550 341 538 c 128,-1,42
 310 526 310 526 280 505 c 0,43,44
 267 496 267 496 262 493 c 0,45,46
 261 494 261 494 261 494 c 2,47,48
 260 494 260 494 259 495 c 2,49,-1
 211 536 l 2,50,51
 206 538 206 538 196 541.5 c 128,-1,52
 186 545 186 545 177 545 c 256,53,54
 168 545 168 545 158.5 542.5 c 128,-1,55
 149 540 149 540 149 539 c 2,56,-1
 52 492 l 2,57,58
 37 486 37 486 28.5 480 c 128,-1,59
 20 474 20 474 20 467 c 0,60,61
 20 462 20 462 32 453.5 c 128,-1,62
 44 445 44 445 59 445 c 0,63,64
 78 445 78 445 92 450 c 1,65,-1
 93 450 l 2,66,67
 99 450 99 450 106.5 435 c 128,-1,68
 114 420 114 420 114 394 c 2,69,-1
 114 90 l 2,70,71
 114 71 114 71 121.5 59.5 c 128,-1,72
 129 48 129 48 140 38 c 1,73,-1
 140 38 l 1,74,-1
 190 -2 l 2,75,76
 193 -5 193 -5 204.5 -8 c 128,-1,77
 216 -11 216 -11 225 -11 c 0,78,79
 239 -11 239 -11 251 -5 c 2,80,-1
 344 52 l 2,81,82
 374 70 374 70 374 88 c 0,83,84
 374 91 374 91 362 100 c 128,-1,85
 350 109 350 109 336 109 c 256,86,87
 322 109 322 109 312 106 c 128,-1,88
 302 103 302 103 296 100 c 0,89,90
 294 99 294 99 294 99 c 2,91,92
 286 99 286 99 282 112 c 128,-1,93
 278 125 278 125 278 160 c 2,0,-1
EndSplineSet
Validated: 5
EndChar

StartChar: o
Encoding: 111 111 67
Width: 565
Flags: W
LayerCount: 2
Fore
SplineSet
280 544 m 0,0,1
 229 544 229 544 183.5 517.5 c 128,-1,2
 138 491 138 491 104 450 c 0,3,4
 65 402 65 402 42.5 358 c 128,-1,5
 20 314 20 314 20 268 c 0,6,7
 20 195 20 195 43 142 c 128,-1,8
 66 89 66 89 103.5 56 c 128,-1,9
 141 23 141 23 187 8 c 128,-1,10
 233 -7 233 -7 280 -7 c 0,11,12
 333 -7 333 -7 381.5 23 c 128,-1,13
 430 53 430 53 467 99.5 c 128,-1,14
 504 146 504 146 524.5 195.5 c 128,-1,15
 545 245 545 245 545 281 c 0,16,17
 545 407 545 407 469 475.5 c 128,-1,18
 393 544 393 544 280 544 c 0,0,1
258 451 m 0,19,20
 277 451 277 451 300 432.5 c 128,-1,21
 323 414 323 414 344 382.5 c 128,-1,22
 365 351 365 351 378.5 312.5 c 128,-1,23
 392 274 392 274 392 237 c 0,24,25
 392 165 392 165 366 129 c 128,-1,26
 340 93 340 93 308 93 c 0,27,28
 289 93 289 93 265.5 109.5 c 128,-1,29
 242 126 242 126 220.5 154.5 c 128,-1,30
 199 183 199 183 185 218.5 c 128,-1,31
 171 254 171 254 171 291 c 0,32,33
 171 368 171 368 194 409.5 c 128,-1,34
 217 451 217 451 258 451 c 0,19,20
EndSplineSet
Validated: 9
EndChar

StartChar: p
Encoding: 112 112 68
Width: 640
Flags: W
LayerCount: 2
Fore
SplineSet
280 -58 m 1,0,-1
 280 6 l 1,1,2
 292 -3 292 -3 307 -8.5 c 128,-1,3
 322 -14 322 -14 339 -14 c 0,4,5
 359 -14 359 -14 384.5 -5.5 c 128,-1,6
 410 3 410 3 436 18.5 c 128,-1,7
 462 34 462 34 486 54.5 c 128,-1,8
 510 75 510 75 528 97 c 0,9,10
 572 153 572 153 596 214.5 c 128,-1,11
 620 276 620 276 620 332 c 0,12,13
 620 379 620 379 602 418 c 128,-1,14
 584 457 584 457 552.5 484.5 c 128,-1,15
 521 512 521 512 480 526.5 c 128,-1,16
 439 541 439 541 394 541 c 0,17,18
 360 541 360 541 324 529 c 128,-1,19
 288 517 288 517 259 497 c 1,20,-1
 213 536 l 2,21,22
 208 538 208 538 198 541.5 c 128,-1,23
 188 545 188 545 178 545 c 0,24,25
 169 545 169 545 160 542.5 c 128,-1,26
 151 540 151 540 151 539 c 2,27,-1
 53 492 l 2,28,29
 38 486 38 486 29 479.5 c 128,-1,30
 20 473 20 473 20 466 c 0,31,32
 20 461 20 461 32.5 452.5 c 128,-1,33
 45 444 45 444 60 444 c 0,34,35
 79 444 79 444 92 449 c 1,36,-1
 93 449 l 2,37,38
 99 449 99 449 107 434.5 c 128,-1,39
 115 420 115 420 115 393 c 2,40,-1
 115 -71 l 2,41,42
 115 -79 115 -79 113.5 -99 c 128,-1,43
 112 -119 112 -119 111 -135.5 c 128,-1,44
 110 -152 110 -152 108 -169.5 c 128,-1,45
 106 -187 106 -187 105 -187 c 0,46,47
 65 -212 65 -212 65 -230 c 0,48,49
 65 -240 65 -240 77.5 -248 c 128,-1,50
 90 -256 90 -256 107 -256 c 0,51,52
 122 -256 122 -256 139.5 -249.5 c 128,-1,53
 157 -243 157 -243 182 -231 c 0,54,55
 211 -217 211 -217 223 -213 c 0,56,57
 241 -207 241 -207 283 -200 c 0,58,59
 324 -194 324 -194 343.5 -186 c 128,-1,60
 363 -178 363 -178 363 -156 c 0,61,62
 363 -145 363 -145 348.5 -134.5 c 128,-1,63
 334 -124 334 -124 314 -123 c 1,64,-1
 314 -123 l 1,65,66
 290 -122 290 -122 285 -116 c 128,-1,67
 280 -110 280 -110 280 -81 c 2,68,-1
 280 -58 l 1,0,-1
360 458 m 0,69,70
 370 458 370 458 385 449.5 c 128,-1,71
 400 441 400 441 414.5 423.5 c 128,-1,72
 429 406 429 406 438.5 377.5 c 128,-1,73
 448 349 448 349 448 311 c 0,74,75
 448 270 448 270 439.5 229 c 128,-1,76
 431 188 431 188 415 154.5 c 128,-1,77
 399 121 399 121 378 101 c 128,-1,78
 357 81 357 81 332 81 c 0,79,80
 321 81 321 81 307 104.5 c 128,-1,81
 293 128 293 128 280 167 c 1,82,-1
 280 405 l 1,83,84
 297 433 297 433 316.5 445.5 c 128,-1,85
 336 458 336 458 360 458 c 0,69,70
EndSplineSet
Validated: 9
EndChar

StartChar: q
Encoding: 113 113 69
Width: 619
Flags: W
LayerCount: 2
Fore
SplineSet
347 545 m 0,0,1
 292 545 292 545 240.5 515.5 c 128,-1,2
 189 486 189 486 144 441 c 0,3,4
 82 378 82 378 51 325.5 c 128,-1,5
 20 273 20 273 20 199 c 0,6,7
 20 146 20 146 38.5 107.5 c 128,-1,8
 57 69 57 69 89.5 44 c 128,-1,9
 122 19 122 19 163 7.5 c 128,-1,10
 204 -4 204 -4 249 -4 c 0,11,12
 273 -4 273 -4 300 3 c 128,-1,13
 327 10 327 10 350 21 c 1,14,-1
 350 -95 l 2,15,16
 350 -102 350 -102 349 -122 c 128,-1,17
 348 -142 348 -142 346.5 -160.5 c 128,-1,18
 345 -179 345 -179 343.5 -195 c 128,-1,19
 342 -211 342 -211 341 -211 c 0,20,21
 300 -236 300 -236 300 -254 c 0,22,23
 300 -264 300 -264 312.5 -272 c 128,-1,24
 325 -280 325 -280 343 -280 c 0,25,26
 358 -280 358 -280 375 -273.5 c 128,-1,27
 392 -267 392 -267 416 -255 c 0,28,29
 446 -241 446 -241 459 -237 c 0,30,31
 477 -230 477 -230 519 -224 c 0,32,33
 560 -218 560 -218 579.5 -210 c 128,-1,34
 599 -202 599 -202 599 -180 c 0,35,36
 599 -169 599 -169 584 -158.5 c 128,-1,37
 569 -148 569 -148 550 -147 c 0,38,39
 525 -146 525 -146 520 -140 c 128,-1,40
 515 -134 515 -134 515 -104 c 2,41,-1
 515 -82 l 1,42,-1
 515 395 l 2,43,44
 515 415 515 415 509 435 c 128,-1,45
 503 455 503 455 486 470 c 2,46,-1
 437 514 l 2,47,48
 424 526 424 526 399.5 535.5 c 128,-1,49
 375 545 375 545 347 545 c 0,0,1
350 370 m 2,50,-1
 350 120 l 1,51,52
 334 100 334 100 320 91.5 c 128,-1,53
 306 83 306 83 290 83 c 0,54,55
 248 83 248 83 217.5 132.5 c 128,-1,56
 187 182 187 182 187 261 c 0,57,58
 187 300 187 300 197.5 335 c 128,-1,59
 208 370 208 370 225 396.5 c 128,-1,60
 242 423 242 423 263 438 c 128,-1,61
 284 453 284 453 305 453 c 256,62,63
 326 453 326 453 338 427 c 128,-1,64
 350 401 350 401 350 370 c 2,50,-1
EndSplineSet
Validated: 9
EndChar

StartChar: r
Encoding: 114 114 70
Width: 516
Flags: W
LayerCount: 2
Fore
SplineSet
278 160 m 2,0,-1
 278 394 l 1,1,-1
 284 402 l 2,2,3
 303 427 303 427 313.5 436 c 128,-1,4
 324 445 324 445 342 445 c 0,5,6
 353 445 353 445 362.5 428 c 128,-1,7
 372 411 372 411 372 366 c 0,8,9
 372 360 372 360 383.5 351 c 128,-1,10
 395 342 395 342 413 342 c 0,11,12
 425 342 425 342 437 349 c 128,-1,13
 449 356 449 356 453 362 c 0,14,15
 458 370 458 370 465 383.5 c 128,-1,16
 472 397 472 397 479 414.5 c 128,-1,17
 486 432 486 432 491 450.5 c 128,-1,18
 496 469 496 469 496 485 c 0,19,20
 496 499 496 499 471 518 c 0,21,22
 456 529 456 529 434 538 c 128,-1,23
 412 547 412 547 392 547 c 0,24,25
 356 547 356 547 332.5 536.5 c 128,-1,26
 309 526 309 526 282 507 c 0,27,28
 269 497 269 497 261 493 c 1,29,-1
 259 495 l 1,30,-1
 211 536 l 2,31,32
 206 538 206 538 196 541.5 c 128,-1,33
 186 545 186 545 177 545 c 256,34,35
 168 545 168 545 158.5 542.5 c 128,-1,36
 149 540 149 540 149 539 c 2,37,-1
 52 492 l 2,38,39
 37 486 37 486 28.5 480 c 128,-1,40
 20 474 20 474 20 467 c 0,41,42
 20 462 20 462 32 453.5 c 128,-1,43
 44 445 44 445 59 445 c 0,44,45
 78 445 78 445 92 450 c 1,46,-1
 93 450 l 2,47,48
 99 450 99 450 106.5 435 c 128,-1,49
 114 420 114 420 114 394 c 2,50,-1
 114 90 l 2,51,52
 114 71 114 71 121.5 59.5 c 128,-1,53
 129 48 129 48 140 38 c 1,54,-1
 140 38 l 1,55,-1
 190 -2 l 2,56,57
 193 -5 193 -5 204.5 -8 c 128,-1,58
 216 -11 216 -11 225 -11 c 0,59,60
 239 -11 239 -11 251 -5 c 2,61,-1
 344 52 l 2,62,63
 374 70 374 70 374 88 c 0,64,65
 374 91 374 91 362 100 c 128,-1,66
 350 109 350 109 336 109 c 256,67,68
 322 109 322 109 312 106 c 128,-1,69
 302 103 302 103 296 100 c 0,70,71
 294 99 294 99 294 99 c 2,72,73
 286 99 286 99 282 112 c 128,-1,74
 278 125 278 125 278 160 c 2,0,-1
EndSplineSet
Validated: 5
EndChar

StartChar: s
Encoding: 115 115 71
Width: 498
Flags: W
LayerCount: 2
Fore
SplineSet
435 468 m 0,0,1
 435 494 435 494 419 510 c 128,-1,2
 403 526 403 526 378 534 c 128,-1,3
 353 542 353 542 328 544.5 c 128,-1,4
 303 547 303 547 279 547 c 0,5,6
 253 547 253 547 214.5 536.5 c 128,-1,7
 176 526 176 526 138 505.5 c 128,-1,8
 100 485 100 485 75 453.5 c 128,-1,9
 50 422 50 422 50 381 c 0,10,11
 50 334 50 334 67.5 303 c 128,-1,12
 85 272 85 272 113 254.5 c 128,-1,13
 141 237 141 237 171 229.5 c 128,-1,14
 201 222 201 222 246 214 c 0,15,16
 299 204 299 204 323 194.5 c 128,-1,17
 347 185 347 185 347 161 c 0,18,19
 347 143 347 143 337 130.5 c 128,-1,20
 327 118 327 118 311 111 c 128,-1,21
 295 104 295 104 276 101.5 c 128,-1,22
 257 99 257 99 237 99 c 0,23,24
 195 99 195 99 169.5 112 c 128,-1,25
 144 125 144 125 144 162 c 0,26,27
 144 179 144 179 135 190.5 c 128,-1,28
 126 202 126 202 95 202 c 0,29,30
 72 202 72 202 61.5 191.5 c 128,-1,31
 51 181 51 181 45 166 c 0,32,33
 45 164 45 164 44 163 c 0,34,35
 33 137 33 137 26.5 116.5 c 128,-1,36
 20 96 20 96 20 87 c 0,37,38
 20 61 20 61 37.5 43 c 128,-1,39
 55 25 55 25 84.5 14 c 128,-1,40
 114 3 114 3 147.5 -1.5 c 128,-1,41
 181 -6 181 -6 215 -6 c 0,42,43
 270 -6 270 -6 318 10.5 c 128,-1,44
 366 27 366 27 402 56.5 c 128,-1,45
 438 86 438 86 458 126.5 c 128,-1,46
 478 167 478 167 478 214 c 0,47,48
 478 254 478 254 462 280 c 128,-1,49
 446 306 446 306 419 321 c 128,-1,50
 392 336 392 336 363 343 c 128,-1,51
 334 350 334 350 291 356 c 0,52,53
 236 365 236 365 210 375.5 c 128,-1,54
 184 386 184 386 184 411 c 0,55,56
 184 438 184 438 205.5 449 c 128,-1,57
 227 460 227 460 257 460 c 0,58,59
 281 460 281 460 301 445 c 128,-1,60
 321 430 321 430 321 403 c 0,61,62
 321 390 321 390 334 380 c 128,-1,63
 347 370 347 370 364 370 c 0,64,65
 399 370 399 370 417 399 c 128,-1,66
 435 428 435 428 435 468 c 0,0,1
EndSplineSet
Validated: 9
EndChar

StartChar: t
Encoding: 116 116 72
Width: 381
Flags: W
LayerCount: 2
Fore
SplineSet
251 160 m 2,0,-1
 251 416 l 2,1,2
 251 454 251 454 264 468 c 128,-1,3
 277 482 277 482 307 482 c 0,4,5
 328 482 328 482 344.5 492.5 c 128,-1,6
 361 503 361 503 361 507 c 0,7,8
 361 519 361 519 345 531 c 128,-1,9
 329 543 329 543 307 543 c 0,10,11
 278 543 278 543 263 538 c 1,12,-1
 263 543 l 2,13,14
 263 560 263 560 275 597 c 0,15,16
 289 639 289 639 289 659 c 0,17,18
 289 669 289 669 279 679.5 c 128,-1,19
 269 690 269 690 249 690 c 0,20,21
 232 690 232 690 217 676.5 c 128,-1,22
 202 663 202 663 180 635 c 0,23,24
 157 606 157 606 145 595 c 0,25,26
 119 573 119 573 70 544 c 0,27,28
 43 527 43 527 31.5 518 c 128,-1,29
 20 509 20 509 20 498 c 0,30,31
 20 489 20 489 30 480 c 128,-1,32
 40 471 40 471 65 471 c 0,33,34
 72 471 72 471 85 474 c 0,35,36
 86 474 86 474 91 475 c 1,37,38
 88 475 88 475 87.5 472 c 128,-1,39
 87 469 87 469 87 455 c 2,40,-1
 87 89 l 2,41,42
 87 71 87 71 94.5 58.5 c 128,-1,43
 102 46 102 46 112 37 c 2,44,-1
 163 -3 l 2,45,46
 166 -6 166 -6 177.5 -9 c 128,-1,47
 189 -12 189 -12 198 -12 c 0,48,49
 214 -12 214 -12 224 -6 c 2,50,-1
 318 51 l 2,51,52
 334 62 334 62 340.5 69.5 c 128,-1,53
 347 77 347 77 347 87 c 0,54,55
 347 90 347 90 335.5 99.5 c 128,-1,56
 324 109 324 109 310 109 c 256,57,58
 296 109 296 109 286 105.5 c 128,-1,59
 276 102 276 102 270 99 c 0,60,61
 268 98 268 98 268 98 c 2,62,63
 260 98 260 98 255.5 112 c 128,-1,64
 251 126 251 126 251 160 c 2,0,-1
EndSplineSet
Validated: 5
EndChar

StartChar: u
Encoding: 117 117 73
Width: 703
Flags: W
LayerCount: 2
Fore
SplineSet
587 162 m 2,0,-1
 587 464 l 2,1,2
 587 481 587 481 567 498 c 2,3,-1
 520 538 l 2,4,5
 515 541 515 541 505 544 c 128,-1,6
 495 547 495 547 486 547 c 256,7,8
 477 547 477 547 468 544.5 c 128,-1,9
 459 542 459 542 459 541 c 2,10,-1
 362 494 l 2,11,12
 348 488 348 488 338.5 481.5 c 128,-1,13
 329 475 329 475 329 469 c 0,14,15
 329 464 329 464 341.5 455.5 c 128,-1,16
 354 447 354 447 369 447 c 0,17,18
 387 447 387 447 401 452 c 0,19,20
 402 452 402 452 402 452 c 2,21,22
 408 452 408 452 415.5 437 c 128,-1,23
 423 422 423 422 423 396 c 2,24,-1
 423 156 l 1,25,26
 380 95 380 95 332 95 c 0,27,28
 311 95 311 95 294.5 116.5 c 128,-1,29
 278 138 278 138 278 165 c 2,30,-1
 278 464 l 2,31,32
 278 481 278 481 258 498 c 2,33,-1
 211 538 l 2,34,35
 206 540 206 540 196 543.5 c 128,-1,36
 186 547 186 547 177 547 c 256,37,38
 168 547 168 547 158.5 544.5 c 128,-1,39
 149 542 149 542 149 541 c 2,40,-1
 52 494 l 2,41,42
 38 488 38 488 29 481.5 c 128,-1,43
 20 475 20 475 20 469 c 0,44,45
 20 464 20 464 32 455.5 c 128,-1,46
 44 447 44 447 59 447 c 0,47,48
 78 447 78 447 92 452 c 1,49,-1
 93 452 l 2,50,51
 99 452 99 452 106.5 437 c 128,-1,52
 114 422 114 422 114 396 c 2,53,-1
 114 167 l 2,54,55
 114 133 114 133 127 109.5 c 128,-1,56
 140 86 140 86 169 60 c 0,57,58
 191 41 191 41 225.5 24.5 c 128,-1,59
 260 8 260 8 283 8 c 0,60,61
 320 9 320 9 351 22 c 128,-1,62
 382 35 382 35 422 58 c 2,63,-1
 429 62 l 1,64,65
 434 54 434 54 445 44 c 0,66,67
 448 41 448 41 449 40 c 2,68,-1
 500 0 l 2,69,70
 503 -3 503 -3 514 -6 c 128,-1,71
 525 -9 525 -9 534 -9 c 0,72,73
 550 -9 550 -9 560 -3 c 2,74,-1
 653 54 l 2,75,76
 683 72 683 72 683 90 c 0,77,78
 683 93 683 93 671 102 c 128,-1,79
 659 111 659 111 646 111 c 0,80,81
 623 111 623 111 606 102 c 0,82,83
 604 101 604 101 604 101 c 2,84,85
 596 101 596 101 591.5 114.5 c 128,-1,86
 587 128 587 128 587 162 c 2,0,-1
EndSplineSet
Validated: 9
EndChar

StartChar: v
Encoding: 118 118 74
Width: 602
Flags: W
LayerCount: 2
Fore
SplineSet
140 123 m 2,0,1
 142 103 142 103 147.5 92 c 128,-1,2
 153 81 153 81 168 71 c 2,3,-1
 252 10 l 1,4,-1
 252 10 l 1,5,6
 263 3 263 3 276.5 -1.5 c 128,-1,7
 290 -6 290 -6 312 -6 c 0,8,9
 342 -6 342 -6 365.5 9 c 128,-1,10
 389 24 389 24 423 57 c 0,11,12
 461 92 461 92 492.5 127.5 c 128,-1,13
 524 163 524 163 539 195 c 0,14,15
 560 239 560 239 571 282.5 c 128,-1,16
 582 326 582 326 582 362 c 0,17,18
 582 388 582 388 579 417 c 128,-1,19
 576 446 576 446 564.5 476.5 c 128,-1,20
 553 507 553 507 529.5 527.5 c 128,-1,21
 506 548 506 548 468 548 c 0,22,23
 449 548 449 548 423.5 544 c 128,-1,24
 398 540 398 540 375 533.5 c 128,-1,25
 352 527 352 527 337 516.5 c 128,-1,26
 322 506 322 506 322 493 c 0,27,28
 322 481 322 481 342 476 c 128,-1,29
 362 471 362 471 381 471 c 0,30,31
 396 471 396 471 408.5 456 c 128,-1,32
 421 441 421 441 429.5 417 c 128,-1,33
 438 393 438 393 442.5 366.5 c 128,-1,34
 447 340 447 340 447 317 c 0,35,36
 447 267 447 267 427.5 208 c 128,-1,37
 408 149 408 149 379 122 c 2,38,-1
 374 117 l 2,39,40
 348 92 348 92 342 92 c 0,41,42
 329 92 329 92 319.5 113.5 c 128,-1,43
 310 135 310 135 305 191 c 2,44,-1
 282 472 l 2,45,46
 281 480 281 480 277 488 c 128,-1,47
 273 496 273 496 263 505 c 2,48,-1
 216 545 l 2,49,50
 211 547 211 547 201 550.5 c 128,-1,51
 191 554 191 554 182 554 c 256,52,53
 173 554 173 554 163.5 551.5 c 128,-1,54
 154 549 154 549 153 548 c 2,55,-1
 54 491 l 2,56,57
 34 480 34 480 27 474.5 c 128,-1,58
 20 469 20 469 20 462 c 0,59,60
 20 457 20 457 34.5 447.5 c 128,-1,61
 49 438 49 438 63 438 c 0,62,63
 79 438 79 438 87.5 441 c 128,-1,64
 96 444 96 444 98 446 c 0,65,66
 108 446 108 446 112.5 438 c 128,-1,67
 117 430 117 430 119 403 c 2,68,-1
 140 123 l 2,0,1
EndSplineSet
Validated: 5
EndChar

StartChar: w
Encoding: 119 119 75
Width: 866
Flags: W
LayerCount: 2
Fore
SplineSet
210 545 m 2,0,1
 205 547 205 547 195 550.5 c 128,-1,2
 185 554 185 554 176 554 c 256,3,4
 167 554 167 554 157.5 551.5 c 128,-1,5
 148 549 148 549 147 548 c 2,6,-1
 47 491 l 2,7,8
 32 482 32 482 26 473 c 128,-1,9
 20 464 20 464 20 455 c 0,10,11
 20 450 20 450 37 442.5 c 128,-1,12
 54 435 54 435 66 435 c 0,13,14
 82 435 82 435 91 439 c 128,-1,15
 100 443 100 443 103 445 c 0,16,17
 106 445 106 445 107 441.5 c 128,-1,18
 108 438 108 438 111 420 c 2,19,-1
 113 402 l 1,20,-1
 155 127 l 2,21,22
 158 109 158 109 169.5 94.5 c 128,-1,23
 181 80 181 80 195 69 c 2,24,-1
 267 15 l 2,25,26
 276 8 276 8 292 2 c 128,-1,27
 308 -4 308 -4 327 -4 c 0,28,29
 362 -4 362 -4 394 19 c 128,-1,30
 426 42 426 42 454 78 c 1,31,32
 454 78 454 78 455 77 c 0,33,34
 456 77 456 77 456 76 c 2,35,-1
 528 11 l 2,36,37
 531 7 531 7 549.5 0.5 c 128,-1,38
 568 -6 568 -6 590 -6 c 0,39,40
 617 -6 617 -6 649.5 13.5 c 128,-1,41
 682 33 682 33 713.5 65 c 128,-1,42
 745 97 745 97 770.5 131.5 c 128,-1,43
 796 166 796 166 809 194 c 0,44,45
 829 235 829 235 837.5 279 c 128,-1,46
 846 323 846 323 846 364 c 0,47,48
 846 390 846 390 843 419 c 128,-1,49
 840 448 840 448 828.5 478.5 c 128,-1,50
 817 509 817 509 793.5 529.5 c 128,-1,51
 770 550 770 550 733 550 c 0,52,53
 714 550 714 550 688.5 546 c 128,-1,54
 663 542 663 542 639.5 535.5 c 128,-1,55
 616 529 616 529 601 518.5 c 128,-1,56
 586 508 586 508 586 495 c 0,57,58
 586 483 586 483 606 478 c 128,-1,59
 626 473 626 473 645 473 c 0,60,61
 660 473 660 473 672.5 458 c 128,-1,62
 685 443 685 443 693.5 419 c 128,-1,63
 702 395 702 395 706.5 368 c 128,-1,64
 711 341 711 341 711 319 c 0,65,66
 711 291 711 291 704 252.5 c 128,-1,67
 697 214 697 214 685 179 c 128,-1,68
 673 144 673 144 658 121 c 128,-1,69
 643 98 643 98 627 98 c 0,70,71
 618 98 618 98 614.5 99.5 c 128,-1,72
 611 101 611 101 608.5 107.5 c 128,-1,73
 606 114 606 114 604 127.5 c 128,-1,74
 602 141 602 141 597 175 c 2,75,-1
 596 186 l 1,76,-1
 560 472 l 2,77,78
 559 480 559 480 555 488 c 128,-1,79
 551 496 551 496 541 505 c 2,80,-1
 494 545 l 2,81,82
 489 547 489 547 479 550.5 c 128,-1,83
 469 554 469 554 459 554 c 0,84,85
 452 554 452 554 442 552 c 128,-1,86
 432 550 432 550 429 548 c 2,87,-1
 331 484 l 2,88,89
 313 472 313 472 307 464 c 128,-1,90
 301 456 301 456 301 447 c 0,91,92
 301 442 301 442 315 433 c 128,-1,93
 329 424 329 424 343 424 c 0,94,95
 359 424 359 424 369.5 430 c 128,-1,96
 380 436 380 436 384 440 c 0,97,98
 388 439 388 439 391 431 c 128,-1,99
 394 423 394 423 397 402 c 2,100,-1
 419 233 l 1,101,102
 404 179 404 179 388.5 144 c 128,-1,103
 373 109 373 109 360 109 c 0,104,105
 344 109 344 109 336 124 c 128,-1,106
 328 139 328 139 319 197 c 2,107,-1
 276 472 l 2,108,109
 275 480 275 480 271 488 c 128,-1,110
 267 496 267 496 257 505 c 2,111,-1
 210 545 l 2,0,1
EndSplineSet
Validated: 9
EndChar

StartChar: x
Encoding: 120 120 76
Width: 603
Flags: W
LayerCount: 2
Fore
SplineSet
437 -14 m 0,0,1
 452 -14 452 -14 464 -8 c 2,2,-1
 557 49 l 2,3,4
 572 58 572 58 577.5 64.5 c 128,-1,5
 583 71 583 71 583 79 c 0,6,7
 583 85 583 85 574 91 c 128,-1,8
 565 97 565 97 538 98 c 0,9,10
 526 98 526 98 513.5 110.5 c 128,-1,11
 501 123 501 123 477 155 c 2,12,-1
 374 301 l 1,13,14
 403 317 403 317 430.5 337.5 c 128,-1,15
 458 358 458 358 482 383.5 c 128,-1,16
 506 409 506 409 521 440 c 128,-1,17
 536 471 536 471 536 505 c 0,18,19
 536 516 536 516 519.5 533 c 128,-1,20
 503 550 503 550 481 550 c 0,21,22
 460 550 460 550 433 544 c 128,-1,23
 406 538 406 538 387 531 c 0,24,25
 362 521 362 521 349 511 c 128,-1,26
 336 501 336 501 336 488 c 0,27,28
 336 467 336 467 344.5 460 c 128,-1,29
 353 453 353 453 367 451 c 0,30,31
 375 450 375 450 379 448 c 128,-1,32
 383 446 383 446 383 440 c 0,33,34
 383 414 383 414 370.5 395.5 c 128,-1,35
 358 377 358 377 334 356 c 1,36,-1
 211 532 l 2,37,38
 205 540 205 540 191.5 545 c 128,-1,39
 178 550 178 550 168 550 c 0,40,41
 161 550 161 550 150.5 548 c 128,-1,42
 140 546 140 546 137 544 c 2,43,-1
 61 495 l 2,44,45
 50 489 50 489 35 477.5 c 128,-1,46
 20 466 20 466 20 459 c 0,47,48
 20 454 20 454 33 445.5 c 128,-1,49
 46 437 46 437 61 437 c 0,50,51
 83 437 83 437 90 442 c 1,52,53
 90 440 90 440 99 427 c 0,54,55
 109 413 109 413 117 401 c 2,56,-1
 202 279 l 1,57,58
 110 216 110 216 70.5 163 c 128,-1,59
 31 110 31 110 31 42 c 0,60,61
 31 25 31 25 42.5 12.5 c 128,-1,62
 54 0 54 0 89 0 c 0,63,64
 107 0 107 0 129 5 c 128,-1,65
 151 10 151 10 170 17 c 0,66,67
 192 28 192 28 208 38 c 128,-1,68
 224 48 224 48 224 55 c 0,69,70
 224 71 224 71 216 77 c 128,-1,71
 208 83 208 83 193 86 c 0,72,73
 181 89 181 89 175.5 92.5 c 128,-1,74
 170 96 170 96 170 104 c 0,75,76
 170 133 170 133 191 161 c 128,-1,77
 212 189 212 189 246 215 c 1,78,-1
 399 -4 l 1,79,80
 399 -4 399 -4 402 -5 c 0,81,82
 411 -9 411 -9 420.5 -11.5 c 128,-1,83
 430 -14 430 -14 437 -14 c 0,0,1
EndSplineSet
Validated: 9
EndChar

StartChar: y
Encoding: 121 121 77
Width: 611
Flags: W
LayerCount: 2
Fore
SplineSet
591 -109 m 2,0,-1
 591 461 l 2,1,2
 591 479 591 479 571 496 c 2,3,-1
 524 536 l 2,4,5
 519 538 519 538 509 541.5 c 128,-1,6
 499 545 499 545 489 545 c 0,7,8
 480 545 480 545 471 542.5 c 128,-1,9
 462 540 462 540 462 539 c 2,10,-1
 364 492 l 2,11,12
 350 486 350 486 341 479.5 c 128,-1,13
 332 473 332 473 332 466 c 0,14,15
 332 461 332 461 344 452.5 c 128,-1,16
 356 444 356 444 371 444 c 0,17,18
 390 444 390 444 404 449 c 1,19,-1
 405 449 l 2,20,21
 411 449 411 449 418.5 434 c 128,-1,22
 426 419 426 419 426 393 c 2,23,-1
 426 153 l 1,24,25
 411 117 411 117 388 102.5 c 128,-1,26
 365 88 365 88 335 88 c 0,27,28
 314 88 314 88 296.5 110.5 c 128,-1,29
 279 133 279 133 279 161 c 2,30,-1
 279 461 l 2,31,32
 279 478 279 478 260 496 c 2,33,-1
 212 536 l 2,34,35
 207 539 207 539 197 542 c 128,-1,36
 187 545 187 545 178 545 c 256,37,38
 169 545 169 545 159.5 542.5 c 128,-1,39
 150 540 150 540 150 539 c 2,40,-1
 53 492 l 2,41,42
 38 486 38 486 29 479.5 c 128,-1,43
 20 473 20 473 20 466 c 0,44,45
 20 461 20 461 32.5 452.5 c 128,-1,46
 45 444 45 444 60 444 c 0,47,48
 78 444 78 444 92 449 c 0,49,50
 93 449 93 449 93 449 c 2,51,52
 99 449 99 449 107 434.5 c 128,-1,53
 115 420 115 420 115 393 c 2,54,-1
 115 163 l 2,55,56
 115 128 115 128 128 104.5 c 128,-1,57
 141 81 141 81 170 55 c 0,58,59
 181 44 181 44 208 28 c 1,60,61
 140 8 140 8 100.5 -32.5 c 128,-1,62
 61 -73 61 -73 61 -119 c 0,63,64
 61 -153 61 -153 71 -180 c 128,-1,65
 81 -207 81 -207 109 -229 c 128,-1,66
 137 -251 137 -251 190 -263.5 c 128,-1,67
 243 -276 243 -276 325 -276 c 0,68,69
 442 -276 442 -276 516.5 -233 c 128,-1,70
 591 -190 591 -190 591 -109 c 2,0,-1
325 -202 m 0,71,72
 288 -202 288 -202 265.5 -171.5 c 128,-1,73
 243 -141 243 -141 243 -96 c 0,74,75
 243 -62 243 -62 268.5 -34 c 128,-1,76
 294 -6 294 -6 334 14 c 0,77,78
 372 32 372 32 426 49 c 1,79,-1
 426 -116 l 2,80,81
 426 -155 426 -155 397 -178.5 c 128,-1,82
 368 -202 368 -202 325 -202 c 0,71,72
EndSplineSet
Validated: 9
EndChar

StartChar: z
Encoding: 122 122 78
Width: 534
Flags: W
LayerCount: 2
Fore
SplineSet
20 38 m 0,0,1
 20 19 20 19 44.5 9.5 c 128,-1,2
 69 0 69 0 93 0 c 0,3,4
 121 0 121 0 169 10 c 0,5,6
 205 18 205 18 222 18 c 0,7,8
 241 18 241 18 289 10 c 0,9,10
 349 0 349 0 380 0 c 0,11,12
 448 0 448 0 481 28 c 128,-1,13
 514 56 514 56 514 128 c 0,14,15
 514 147 514 147 505 163.5 c 128,-1,16
 496 180 496 180 470 180 c 256,17,18
 444 180 444 180 432.5 169 c 128,-1,19
 421 158 421 158 411 135 c 0,20,21
 401 110 401 110 386.5 97 c 128,-1,22
 372 84 372 84 338 84 c 0,23,24
 317 84 317 84 274 86 c 0,25,26
 235 87 235 87 222 87 c 1,27,28
 224 89 224 89 224 95 c 0,29,30
 224 100 224 100 225 105.5 c 128,-1,31
 226 111 226 111 227 113 c 0,32,33
 262 168 262 168 342 268 c 0,34,35
 392 332 392 332 423.5 375.5 c 128,-1,36
 455 419 455 419 479 465 c 0,37,38
 484 474 484 474 488 484 c 128,-1,39
 492 494 492 494 492 501 c 0,40,41
 492 511 492 511 473.5 521 c 128,-1,42
 455 531 455 531 422 531 c 0,43,44
 413 531 413 531 388 528 c 0,45,46
 362 524 362 524 352 524 c 0,47,48
 323 524 323 524 265 531 c 0,49,50
 203 539 203 539 170 539 c 0,51,52
 124 539 124 539 98 534.5 c 128,-1,53
 72 530 72 530 59.5 520 c 128,-1,54
 47 510 47 510 42.5 493 c 128,-1,55
 38 476 38 476 38 447 c 256,56,57
 38 418 38 418 49.5 396 c 128,-1,58
 61 374 61 374 93 374 c 0,59,60
 117 374 117 374 126 383 c 128,-1,61
 135 392 135 392 141 412 c 0,62,63
 149 439 149 439 166.5 453 c 128,-1,64
 184 467 184 467 235 467 c 0,65,66
 259 467 259 467 274 464.5 c 128,-1,67
 289 462 289 462 289 454 c 0,68,69
 289 447 289 447 286.5 439.5 c 128,-1,70
 284 432 284 432 282 429 c 0,71,72
 241 389 241 389 195 332.5 c 128,-1,73
 149 276 149 276 109 217.5 c 128,-1,74
 69 159 69 159 44.5 111 c 128,-1,75
 20 63 20 63 20 38 c 0,0,1
EndSplineSet
Validated: 9
EndChar

StartChar: quoteleft
Encoding: 145 235 79
Width: 231
Flags: W
LayerCount: 2
Fore
SplineSet
125 770 m 0,0,1
 102 770 102 770 82.5 758.5 c 128,-1,2
 63 747 63 747 49 729.5 c 128,-1,3
 35 712 35 712 27.5 692.5 c 128,-1,4
 20 673 20 673 20 658 c 0,5,6
 20 633 20 633 30.5 605.5 c 128,-1,7
 41 578 41 578 59 554 c 128,-1,8
 77 530 77 530 97.5 515.5 c 128,-1,9
 118 501 118 501 138 501 c 0,10,11
 149 501 149 501 165 506.5 c 128,-1,12
 181 512 181 512 181 518 c 0,13,14
 181 527 181 527 177 533 c 128,-1,15
 173 539 173 539 164 547 c 0,16,17
 153 555 153 555 147.5 563.5 c 128,-1,18
 142 572 142 572 142 586 c 2,19,-1
 142 599 l 1,20,21
 173 606 173 606 192 631 c 128,-1,22
 211 656 211 656 211 685 c 0,23,24
 211 717 211 717 186.5 743.5 c 128,-1,25
 162 770 162 770 125 770 c 0,0,1
EndSplineSet
Validated: 9
EndChar

StartChar: quoteright
Encoding: 146 237 80
Width: 231
Flags: W
LayerCount: 2
Fore
SplineSet
106 767 m 0,0,1
 69 767 69 767 44.5 740.5 c 128,-1,2
 20 714 20 714 20 682 c 0,3,4
 20 653 20 653 39 628 c 128,-1,5
 58 603 58 603 89 596 c 1,6,-1
 89 583 l 2,7,8
 89 569 89 569 83.5 561 c 128,-1,9
 78 553 78 553 67 544 c 0,10,11
 59 537 59 537 54.5 530.5 c 128,-1,12
 50 524 50 524 50 515 c 0,13,14
 50 509 50 509 66 503.5 c 128,-1,15
 82 498 82 498 93 498 c 0,16,17
 113 498 113 498 133.5 512.5 c 128,-1,18
 154 527 154 527 172 551 c 128,-1,19
 190 575 190 575 200.5 602.5 c 128,-1,20
 211 630 211 630 211 655 c 0,21,22
 211 670 211 670 203.5 689.5 c 128,-1,23
 196 709 196 709 182 726.5 c 128,-1,24
 168 744 168 744 148.5 755.5 c 128,-1,25
 129 767 129 767 106 767 c 0,0,1
EndSplineSet
Validated: 9
EndChar

StartChar: quotedblleft
Encoding: 147 236 81
Width: 392
Flags: W
LayerCount: 2
Fore
SplineSet
124 770 m 0,0,1
 102 770 102 770 82.5 758.5 c 128,-1,2
 63 747 63 747 49 729.5 c 128,-1,3
 35 712 35 712 27.5 692.5 c 128,-1,4
 20 673 20 673 20 658 c 0,5,6
 20 633 20 633 30.5 605.5 c 128,-1,7
 41 578 41 578 59 554 c 128,-1,8
 77 530 77 530 97.5 515.5 c 128,-1,9
 118 501 118 501 138 501 c 0,10,11
 149 501 149 501 165 506.5 c 128,-1,12
 181 512 181 512 181 518 c 0,13,14
 181 527 181 527 176.5 533 c 128,-1,15
 172 539 172 539 163 547 c 0,16,17
 152 555 152 555 146.5 563.5 c 128,-1,18
 141 572 141 572 141 586 c 2,19,-1
 141 599 l 1,20,21
 169 605 169 605 186 625 c 1,22,23
 192 602 192 602 204 579.5 c 128,-1,24
 216 557 216 557 232 539.5 c 128,-1,25
 248 522 248 522 265.5 511.5 c 128,-1,26
 283 501 283 501 299 501 c 0,27,28
 310 501 310 501 326 506.5 c 128,-1,29
 342 512 342 512 342 518 c 0,30,31
 342 527 342 527 338 533 c 128,-1,32
 334 539 334 539 325 547 c 0,33,34
 314 555 314 555 308.5 563.5 c 128,-1,35
 303 572 303 572 303 586 c 2,36,-1
 303 599 l 1,37,38
 334 606 334 606 353 631 c 128,-1,39
 372 656 372 656 372 685 c 0,40,41
 372 718 372 718 347.5 744 c 128,-1,42
 323 770 323 770 286 770 c 0,43,44
 261 770 261 770 239.5 756 c 128,-1,45
 218 742 218 742 203 719 c 1,46,47
 192 742 192 742 171.5 756 c 128,-1,48
 151 770 151 770 124 770 c 0,0,1
EndSplineSet
Validated: 9
EndChar

StartChar: quotedblright
Encoding: 148 238 82
Width: 392
Flags: W
LayerCount: 2
Fore
SplineSet
268 767 m 0,0,1
 241 767 241 767 220.5 753 c 128,-1,2
 200 739 200 739 189 716 c 1,3,4
 174 739 174 739 152.5 753 c 128,-1,5
 131 767 131 767 106 767 c 0,6,7
 69 767 69 767 44.5 741 c 128,-1,8
 20 715 20 715 20 682 c 0,9,10
 20 653 20 653 39 628 c 128,-1,11
 58 603 58 603 89 596 c 1,12,-1
 89 583 l 2,13,14
 89 569 89 569 83.5 561 c 128,-1,15
 78 553 78 553 67 544 c 0,16,17
 59 537 59 537 54.5 530.5 c 128,-1,18
 50 524 50 524 50 515 c 0,19,20
 50 509 50 509 66 503.5 c 128,-1,21
 82 498 82 498 93 498 c 0,22,23
 110 498 110 498 127.5 508.5 c 128,-1,24
 145 519 145 519 160.5 536.5 c 128,-1,25
 176 554 176 554 188 576.5 c 128,-1,26
 200 599 200 599 206 621 c 1,27,28
 224 602 224 602 251 596 c 1,29,-1
 251 583 l 2,30,31
 251 569 251 569 245.5 560.5 c 128,-1,32
 240 552 240 552 229 544 c 0,33,34
 220 537 220 537 215.5 530.5 c 128,-1,35
 211 524 211 524 211 515 c 0,36,37
 211 509 211 509 227 503.5 c 128,-1,38
 243 498 243 498 254 498 c 0,39,40
 274 498 274 498 294.5 512.5 c 128,-1,41
 315 527 315 527 333 551 c 128,-1,42
 351 575 351 575 361.5 602.5 c 128,-1,43
 372 630 372 630 372 655 c 0,44,45
 372 670 372 670 364.5 689.5 c 128,-1,46
 357 709 357 709 343 726.5 c 128,-1,47
 329 744 329 744 310 755.5 c 128,-1,48
 291 767 291 767 268 767 c 0,0,1
EndSplineSet
Validated: 9
EndChar

StartChar: alt_a
Encoding: 190 230 83
Width: 626
Flags: W
LayerCount: 2
Fore
SplineSet
510 156 m 2,0,-1
 510 389 l 2,1,2
 510 424 510 424 494.5 447.5 c 128,-1,3
 479 471 479 471 448 497 c 0,4,5
 425 516 425 516 393.5 530 c 128,-1,6
 362 544 362 544 337 544 c 0,7,8
 291 544 291 544 241.5 517 c 128,-1,9
 192 490 192 490 150 450 c 0,10,11
 90 393 90 393 55 331 c 128,-1,12
 20 269 20 269 20 201 c 0,13,14
 20 165 20 165 32.5 127.5 c 128,-1,15
 45 90 45 90 69.5 58.5 c 128,-1,16
 94 27 94 27 129.5 7.5 c 128,-1,17
 165 -12 165 -12 209 -12 c 256,18,19
 253 -12 253 -12 283 0.5 c 128,-1,20
 313 13 313 13 348 39 c 1,21,22
 351 32 351 32 361 22 c 2,23,-1
 387 -5 l 2,24,25
 390 -10 390 -10 402.5 -12.5 c 128,-1,26
 415 -15 415 -15 424 -15 c 0,27,28
 434 -15 434 -15 439.5 -13 c 128,-1,29
 445 -11 445 -11 455 -6 c 2,30,-1
 582 51 l 2,31,32
 594 59 594 59 600 66 c 128,-1,33
 606 73 606 73 606 84 c 0,34,35
 606 87 606 87 594 96 c 128,-1,36
 582 105 582 105 569 105 c 0,37,38
 555 105 555 105 544.5 102 c 128,-1,39
 534 99 534 99 528 96 c 0,40,41
 526 95 526 95 526 95 c 2,42,43
 519 95 519 95 514.5 108.5 c 128,-1,44
 510 122 510 122 510 156 c 2,0,-1
263 85 m 0,45,46
 249 85 249 85 235.5 102 c 128,-1,47
 222 119 222 119 211 145.5 c 128,-1,48
 200 172 200 172 194 200 c 128,-1,49
 188 228 188 228 188 250 c 0,50,51
 188 299 188 299 199.5 338 c 128,-1,52
 211 377 211 377 228 401.5 c 128,-1,53
 245 426 245 426 263 438 c 128,-1,54
 281 450 281 450 293 450 c 0,55,56
 316 450 316 450 331 432.5 c 128,-1,57
 346 415 346 415 346 369 c 2,58,-1
 346 138 l 2,59,60
 346 106 346 106 324 95.5 c 128,-1,61
 302 85 302 85 263 85 c 0,45,46
EndSplineSet
Validated: 9
EndChar

StartChar: alt_f
Encoding: 191 248 84
Width: 458
Flags: W
LayerCount: 2
Fore
SplineSet
84 90 m 2,0,1
 84 71 84 71 89.5 60.5 c 128,-1,2
 95 50 95 50 109 38 c 2,3,-1
 160 -2 l 2,4,5
 163 -5 163 -5 174.5 -8 c 128,-1,6
 186 -11 186 -11 195 -11 c 0,7,8
 209 -11 209 -11 221 -5 c 2,9,-1
 315 52 l 2,10,11
 331 63 331 63 337.5 70.5 c 128,-1,12
 344 78 344 78 344 88 c 0,13,14
 344 91 344 91 332 100.5 c 128,-1,15
 320 110 320 110 307 110 c 0,16,17
 293 110 293 110 282.5 106.5 c 128,-1,18
 272 103 272 103 266 100 c 0,19,20
 264 99 264 99 264 99 c 2,21,22
 257 99 257 99 253 107.5 c 128,-1,23
 249 116 249 116 249 139 c 2,24,-1
 249 455 l 2,25,26
 249 476 249 476 250 477 c 2,27,-1
 270 477 l 2,28,29
 297 477 297 477 319.5 487.5 c 128,-1,30
 342 498 342 498 342 512 c 0,31,32
 342 527 342 527 323.5 533 c 128,-1,33
 305 539 305 539 287 539 c 2,34,-1
 246 539 l 2,35,36
 249 541 249 541 249 548 c 2,37,-1
 249 633 l 2,38,39
 249 672 249 672 256.5 687 c 128,-1,40
 264 702 264 702 275 702 c 0,41,42
 292 702 292 702 296.5 679 c 128,-1,43
 301 656 301 656 301 617 c 0,44,45
 301 600 301 600 313 586.5 c 128,-1,46
 325 573 325 573 348 573 c 256,47,48
 371 573 371 573 383.5 586 c 128,-1,49
 396 599 396 599 403 617 c 0,50,51
 416 647 416 647 427 679 c 128,-1,52
 438 711 438 711 438 720 c 0,53,54
 438 747 438 747 405.5 762 c 128,-1,55
 373 777 373 777 328 777 c 0,56,57
 303 777 303 777 267 771 c 128,-1,58
 231 765 231 765 188.5 742.5 c 128,-1,59
 146 720 146 720 115 670 c 128,-1,60
 84 620 84 620 84 540 c 2,61,-1
 84 536 l 2,62,63
 84 533 84 533 91 533 c 1,64,65
 54 530 54 530 37 519 c 128,-1,66
 20 508 20 508 20 493 c 0,67,68
 20 486 20 486 32.5 475.5 c 128,-1,69
 45 465 45 465 68 465 c 0,70,71
 79 465 79 465 84 466 c 1,72,-1
 84 462 l 1,73,-1
 84 90 l 2,0,1
EndSplineSet
Validated: 9
EndChar

StartChar: plus
Encoding: -1 43 86
Width: 1155
VWidth: 2048
Flags: W
LayerCount: 2
Fore
SplineSet
535 141 m 1,0,-1
 535 640 l 1,1,-1
 37 640 l 1,2,-1
 37 722 l 1,3,-1
 535 722 l 1,4,-1
 535 1219 l 1,5,-1
 615 1219 l 1,6,-1
 615 722 l 1,7,-1
 1115 722 l 1,8,-1
 1115 640 l 1,9,-1
 615 640 l 1,10,-1
 615 141 l 1,11,-1
 535 141 l 1,0,-1
EndSplineSet
Validated: 6291457
EndChar

StartChar: asterisk
Encoding: -1 42 87
Width: 1024
VWidth: 2048
Flags: W
LayerCount: 2
Fore
SplineSet
494 1044 m 1,0,1
 490 1113 490 1113 466 1181 c 0,2,3
 432 1279 432 1279 432 1316 c 0,4,5
 432 1368 432 1368 456.5 1395 c 128,-1,6
 481 1422 481 1422 517 1422 c 0,7,8
 548 1422 548 1422 571 1395 c 128,-1,9
 594 1368 594 1368 594 1318 c 0,10,11
 594 1273 594 1273 567.5 1192.5 c 128,-1,12
 541 1112 541 1112 535 1044 c 1,13,14
 590 1079 590 1079 634 1129 c 0,15,16
 702 1208 702 1208 735 1227 c 128,-1,17
 768 1246 768 1246 802 1246 c 0,18,19
 835 1246 835 1246 857.5 1223.5 c 128,-1,20
 880 1201 880 1201 880 1170 c 0,21,22
 880 1133 880 1133 847 1104 c 128,-1,23
 814 1075 814 1075 682 1046 c 0,24,25
 605 1029 605 1029 554 1007 c 1,26,27
 606 980 606 980 681 966 c 0,28,29
 802 944 802 944 839.5 911 c 128,-1,30
 877 878 877 878 877 839 c 0,31,32
 877 809 877 809 854.5 787 c 128,-1,33
 832 765 832 765 802 765 c 256,34,35
 772 765 772 765 735.5 786 c 128,-1,36
 699 807 699 807 637 880 c 0,37,38
 596 929 596 929 535 972 c 1,39,40
 537 915 537 915 558 848 c 0,41,42
 594 730 594 730 594 687 c 0,43,44
 594 647 594 647 570 619.5 c 128,-1,45
 546 592 546 592 519 592 c 0,46,47
 482 592 482 592 452 621 c 0,48,49
 431 642 431 642 431 688 c 0,50,51
 431 736 431 736 454 803.5 c 128,-1,52
 477 871 477 871 483 896.5 c 128,-1,53
 489 922 489 922 494 972 c 1,54,55
 435 933 435 933 391 885 c 0,56,57
 318 803 318 803 281 781 c 0,58,59
 255 765 255 765 227 765 c 0,60,61
 193 765 193 765 169 788 c 128,-1,62
 145 811 145 811 145 839 c 0,63,64
 145 864 145 864 165.5 891.5 c 128,-1,65
 186 919 186 919 227 937 c 0,66,67
 254 949 254 949 350 969 c 0,68,69
 412 982 412 982 471 1007 c 1,70,71
 417 1034 417 1034 342 1049 c 0,72,73
 219 1075 219 1075 190 1096 c 0,74,75
 145 1129 145 1129 145 1176 c 0,76,77
 145 1203 145 1203 167.5 1225.5 c 128,-1,78
 190 1248 190 1248 220 1248 c 0,79,80
 253 1248 253 1248 290 1227 c 128,-1,81
 327 1206 327 1206 382 1142.5 c 128,-1,82
 437 1079 437 1079 494 1044 c 1,0,1
EndSplineSet
Validated: 6291457
EndChar

StartChar: percent
Encoding: -1 37 88
Width: 1706
VWidth: 2048
Flags: W
LayerCount: 2
Fore
SplineSet
1392 1387 m 1,0,-1
 404 -56 l 1,1,-1
 315 -56 l 1,2,-1
 1303 1387 l 1,3,-1
 1392 1387 l 1,0,-1
364 1387 m 0,4,5
 499 1387 499 1387 573.5 1275 c 128,-1,6
 648 1163 648 1163 648 1018 c 0,7,8
 648 844 648 844 564 749 c 128,-1,9
 480 654 480 654 362 654 c 0,10,11
 283 654 283 654 217 697.5 c 128,-1,12
 151 741 151 741 111.5 827 c 128,-1,13
 72 913 72 913 72 1018 c 256,14,15
 72 1123 72 1123 112 1211.5 c 128,-1,16
 152 1300 152 1300 221.5 1343.5 c 128,-1,17
 291 1387 291 1387 364 1387 c 0,4,5
361 1331 m 0,18,19
 310 1331 310 1331 270.5 1271 c 128,-1,20
 231 1211 231 1211 231 1019 c 0,21,22
 231 880 231 880 253 807 c 0,23,24
 270 752 270 752 306 722 c 0,25,26
 327 704 327 704 358 704 c 0,27,28
 406 704 406 704 440 756 c 0,29,30
 490 833 490 833 490 1013 c 0,31,32
 490 1203 490 1203 441 1280 c 0,33,34
 409 1331 409 1331 361 1331 c 0,18,19
1346 673 m 0,35,36
 1417 673 1417 673 1487.5 628 c 128,-1,37
 1558 583 1558 583 1596.5 497 c 128,-1,38
 1635 411 1635 411 1635 308 c 0,39,40
 1635 131 1635 131 1550 37.5 c 128,-1,41
 1465 -56 1465 -56 1349 -56 c 0,42,43
 1276 -56 1276 -56 1207.5 -11 c 128,-1,44
 1139 34 1139 34 1099.5 117.5 c 128,-1,45
 1060 201 1060 201 1060 308 c 0,46,47
 1060 413 1060 413 1099.5 500 c 128,-1,48
 1139 587 1139 587 1207.5 630 c 128,-1,49
 1276 673 1276 673 1346 673 c 0,35,36
1347 620 m 0,50,51
 1299 620 1299 620 1264 566 c 0,52,53
 1219 496 1219 496 1219 301 c 0,54,55
 1219 122 1219 122 1265 51 c 0,56,57
 1299 0 1299 0 1347 0 c 0,58,59
 1393 0 1393 0 1429 55 c 0,60,61
 1477 128 1477 128 1477 306 c 0,62,63
 1477 494 1477 494 1429 569 c 0,64,65
 1396 620 1396 620 1347 620 c 0,50,51
EndSplineSet
Validated: 6293505
EndChar

StartChar: dollar
Encoding: -1 36 89
Width: 1024
VWidth: 2048
Flags: W
LayerCount: 2
Fore
SplineSet
108 334 m 1,0,-1
 152 334 l 1,1,2
 163 197 163 197 238 124 c 128,-1,3
 313 51 313 51 462 37 c 1,4,-1
 462 621 l 1,5,6
 237 760 237 760 162 867 c 0,7,8
 109 943 109 943 109 1052 c 0,9,10
 109 1175 109 1175 200.5 1267 c 128,-1,11
 292 1359 292 1359 462 1378 c 1,12,-1
 462 1470 l 1,13,-1
 526 1470 l 1,14,-1
 526 1378 l 1,15,16
 608 1373 608 1373 664 1359 c 0,17,18
 693 1352 693 1352 856 1290 c 1,19,-1
 856 991 l 1,20,-1
 817 991 l 1,21,22
 804 1150 804 1150 734.5 1223.5 c 128,-1,23
 665 1297 665 1297 526 1311 c 1,24,-1
 526 803 l 1,25,26
 778 627 778 627 849.5 543.5 c 128,-1,27
 921 460 921 460 921 336 c 0,28,29
 921 198 921 198 816.5 93 c 128,-1,30
 712 -12 712 -12 526 -28 c 1,31,-1
 526 -156 l 1,32,-1
 462 -156 l 1,33,-1
 462 -28 l 1,34,35
 368 -24 368 -24 287 -6.5 c 128,-1,36
 206 11 206 11 108 51 c 1,37,-1
 108 334 l 1,0,-1
462 845 m 1,38,-1
 462 1310 l 1,39,40
 362 1298 362 1298 313.5 1246.5 c 128,-1,41
 265 1195 265 1195 265 1117 c 0,42,43
 265 1044 265 1044 309 980.5 c 128,-1,44
 353 917 353 917 462 845 c 1,38,-1
526 37 m 1,45,46
 601 50 601 50 641 74 c 0,47,48
 697 109 697 109 729.5 165.5 c 128,-1,49
 762 222 762 222 762 286 c 0,50,51
 762 352 762 352 722.5 411 c 128,-1,52
 683 470 683 470 526 578 c 1,53,-1
 526 37 l 1,45,46
EndSplineSet
Validated: 6291457
EndChar

StartChar: numbersign
Encoding: -1 35 90
Width: 1024
VWidth: 2048
Flags: W
LayerCount: 2
Fore
SplineSet
115 -28 m 1,0,-1
 208 427 l 1,1,-1
 37 427 l 1,2,-1
 37 509 l 1,3,-1
 224 509 l 1,4,-1
 293 852 l 1,5,-1
 37 852 l 1,6,-1
 37 932 l 1,7,-1
 312 932 l 1,8,-1
 403 1387 l 1,9,-1
 486 1387 l 1,10,-1
 395 932 l 1,11,-1
 732 932 l 1,12,-1
 829 1387 l 1,13,-1
 912 1387 l 1,14,-1
 817 932 l 1,15,-1
 987 932 l 1,16,-1
 987 852 l 1,17,-1
 802 852 l 1,18,-1
 732 509 l 1,19,-1
 987 509 l 1,20,-1
 987 427 l 1,21,-1
 715 427 l 1,22,-1
 622 -28 l 1,23,-1
 541 -28 l 1,24,-1
 632 427 l 1,25,-1
 293 427 l 1,26,-1
 198 -28 l 1,27,-1
 115 -28 l 1,0,-1
308 509 m 1,28,-1
 647 509 l 1,29,-1
 719 852 l 1,30,-1
 378 852 l 1,31,-1
 308 509 l 1,28,-1
EndSplineSet
Validated: 6291457
EndChar

StartChar: plus
Encoding: 43 43 91
Width: 650
VWidth: 2048
Flags: WO
LayerCount: 2
Fore
SplineSet
12.5458984375 434.971679688 m 5,0,-1
 283.098632812 434.971679688 l 5,1,-1
 283.098632812 704.961914062 l 5,2,-1
 356.784179688 704.961914062 l 5,3,-1
 356.784179688 434.971679688 l 5,4,-1
 627.3359375 434.971679688 l 5,5,-1
 627.3359375 360.724609375 l 5,6,-1
 356.784179688 360.724609375 l 5,7,-1
 356.784179688 92.984375 l 5,8,-1
 283.098632812 92.984375 l 5,9,-1
 283.098632812 360.724609375 l 5,10,-1
 12.5458984375 360.724609375 l 5,11,-1
 12.5458984375 434.971679688 l 5,0,-1
EndSplineSet
Validated: 6815745
EndChar

StartChar: asterisk
Encoding: 42 42 92
Width: 188
VWidth: 2048
Flags: W
LayerCount: 2
Fore
SplineSet
188.208984375 659.260742188 m 5,0,1
 186.8515625 685.5234375 186.8515625 685.5234375 183.002929688 699.107421875 c 132,-1,2
 179.153320312 712.69140625 179.153320312 712.69140625 164.4375 741.217773438 c 132,-1,3
 149.721679688 769.744140625 149.721679688 769.744140625 149.721679688 785.591796875 c 4,4,5
 149.721679688 806.420898438 149.721679688 806.420898438 164.4375 822.268554688 c 132,-1,6
 179.153320312 838.1171875 179.153320312 838.1171875 196.8125 838.1171875 c 4,7,8
 216.283203125 838.1171875 216.283203125 838.1171875 230.545898438 823.400390625 c 132,-1,9
 244.809570312 808.684570312 244.809570312 808.684570312 244.809570312 785.139648438 c 4,10,11
 244.809570312 766.57421875 244.809570312 766.57421875 230.772460938 740.311523438 c 132,-1,12
 216.736328125 714.049804688 216.736328125 714.049804688 212.887695312 700.239257812 c 132,-1,13
 209.038085938 686.428710938 209.038085938 686.428710938 206.774414062 659.260742188 c 5,14,15
 232.130859375 669.674804688 232.130859375 669.674804688 242.998046875 677.372070312 c 132,-1,16
 253.865234375 685.0703125 253.865234375 685.0703125 275.147460938 707.7109375 c 4,17,18
 303.673828125 738.047851562 303.673828125 738.047851562 329.936523438 738.047851562 c 4,19,20
 349.859375 738.047851562 349.859375 738.047851562 363.443359375 724.916992188 c 132,-1,21
 377.02734375 711.78515625 377.02734375 711.78515625 377.02734375 693.673828125 c 4,22,23
 377.02734375 674.203125 377.02734375 674.203125 360.2734375 659.260742188 c 132,-1,24
 343.51953125 644.318359375 343.51953125 644.318359375 316.8046875 644.318359375 c 4,25,26
 307.749023438 644.318359375 307.749023438 644.318359375 284.65625 645.676757812 c 4,27,28
 273.7890625 646.12890625 273.7890625 646.12890625 261.110351562 646.12890625 c 4,29,30
 244.356445312 646.12890625 244.356445312 646.12890625 210.396484375 644.318359375 c 5,31,32
 229.8671875 622.130859375 229.8671875 622.130859375 240.734375 613.75390625 c 132,-1,33
 251.6015625 605.377929688 251.6015625 605.377929688 278.31640625 591.793945312 c 132,-1,34
 305.032226562 578.208984375 305.032226562 578.208984375 316.8046875 562.814453125 c 4,35,36
 325.408203125 551.494140625 325.408203125 551.494140625 325.408203125 533.834960938 c 4,37,38
 325.408203125 514.365234375 325.408203125 514.365234375 312.27734375 501.0078125 c 132,-1,39
 299.145507812 487.649414062 299.145507812 487.649414062 280.581054688 487.649414062 c 4,40,41
 261.110351562 487.649414062 261.110351562 487.649414062 245.48828125 503.723632812 c 132,-1,42
 229.8671875 519.797851562 229.8671875 519.797851562 223.98046875 561.002929688 c 4,43,44
 220.358398438 587.717773438 220.358398438 587.717773438 216.056640625 599.943359375 c 132,-1,45
 211.754882812 612.168945312 211.754882812 612.168945312 197.717773438 635.71484375 c 5,46,47
 182.776367188 611.716796875 182.776367188 611.716796875 177.794921875 598.5859375 c 132,-1,48
 172.814453125 585.454101562 172.814453125 585.454101562 169.19140625 561.002929688 c 4,49,50
 163.305664062 519.797851562 163.305664062 519.797851562 148.36328125 504.403320312 c 132,-1,51
 133.420898438 489.0078125 133.420898438 489.0078125 113.497070312 489.0078125 c 4,52,53
 94.9326171875 489.0078125 94.9326171875 489.0078125 81.5751953125 501.686523438 c 132,-1,54
 68.2177734375 514.365234375 68.2177734375 514.365234375 68.2177734375 532.0234375 c 4,55,56
 68.2177734375 550.13671875 68.2177734375 550.13671875 78.4052734375 564.399414062 c 132,-1,57
 88.59375 578.662109375 88.59375 578.662109375 115.98828125 593.831054688 c 132,-1,58
 143.3828125 609 143.3828125 609 153.796875 616.697265625 c 132,-1,59
 164.2109375 624.39453125 164.2109375 624.39453125 184.134765625 644.318359375 c 5,60,-1
 135.684570312 646.12890625 l 6,61,62
 123.005859375 646.12890625 123.005859375 646.12890625 111.686523438 645.676757812 c 4,63,64
 84.9716796875 643.865234375 84.9716796875 643.865234375 75.009765625 643.865234375 c 4,65,66
 49.2001953125 643.865234375 49.2001953125 643.865234375 32.8994140625 658.35546875 c 132,-1,67
 16.59765625 672.844726562 16.59765625 672.844726562 16.59765625 692.768554688 c 4,68,69
 16.59765625 711.33203125 16.59765625 711.33203125 29.9560546875 724.690429688 c 132,-1,70
 43.3134765625 738.047851562 43.3134765625 738.047851562 63.689453125 738.047851562 c 4,71,72
 92.2158203125 738.047851562 92.2158203125 738.047851562 118.478515625 710.879882812 c 132,-1,73
 144.740234375 683.711914062 144.740234375 683.711914062 152.438476562 677.825195312 c 4,74,75
 163.305664062 670.127929688 163.305664062 670.127929688 188.208984375 659.260742188 c 5,0,1
EndSplineSet
Validated: 6815745
EndChar

StartChar: percent
Encoding: 37 37 93
Width: 2048
VWidth: 2048
Flags: W
LayerCount: 2
Fore
SplineSet
667.995117188 779.427734375 m 5,0,-1
 229.473632812 12.7509765625 l 5,1,-1
 168.454101562 12.7509765625 l 5,2,-1
 606.518554688 779.427734375 l 5,3,-1
 667.995117188 779.427734375 l 5,0,-1
169.365234375 779.427734375 m 260,4,5
 234.026367188 779.427734375 234.026367188 779.427734375 278.423828125 726.067382812 c 132,-1,6
 322.823242188 672.708007812 322.823242188 672.708007812 322.823242188 588.2890625 c 4,7,8
 322.823242188 501.74609375 322.823242188 501.74609375 278.197265625 447.85546875 c 132,-1,9
 233.572265625 393.965820312 233.572265625 393.965820312 167.54296875 393.965820312 c 4,10,11
 102.42578125 393.965820312 102.42578125 393.965820312 59.392578125 445.999023438 c 132,-1,12
 16.359375 498.03125 16.359375 498.03125 16.359375 582.98046875 c 4,13,14
 16.359375 670.584960938 16.359375 670.584960938 60.53125 725.004882812 c 132,-1,15
 104.702148438 779.427734375 104.702148438 779.427734375 169.365234375 779.427734375 c 260,4,5
169.365234375 751.288085938 m 260,16,17
 159.34765625 751.288085938 159.34765625 751.288085938 152.971679688 744.384765625 c 4,18,19
 141.586914062 732.173828125 141.586914062 732.173828125 135.89453125 702.17578125 c 132,-1,20
 130.201171875 672.177734375 130.201171875 672.177734375 130.201171875 578.203125 c 4,21,22
 130.201171875 503.338867188 130.201171875 503.338867188 137.944335938 462.456054688 c 4,23,24
 142.499023438 439.095703125 142.499023438 439.095703125 153.426757812 427.415039062 c 4,25,26
 160.2578125 420.512695312 160.2578125 420.512695312 169.365234375 420.512695312 c 4,27,28
 179.3828125 420.512695312 179.3828125 420.512695312 185.302734375 426.8828125 c 4,29,30
 195.775390625 438.03515625 195.775390625 438.03515625 200.78515625 462.987304688 c 4,31,32
 208.528320312 503.338867188 208.528320312 503.338867188 208.528320312 576.078125 c 4,33,34
 208.528320312 665.275390625 208.528320312 665.275390625 201.241210938 705.096679688 c 4,35,36
 196.23046875 732.705078125 196.23046875 732.705078125 184.84765625 745.446289062 c 4,37,38
 179.3828125 751.288085938 179.3828125 751.288085938 169.365234375 751.288085938 c 260,16,17
664.806640625 399.275390625 m 4,39,40
 730.834960938 399.275390625 730.834960938 399.275390625 775.233398438 346.446289062 c 132,-1,41
 819.630859375 293.619140625 819.630859375 293.619140625 819.630859375 208.13671875 c 4,42,43
 819.630859375 121.59375 819.630859375 121.59375 774.55078125 67.4375 c 132,-1,44
 729.46875 13.283203125 729.46875 13.283203125 665.716796875 13.283203125 c 4,45,46
 602.421875 13.283203125 602.421875 13.283203125 558.021484375 67.4375 c 132,-1,47
 513.625 121.59375 513.625 121.59375 513.625 206.545898438 c 4,48,49
 513.625 292.026367188 513.625 292.026367188 556.883789062 345.650390625 c 132,-1,50
 600.143554688 399.275390625 600.143554688 399.275390625 664.806640625 399.275390625 c 4,39,40
666.171875 371.66796875 m 4,51,52
 657.065429688 371.66796875 657.065429688 371.66796875 650.689453125 365.295898438 c 4,53,54
 639.762695312 353.615234375 639.762695312 353.615234375 633.840820312 324.678710938 c 132,-1,55
 627.920898438 295.7421875 627.920898438 295.7421875 627.920898438 213.978515625 c 4,56,57
 627.920898438 126.904296875 627.920898438 126.904296875 634.751953125 88.677734375 c 4,58,59
 639.762695312 61.5986328125 639.762695312 61.5986328125 651.600585938 49.3876953125 c 4,60,61
 657.51953125 43.0166015625 657.51953125 43.0166015625 667.083984375 43.0166015625 c 4,62,63
 675.735351562 43.0166015625 675.735351562 43.0166015625 681.19921875 48.8564453125 c 4,64,65
 692.583984375 61.0673828125 692.583984375 61.0673828125 698.047851562 88.677734375 c 4,66,67
 705.7890625 127.435546875 705.7890625 127.435546875 705.7890625 206.013671875 c 4,68,69
 705.7890625 288.83984375 705.7890625 288.83984375 698.502929688 327.069335938 c 4,70,71
 693.038085938 354.676757812 693.038085938 354.676757812 682.111328125 365.826171875 c 4,72,73
 676.645507812 371.66796875 676.645507812 371.66796875 666.171875 371.66796875 c 4,51,52
EndSplineSet
Validated: 6817793
EndChar

StartChar: dollar
Encoding: 36 36 94
Width: 1024
VWidth: 2048
Flags: W
LayerCount: 2
Fore
SplineSet
323.46875 499.168945312 m 5,0,1
 469.733398438 415.076171875 469.733398438 415.076171875 510.125 372.193359375 c 4,2,3
 563.979492188 314.275390625 563.979492188 314.275390625 563.979492188 235.750976562 c 4,4,5
 563.979492188 149.987304688 563.979492188 149.987304688 500.33203125 90.67578125 c 132,-1,6
 436.685546875 31.3662109375 436.685546875 31.3662109375 323.46875 22.455078125 c 5,7,-1
 323.46875 -42.703125 l 5,8,-1
 270.225585938 -42.703125 l 5,9,-1
 270.225585938 18.556640625 l 5,10,11
 205.354492188 19.6708984375 205.354492188 19.6708984375 155.171875 28.302734375 c 132,-1,12
 104.98828125 36.9345703125 104.98828125 36.9345703125 40.1181640625 59.767578125 c 5,13,-1
 40.1181640625 239.649414062 l 5,14,-1
 65.8212890625 239.649414062 l 5,15,16
 78.0615234375 178.389648438 78.0615234375 178.389648438 104.376953125 140.520507812 c 132,-1,17
 130.692382812 102.650390625 130.692382812 102.650390625 170.77734375 83.4365234375 c 132,-1,18
 210.862304688 64.2236328125 210.862304688 64.2236328125 270.225585938 59.767578125 c 5,19,-1
 270.225585938 334.880859375 l 5,20,21
 122.736328125 418.974609375 122.736328125 418.974609375 74.0830078125 469.374023438 c 132,-1,22
 25.4306640625 519.774414062 25.4306640625 519.774414062 25.4306640625 586.603515625 c 4,23,24
 25.4306640625 659.001953125 25.4306640625 659.001953125 86.62890625 714.4140625 c 132,-1,25
 147.828125 769.826171875 147.828125 769.826171875 270.225585938 783.749023438 c 5,26,-1
 270.225585938 809.923828125 l 5,27,-1
 323.46875 809.923828125 l 5,28,-1
 323.46875 783.749023438 l 5,29,30
 427.505859375 777.065429688 427.505859375 777.065429688 532.768554688 725.2734375 c 5,31,-1
 532.768554688 564.327148438 l 5,32,-1
 508.900390625 564.327148438 l 5,33,34
 491.153320312 618.904296875 491.153320312 618.904296875 466.368164062 653.989257812 c 132,-1,35
 441.58203125 689.075195312 441.58203125 689.075195312 402.4140625 714.134765625 c 4,36,37
 372.427734375 732.513671875 372.427734375 732.513671875 323.46875 744.765625 c 5,38,-1
 323.46875 499.168945312 l 5,0,1
270.225585938 746.436523438 m 5,39,40
 225.55078125 743.094726562 225.55078125 743.094726562 198.623046875 724.16015625 c 4,41,42
 155.784179688 694.643554688 155.784179688 694.643554688 155.784179688 652.875976562 c 4,43,44
 155.784179688 627.2578125 155.784179688 627.2578125 175.673828125 601.083984375 c 132,-1,45
 195.5625 574.908203125 195.5625 574.908203125 270.225585938 529.798828125 c 5,46,-1
 270.225585938 746.436523438 l 5,39,40
323.46875 59.767578125 m 5,47,48
 376.099609375 70.90625 376.099609375 70.90625 400.579101562 97.916015625 c 132,-1,49
 425.057617188 124.92578125 425.057617188 124.92578125 425.057617188 165.581054688 c 4,50,51
 425.057617188 200.666015625 425.057617188 200.666015625 403.333007812 231.295898438 c 132,-1,52
 381.607421875 261.924804688 381.607421875 261.924804688 323.46875 300.909179688 c 5,53,-1
 323.46875 59.767578125 l 5,47,48
EndSplineSet
Validated: 6815745
EndChar

StartChar: numbersign
Encoding: 35 35 95
Width: 1024
VWidth: 2048
Flags: W
LayerCount: 2
Fore
SplineSet
49.97265625 17.330078125 m 5,0,-1
 99.20703125 249.146484375 l 5,1,-1
 21.34765625 249.146484375 l 5,2,-1
 21.34765625 321.86328125 l 5,3,-1
 114.092773438 321.86328125 l 5,4,-1
 147.870117188 481.510742188 l 5,5,-1
 21.34765625 481.510742188 l 5,6,-1
 21.34765625 552.5859375 l 5,7,-1
 162.754882812 552.5859375 l 5,8,-1
 212.5625 789.323242188 l 5,9,-1
 288.1328125 789.323242188 l 5,10,-1
 237.752929688 552.5859375 l 5,11,-1
 406.639648438 552.5859375 l 5,12,-1
 455.875 789.323242188 l 5,13,-1
 531.4453125 789.323242188 l 5,14,-1
 481.065429688 552.5859375 l 5,15,-1
 561.21484375 552.5859375 l 5,16,-1
 561.21484375 481.510742188 l 5,17,-1
 466.752929688 481.510742188 l 5,18,-1
 432.40234375 321.86328125 l 5,19,-1
 561.21484375 321.86328125 l 5,20,-1
 561.21484375 249.146484375 l 5,21,-1
 418.08984375 249.146484375 l 5,22,-1
 368.85546875 17.330078125 l 5,23,-1
 292.712890625 17.330078125 l 5,24,-1
 341.947265625 249.146484375 l 5,25,-1
 175.349609375 249.146484375 l 5,26,-1
 123.825195312 17.330078125 l 5,27,-1
 49.97265625 17.330078125 l 5,0,-1
190.235351562 321.86328125 m 5,28,-1
 358.549804688 321.86328125 l 5,29,-1
 391.754882812 481.510742188 l 5,30,-1
 223.440429688 481.510742188 l 5,31,-1
 190.235351562 321.86328125 l 5,28,-1
EndSplineSet
Validated: 6815745
EndChar
